M48
; DRILL file {KiCad 7.0.10} date Tue Jun 18 14:27:36 2024
; FORMAT={-:-/ absolute / metric / decimal}
; #@! TF.CreationDate,2024-06-18T14:27:36+07:00
; #@! TF.GenerationSoftware,Kicad,Pcbnew,7.0.10
; #@! TF.FileFunction,MixedPlating,1,2
FMAT,2
METRIC
; #@! TA.AperFunction,Plated,PTH,ViaDrill
T1C0.500
; #@! TA.AperFunction,Plated,PTH,ViaDrill
T2C0.800
; #@! TA.AperFunction,Plated,PTH,ComponentDrill
T3C0.800
; #@! TA.AperFunction,Plated,PTH,ComponentDrill
T4C1.000
; #@! TA.AperFunction,Plated,PTH,ComponentDrill
T5C1.016
; #@! TA.AperFunction,Plated,PTH,ComponentDrill
T6C1.100
; #@! TA.AperFunction,Plated,PTH,ComponentDrill
T7C1.200
; #@! TA.AperFunction,Plated,PTH,ComponentDrill
T8C1.600
; #@! TA.AperFunction,NonPlated,NPTH,ComponentDrill
T9C3.200
%
G90
G05
T1
X100.92Y-101.605
X100.92Y-101.605
X114.716Y-92.98
X116.466Y-119.8
X117.366Y-96.901
X117.366Y-96.901
X123.826Y-118.59
X140.966Y-84.02
X146.041Y-118.8
X148.726Y-107.71
X150.836Y-132.71
X150.856Y-138.32
X150.956Y-118.8
X153.886Y-100.46
X154.386Y-133.12
X155.851Y-118.8
X159.306Y-80.78
X165.256Y-114.42
X167.166Y-77.5
X167.166Y-105.68
X179.076Y-108.22
X179.076Y-108.22
T2
X100.9Y-101.55
X108.4Y-111.7
X108.6Y-103.5
X114.8Y-92.95
X116.45Y-119.75
X117.35Y-96.95
X118.65Y-80.95
X123.8Y-118.6
X135.125Y-136.5
X139.6Y-136.6
X140.95Y-84.05
X144.825Y-131.525
X146.25Y-118.8
X148.7Y-107.7
X150.8Y-132.75
X150.8Y-138.3
X150.9Y-118.8
X153.9Y-100.4
X154.3Y-133.1
X155.8Y-118.8
X156.35Y-84.35
X158.4Y-116.95
X159.4Y-80.85
X165.0Y-114.4
X167.15Y-77.6
X167.3Y-105.65
X179.1Y-108.2
X205.475Y-82.1
X206.0Y-133.95
T3
X103.516Y-95.2
X107.016Y-95.2
X109.266Y-81.16
X109.266Y-86.16
X112.416Y-89.74
X113.766Y-105.8
X113.766Y-107.8
X114.416Y-89.74
X148.241Y-121.8
X148.241Y-129.42
X148.726Y-87.2
X148.726Y-94.82
X148.726Y-104.3
X148.726Y-111.92
X148.766Y-99.62
X150.766Y-99.62
X150.781Y-121.8
X150.781Y-129.42
X151.266Y-87.2
X151.266Y-94.82
X151.266Y-104.3
X151.266Y-111.92
X153.321Y-121.8
X153.321Y-129.42
X153.806Y-87.2
X153.806Y-94.82
X153.806Y-104.3
X153.806Y-111.92
X155.861Y-121.8
X155.861Y-129.42
X156.346Y-87.2
X156.346Y-94.82
X156.346Y-104.3
X156.346Y-111.92
X158.401Y-121.8
X158.401Y-129.42
X158.886Y-87.2
X158.886Y-94.82
X158.886Y-104.3
X158.886Y-111.92
X160.866Y-116.92
X160.941Y-121.8
X160.941Y-129.42
X161.366Y-82.42
X161.426Y-87.2
X161.426Y-94.82
X161.426Y-104.3
X161.426Y-111.92
X162.866Y-116.92
X163.366Y-82.42
X163.481Y-121.8
X163.481Y-129.42
X163.966Y-87.2
X163.966Y-94.82
X163.966Y-104.3
X163.966Y-111.92
X170.466Y-97.62
X170.466Y-119.12
X171.366Y-103.52
X171.366Y-113.02
X174.866Y-103.52
X174.866Y-113.02
X175.466Y-97.62
X175.466Y-119.12
T4
X114.526Y-123.44
X114.526Y-125.98
X114.526Y-128.52
X114.526Y-131.06
X120.256Y-88.65
X120.256Y-91.19
X120.256Y-93.73
X120.256Y-96.27
X120.256Y-98.81
X120.256Y-101.35
X120.256Y-103.89
X120.256Y-106.43
X120.256Y-108.97
X120.256Y-111.51
X120.256Y-114.05
X120.256Y-116.59
X120.256Y-119.13
X120.256Y-121.67
X120.256Y-124.21
X135.496Y-88.65
X135.496Y-91.19
X135.496Y-93.73
X135.496Y-96.27
X135.496Y-98.81
X135.496Y-101.35
X135.496Y-103.89
X135.496Y-106.43
X135.496Y-108.97
X135.496Y-111.51
X135.496Y-114.05
X135.496Y-116.59
X135.496Y-119.13
X135.496Y-121.67
X135.496Y-124.21
T5
X103.486Y-106.58
X103.486Y-109.12
X103.486Y-111.66
X103.486Y-114.2
X103.486Y-116.74
T6
X104.236Y-81.92
X104.236Y-84.46
X104.236Y-87.0
X189.766Y-87.68
X189.766Y-90.22
X189.766Y-92.76
X190.016Y-123.78
X190.016Y-126.32
X190.016Y-128.86
X217.966Y-123.48
X217.966Y-126.02
X217.966Y-128.56
X218.016Y-87.48
X218.016Y-90.02
X218.016Y-92.56
T7
X172.616Y-87.02
X172.616Y-93.42
X172.866Y-123.22
X172.866Y-129.62
X185.316Y-87.02
X185.316Y-93.42
X185.566Y-123.22
X185.566Y-129.62
X200.866Y-122.82
X200.866Y-129.22
X200.916Y-86.82
X200.916Y-93.22
X213.566Y-122.82
X213.566Y-129.22
X213.616Y-86.82
X213.616Y-93.22
T8
X93.916Y-84.34
X93.916Y-93.84
X182.846Y-103.32
X182.846Y-113.12
X198.086Y-103.32
X198.086Y-113.12
X208.516Y-103.02
X208.516Y-112.52
T9
X80.025Y-74.8
X80.025Y-136.825
X221.875Y-136.825
X221.989Y-74.8
M30
