%TF.GenerationSoftware,KiCad,Pcbnew,7.0.10*%
%TF.CreationDate,2024-06-18T14:27:42+07:00*%
%TF.ProjectId,full-bridge-inverter,66756c6c-2d62-4726-9964-67652d696e76,rev?*%
%TF.SameCoordinates,Original*%
%TF.FileFunction,Drillmap*%
%TF.FilePolarity,Positive*%
%FSLAX45Y45*%
G04 Gerber Fmt 4.5, Leading zero omitted, Abs format (unit mm)*
G04 Created by KiCad (PCBNEW 7.0.10) date 2024-06-18 14:27:42*
%MOMM*%
%LPD*%
G01*
G04 APERTURE LIST*
%ADD10C,0.100000*%
%ADD11C,0.500000*%
%ADD12C,0.200000*%
%ADD13C,0.101600*%
%ADD14C,0.110000*%
%ADD15C,0.120000*%
%ADD16C,0.160000*%
%ADD17C,0.320000*%
G04 APERTURE END LIST*
D10*
X22460000Y-14100000D02*
X22460000Y-14090000D01*
X22046569Y-14100000D02*
X22460000Y-14100000D01*
D11*
X7600000Y-7080000D02*
X22600000Y-7080000D01*
X22600000Y-14080000D01*
X7600000Y-14080000D01*
X7600000Y-7080000D01*
D12*
D10*
X10067049Y-10135520D02*
X10117049Y-10185520D01*
X10117049Y-10135520D02*
X10067049Y-10185520D01*
X10067049Y-10135520D02*
X10117049Y-10185520D01*
X10117049Y-10135520D02*
X10067049Y-10185520D01*
X11446568Y-9273000D02*
X11496568Y-9323000D01*
X11496568Y-9273000D02*
X11446568Y-9323000D01*
X11621568Y-11955000D02*
X11671568Y-12005000D01*
X11671568Y-11955000D02*
X11621568Y-12005000D01*
X11711632Y-9665064D02*
X11761632Y-9715064D01*
X11761632Y-9665064D02*
X11711632Y-9715064D01*
X11711632Y-9665064D02*
X11761632Y-9715064D01*
X11761632Y-9665064D02*
X11711632Y-9715064D01*
X12357568Y-11834000D02*
X12407568Y-11884000D01*
X12407568Y-11834000D02*
X12357568Y-11884000D01*
X14071568Y-8377000D02*
X14121568Y-8427000D01*
X14121568Y-8377000D02*
X14071568Y-8427000D01*
X14579068Y-11855000D02*
X14629068Y-11905000D01*
X14629068Y-11855000D02*
X14579068Y-11905000D01*
X14847568Y-10746000D02*
X14897568Y-10796000D01*
X14897568Y-10746000D02*
X14847568Y-10796000D01*
X15058568Y-13246000D02*
X15108568Y-13296000D01*
X15108568Y-13246000D02*
X15058568Y-13296000D01*
X15060568Y-13807000D02*
X15110568Y-13857000D01*
X15110568Y-13807000D02*
X15060568Y-13857000D01*
X15070568Y-11855000D02*
X15120568Y-11905000D01*
X15120568Y-11855000D02*
X15070568Y-11905000D01*
X15363568Y-10021000D02*
X15413568Y-10071000D01*
X15413568Y-10021000D02*
X15363568Y-10071000D01*
X15413568Y-13287000D02*
X15463568Y-13337000D01*
X15463568Y-13287000D02*
X15413568Y-13337000D01*
X15560068Y-11855000D02*
X15610068Y-11905000D01*
X15610068Y-11855000D02*
X15560068Y-11905000D01*
X15905568Y-8053000D02*
X15955568Y-8103000D01*
X15955568Y-8053000D02*
X15905568Y-8103000D01*
X16500568Y-11417000D02*
X16550568Y-11467000D01*
X16550568Y-11417000D02*
X16500568Y-11467000D01*
X16691568Y-7725000D02*
X16741568Y-7775000D01*
X16741568Y-7725000D02*
X16691568Y-7775000D01*
X16691568Y-10543000D02*
X16741568Y-10593000D01*
X16741568Y-10543000D02*
X16691568Y-10593000D01*
X17882569Y-10797000D02*
X17932569Y-10847000D01*
X17932569Y-10797000D02*
X17882569Y-10847000D01*
X17882569Y-10797000D02*
X17932569Y-10847000D01*
X17932569Y-10797000D02*
X17882569Y-10847000D01*
X10130000Y-10155000D02*
G75*
G03*
X10050000Y-10155000I-40000J0D01*
G01*
X10050000Y-10155000D02*
G75*
G03*
X10130000Y-10155000I40000J0D01*
G01*
X10880000Y-11170000D02*
G75*
G03*
X10800000Y-11170000I-40000J0D01*
G01*
X10800000Y-11170000D02*
G75*
G03*
X10880000Y-11170000I40000J0D01*
G01*
X10900000Y-10350000D02*
G75*
G03*
X10820000Y-10350000I-40000J0D01*
G01*
X10820000Y-10350000D02*
G75*
G03*
X10900000Y-10350000I40000J0D01*
G01*
X11520000Y-9295000D02*
G75*
G03*
X11440000Y-9295000I-40000J0D01*
G01*
X11440000Y-9295000D02*
G75*
G03*
X11520000Y-9295000I40000J0D01*
G01*
X11685000Y-11975000D02*
G75*
G03*
X11605000Y-11975000I-40000J0D01*
G01*
X11605000Y-11975000D02*
G75*
G03*
X11685000Y-11975000I40000J0D01*
G01*
X11775000Y-9695000D02*
G75*
G03*
X11695000Y-9695000I-40000J0D01*
G01*
X11695000Y-9695000D02*
G75*
G03*
X11775000Y-9695000I40000J0D01*
G01*
X11905000Y-8095000D02*
G75*
G03*
X11825000Y-8095000I-40000J0D01*
G01*
X11825000Y-8095000D02*
G75*
G03*
X11905000Y-8095000I40000J0D01*
G01*
X12420000Y-11860000D02*
G75*
G03*
X12340000Y-11860000I-40000J0D01*
G01*
X12340000Y-11860000D02*
G75*
G03*
X12420000Y-11860000I40000J0D01*
G01*
X13552500Y-13650000D02*
G75*
G03*
X13472500Y-13650000I-40000J0D01*
G01*
X13472500Y-13650000D02*
G75*
G03*
X13552500Y-13650000I40000J0D01*
G01*
X14000000Y-13660000D02*
G75*
G03*
X13920000Y-13660000I-40000J0D01*
G01*
X13920000Y-13660000D02*
G75*
G03*
X14000000Y-13660000I40000J0D01*
G01*
X14135000Y-8405000D02*
G75*
G03*
X14055000Y-8405000I-40000J0D01*
G01*
X14055000Y-8405000D02*
G75*
G03*
X14135000Y-8405000I40000J0D01*
G01*
X14522500Y-13152500D02*
G75*
G03*
X14442500Y-13152500I-40000J0D01*
G01*
X14442500Y-13152500D02*
G75*
G03*
X14522500Y-13152500I40000J0D01*
G01*
X14665000Y-11880000D02*
G75*
G03*
X14585000Y-11880000I-40000J0D01*
G01*
X14585000Y-11880000D02*
G75*
G03*
X14665000Y-11880000I40000J0D01*
G01*
X14910000Y-10770000D02*
G75*
G03*
X14830000Y-10770000I-40000J0D01*
G01*
X14830000Y-10770000D02*
G75*
G03*
X14910000Y-10770000I40000J0D01*
G01*
X15120000Y-13275000D02*
G75*
G03*
X15040000Y-13275000I-40000J0D01*
G01*
X15040000Y-13275000D02*
G75*
G03*
X15120000Y-13275000I40000J0D01*
G01*
X15120000Y-13830000D02*
G75*
G03*
X15040000Y-13830000I-40000J0D01*
G01*
X15040000Y-13830000D02*
G75*
G03*
X15120000Y-13830000I40000J0D01*
G01*
X15130000Y-11880000D02*
G75*
G03*
X15050000Y-11880000I-40000J0D01*
G01*
X15050000Y-11880000D02*
G75*
G03*
X15130000Y-11880000I40000J0D01*
G01*
X15430000Y-10040000D02*
G75*
G03*
X15350000Y-10040000I-40000J0D01*
G01*
X15350000Y-10040000D02*
G75*
G03*
X15430000Y-10040000I40000J0D01*
G01*
X15470000Y-13310000D02*
G75*
G03*
X15390000Y-13310000I-40000J0D01*
G01*
X15390000Y-13310000D02*
G75*
G03*
X15470000Y-13310000I40000J0D01*
G01*
X15620000Y-11880000D02*
G75*
G03*
X15540000Y-11880000I-40000J0D01*
G01*
X15540000Y-11880000D02*
G75*
G03*
X15620000Y-11880000I40000J0D01*
G01*
X15675000Y-8435000D02*
G75*
G03*
X15595000Y-8435000I-40000J0D01*
G01*
X15595000Y-8435000D02*
G75*
G03*
X15675000Y-8435000I40000J0D01*
G01*
X15880000Y-11695000D02*
G75*
G03*
X15800000Y-11695000I-40000J0D01*
G01*
X15800000Y-11695000D02*
G75*
G03*
X15880000Y-11695000I40000J0D01*
G01*
X15980000Y-8085000D02*
G75*
G03*
X15900000Y-8085000I-40000J0D01*
G01*
X15900000Y-8085000D02*
G75*
G03*
X15980000Y-8085000I40000J0D01*
G01*
X16540000Y-11440000D02*
G75*
G03*
X16460000Y-11440000I-40000J0D01*
G01*
X16460000Y-11440000D02*
G75*
G03*
X16540000Y-11440000I40000J0D01*
G01*
X16755000Y-7760000D02*
G75*
G03*
X16675000Y-7760000I-40000J0D01*
G01*
X16675000Y-7760000D02*
G75*
G03*
X16755000Y-7760000I40000J0D01*
G01*
X16770000Y-10565000D02*
G75*
G03*
X16690000Y-10565000I-40000J0D01*
G01*
X16690000Y-10565000D02*
G75*
G03*
X16770000Y-10565000I40000J0D01*
G01*
X17950000Y-10820000D02*
G75*
G03*
X17870000Y-10820000I-40000J0D01*
G01*
X17870000Y-10820000D02*
G75*
G03*
X17950000Y-10820000I40000J0D01*
G01*
X20587500Y-8210000D02*
G75*
G03*
X20507500Y-8210000I-40000J0D01*
G01*
X20507500Y-8210000D02*
G75*
G03*
X20587500Y-8210000I40000J0D01*
G01*
X20640000Y-13395000D02*
G75*
G03*
X20560000Y-13395000I-40000J0D01*
G01*
X20560000Y-13395000D02*
G75*
G03*
X20640000Y-13395000I40000J0D01*
G01*
X10351569Y-9480000D02*
X10351569Y-9560000D01*
X10311569Y-9520000D02*
X10391569Y-9520000D01*
X10701569Y-9480000D02*
X10701569Y-9560000D01*
X10661569Y-9520000D02*
X10741569Y-9520000D01*
X10926569Y-8076000D02*
X10926569Y-8156000D01*
X10886569Y-8116000D02*
X10966569Y-8116000D01*
X10926569Y-8576000D02*
X10926569Y-8656000D01*
X10886569Y-8616000D02*
X10966569Y-8616000D01*
X11241568Y-8934000D02*
X11241568Y-9014000D01*
X11201568Y-8974000D02*
X11281568Y-8974000D01*
X11376568Y-10540000D02*
X11376568Y-10620000D01*
X11336568Y-10580000D02*
X11416568Y-10580000D01*
X11376568Y-10740000D02*
X11376568Y-10820000D01*
X11336568Y-10780000D02*
X11416568Y-10780000D01*
X11441568Y-8934000D02*
X11441568Y-9014000D01*
X11401568Y-8974000D02*
X11481568Y-8974000D01*
X14824068Y-12140000D02*
X14824068Y-12220000D01*
X14784068Y-12180000D02*
X14864068Y-12180000D01*
X14824068Y-12902000D02*
X14824068Y-12982000D01*
X14784068Y-12942000D02*
X14864068Y-12942000D01*
X14872568Y-8680000D02*
X14872568Y-8760000D01*
X14832568Y-8720000D02*
X14912568Y-8720000D01*
X14872568Y-9442000D02*
X14872568Y-9522000D01*
X14832568Y-9482000D02*
X14912568Y-9482000D01*
X14872568Y-10390000D02*
X14872568Y-10470000D01*
X14832568Y-10430000D02*
X14912568Y-10430000D01*
X14872568Y-11152000D02*
X14872568Y-11232000D01*
X14832568Y-11192000D02*
X14912568Y-11192000D01*
X14876568Y-9922000D02*
X14876568Y-10002000D01*
X14836568Y-9962000D02*
X14916568Y-9962000D01*
X15076568Y-9922000D02*
X15076568Y-10002000D01*
X15036568Y-9962000D02*
X15116568Y-9962000D01*
X15078068Y-12140000D02*
X15078068Y-12220000D01*
X15038068Y-12180000D02*
X15118068Y-12180000D01*
X15078068Y-12902000D02*
X15078068Y-12982000D01*
X15038068Y-12942000D02*
X15118068Y-12942000D01*
X15126568Y-8680000D02*
X15126568Y-8760000D01*
X15086568Y-8720000D02*
X15166568Y-8720000D01*
X15126568Y-9442000D02*
X15126568Y-9522000D01*
X15086568Y-9482000D02*
X15166568Y-9482000D01*
X15126568Y-10390000D02*
X15126568Y-10470000D01*
X15086568Y-10430000D02*
X15166568Y-10430000D01*
X15126568Y-11152000D02*
X15126568Y-11232000D01*
X15086568Y-11192000D02*
X15166568Y-11192000D01*
X15332068Y-12140000D02*
X15332068Y-12220000D01*
X15292068Y-12180000D02*
X15372068Y-12180000D01*
X15332068Y-12902000D02*
X15332068Y-12982000D01*
X15292068Y-12942000D02*
X15372068Y-12942000D01*
X15380568Y-8680000D02*
X15380568Y-8760000D01*
X15340568Y-8720000D02*
X15420568Y-8720000D01*
X15380568Y-9442000D02*
X15380568Y-9522000D01*
X15340568Y-9482000D02*
X15420568Y-9482000D01*
X15380568Y-10390000D02*
X15380568Y-10470000D01*
X15340568Y-10430000D02*
X15420568Y-10430000D01*
X15380568Y-11152000D02*
X15380568Y-11232000D01*
X15340568Y-11192000D02*
X15420568Y-11192000D01*
X15586068Y-12140000D02*
X15586068Y-12220000D01*
X15546068Y-12180000D02*
X15626068Y-12180000D01*
X15586068Y-12902000D02*
X15586068Y-12982000D01*
X15546068Y-12942000D02*
X15626068Y-12942000D01*
X15634568Y-8680000D02*
X15634568Y-8760000D01*
X15594568Y-8720000D02*
X15674568Y-8720000D01*
X15634568Y-9442000D02*
X15634568Y-9522000D01*
X15594568Y-9482000D02*
X15674568Y-9482000D01*
X15634568Y-10390000D02*
X15634568Y-10470000D01*
X15594568Y-10430000D02*
X15674568Y-10430000D01*
X15634568Y-11152000D02*
X15634568Y-11232000D01*
X15594568Y-11192000D02*
X15674568Y-11192000D01*
X15840068Y-12140000D02*
X15840068Y-12220000D01*
X15800068Y-12180000D02*
X15880068Y-12180000D01*
X15840068Y-12902000D02*
X15840068Y-12982000D01*
X15800068Y-12942000D02*
X15880068Y-12942000D01*
X15888568Y-8680000D02*
X15888568Y-8760000D01*
X15848568Y-8720000D02*
X15928568Y-8720000D01*
X15888568Y-9442000D02*
X15888568Y-9522000D01*
X15848568Y-9482000D02*
X15928568Y-9482000D01*
X15888568Y-10390000D02*
X15888568Y-10470000D01*
X15848568Y-10430000D02*
X15928568Y-10430000D01*
X15888568Y-11152000D02*
X15888568Y-11232000D01*
X15848568Y-11192000D02*
X15928568Y-11192000D01*
X16086568Y-11652000D02*
X16086568Y-11732000D01*
X16046568Y-11692000D02*
X16126568Y-11692000D01*
X16094068Y-12140000D02*
X16094068Y-12220000D01*
X16054068Y-12180000D02*
X16134068Y-12180000D01*
X16094068Y-12902000D02*
X16094068Y-12982000D01*
X16054068Y-12942000D02*
X16134068Y-12942000D01*
X16136568Y-8202000D02*
X16136568Y-8282000D01*
X16096568Y-8242000D02*
X16176568Y-8242000D01*
X16142568Y-8680000D02*
X16142568Y-8760000D01*
X16102568Y-8720000D02*
X16182568Y-8720000D01*
X16142568Y-9442000D02*
X16142568Y-9522000D01*
X16102568Y-9482000D02*
X16182568Y-9482000D01*
X16142568Y-10390000D02*
X16142568Y-10470000D01*
X16102568Y-10430000D02*
X16182568Y-10430000D01*
X16142568Y-11152000D02*
X16142568Y-11232000D01*
X16102568Y-11192000D02*
X16182568Y-11192000D01*
X16286568Y-11652000D02*
X16286568Y-11732000D01*
X16246568Y-11692000D02*
X16326568Y-11692000D01*
X16336568Y-8202000D02*
X16336568Y-8282000D01*
X16296568Y-8242000D02*
X16376568Y-8242000D01*
X16348068Y-12140000D02*
X16348068Y-12220000D01*
X16308068Y-12180000D02*
X16388068Y-12180000D01*
X16348068Y-12902000D02*
X16348068Y-12982000D01*
X16308068Y-12942000D02*
X16388068Y-12942000D01*
X16396568Y-8680000D02*
X16396568Y-8760000D01*
X16356568Y-8720000D02*
X16436568Y-8720000D01*
X16396568Y-9442000D02*
X16396568Y-9522000D01*
X16356568Y-9482000D02*
X16436568Y-9482000D01*
X16396568Y-10390000D02*
X16396568Y-10470000D01*
X16356568Y-10430000D02*
X16436568Y-10430000D01*
X16396568Y-11152000D02*
X16396568Y-11232000D01*
X16356568Y-11192000D02*
X16436568Y-11192000D01*
X17046569Y-9722000D02*
X17046569Y-9802000D01*
X17006569Y-9762000D02*
X17086569Y-9762000D01*
X17046569Y-11872000D02*
X17046569Y-11952000D01*
X17006569Y-11912000D02*
X17086569Y-11912000D01*
X17136569Y-10312000D02*
X17136569Y-10392000D01*
X17096569Y-10352000D02*
X17176569Y-10352000D01*
X17136569Y-11262000D02*
X17136569Y-11342000D01*
X17096569Y-11302000D02*
X17176569Y-11302000D01*
X17486569Y-10312000D02*
X17486569Y-10392000D01*
X17446569Y-10352000D02*
X17526569Y-10352000D01*
X17486569Y-11262000D02*
X17486569Y-11342000D01*
X17446569Y-11302000D02*
X17526569Y-11302000D01*
X17546569Y-9722000D02*
X17546569Y-9802000D01*
X17506569Y-9762000D02*
X17586569Y-9762000D01*
X17546569Y-11872000D02*
X17546569Y-11952000D01*
X17506569Y-11912000D02*
X17586569Y-11912000D01*
X11487924Y-12379356D02*
X11487924Y-12308644D01*
X11417213Y-12308644D01*
X11417213Y-12379356D01*
X11487924Y-12379356D01*
X11487924Y-12633356D02*
X11487924Y-12562644D01*
X11417213Y-12562644D01*
X11417213Y-12633356D01*
X11487924Y-12633356D01*
X11487924Y-12887356D02*
X11487924Y-12816644D01*
X11417213Y-12816644D01*
X11417213Y-12887356D01*
X11487924Y-12887356D01*
X11487924Y-13141356D02*
X11487924Y-13070644D01*
X11417213Y-13070644D01*
X11417213Y-13141356D01*
X11487924Y-13141356D01*
X12060924Y-8900356D02*
X12060924Y-8829644D01*
X11990213Y-8829644D01*
X11990213Y-8900356D01*
X12060924Y-8900356D01*
X12060924Y-9154356D02*
X12060924Y-9083644D01*
X11990213Y-9083644D01*
X11990213Y-9154356D01*
X12060924Y-9154356D01*
X12060924Y-9408356D02*
X12060924Y-9337644D01*
X11990213Y-9337644D01*
X11990213Y-9408356D01*
X12060924Y-9408356D01*
X12060924Y-9662356D02*
X12060924Y-9591644D01*
X11990213Y-9591644D01*
X11990213Y-9662356D01*
X12060924Y-9662356D01*
X12060924Y-9916356D02*
X12060924Y-9845644D01*
X11990213Y-9845644D01*
X11990213Y-9916356D01*
X12060924Y-9916356D01*
X12060924Y-10170356D02*
X12060924Y-10099644D01*
X11990213Y-10099644D01*
X11990213Y-10170356D01*
X12060924Y-10170356D01*
X12060924Y-10424356D02*
X12060924Y-10353644D01*
X11990213Y-10353644D01*
X11990213Y-10424356D01*
X12060924Y-10424356D01*
X12060924Y-10678356D02*
X12060924Y-10607644D01*
X11990213Y-10607644D01*
X11990213Y-10678356D01*
X12060924Y-10678356D01*
X12060924Y-10932356D02*
X12060924Y-10861644D01*
X11990213Y-10861644D01*
X11990213Y-10932356D01*
X12060924Y-10932356D01*
X12060924Y-11186356D02*
X12060924Y-11115644D01*
X11990213Y-11115644D01*
X11990213Y-11186356D01*
X12060924Y-11186356D01*
X12060924Y-11440356D02*
X12060924Y-11369644D01*
X11990213Y-11369644D01*
X11990213Y-11440356D01*
X12060924Y-11440356D01*
X12060924Y-11694356D02*
X12060924Y-11623644D01*
X11990213Y-11623644D01*
X11990213Y-11694356D01*
X12060924Y-11694356D01*
X12060924Y-11948356D02*
X12060924Y-11877644D01*
X11990213Y-11877644D01*
X11990213Y-11948356D01*
X12060924Y-11948356D01*
X12060924Y-12202356D02*
X12060924Y-12131644D01*
X11990213Y-12131644D01*
X11990213Y-12202356D01*
X12060924Y-12202356D01*
X12060924Y-12456356D02*
X12060924Y-12385644D01*
X11990213Y-12385644D01*
X11990213Y-12456356D01*
X12060924Y-12456356D01*
X13584924Y-8900356D02*
X13584924Y-8829644D01*
X13514213Y-8829644D01*
X13514213Y-8900356D01*
X13584924Y-8900356D01*
X13584924Y-9154356D02*
X13584924Y-9083644D01*
X13514213Y-9083644D01*
X13514213Y-9154356D01*
X13584924Y-9154356D01*
X13584924Y-9408356D02*
X13584924Y-9337644D01*
X13514213Y-9337644D01*
X13514213Y-9408356D01*
X13584924Y-9408356D01*
X13584924Y-9662356D02*
X13584924Y-9591644D01*
X13514213Y-9591644D01*
X13514213Y-9662356D01*
X13584924Y-9662356D01*
X13584924Y-9916356D02*
X13584924Y-9845644D01*
X13514213Y-9845644D01*
X13514213Y-9916356D01*
X13584924Y-9916356D01*
X13584924Y-10170356D02*
X13584924Y-10099644D01*
X13514213Y-10099644D01*
X13514213Y-10170356D01*
X13584924Y-10170356D01*
X13584924Y-10424356D02*
X13584924Y-10353644D01*
X13514213Y-10353644D01*
X13514213Y-10424356D01*
X13584924Y-10424356D01*
X13584924Y-10678356D02*
X13584924Y-10607644D01*
X13514213Y-10607644D01*
X13514213Y-10678356D01*
X13584924Y-10678356D01*
X13584924Y-10932356D02*
X13584924Y-10861644D01*
X13514213Y-10861644D01*
X13514213Y-10932356D01*
X13584924Y-10932356D01*
X13584924Y-11186356D02*
X13584924Y-11115644D01*
X13514213Y-11115644D01*
X13514213Y-11186356D01*
X13584924Y-11186356D01*
X13584924Y-11440356D02*
X13584924Y-11369644D01*
X13514213Y-11369644D01*
X13514213Y-11440356D01*
X13584924Y-11440356D01*
X13584924Y-11694356D02*
X13584924Y-11623644D01*
X13514213Y-11623644D01*
X13514213Y-11694356D01*
X13584924Y-11694356D01*
X13584924Y-11948356D02*
X13584924Y-11877644D01*
X13514213Y-11877644D01*
X13514213Y-11948356D01*
X13584924Y-11948356D01*
X13584924Y-12202356D02*
X13584924Y-12131644D01*
X13514213Y-12131644D01*
X13514213Y-12202356D01*
X13584924Y-12202356D01*
X13584924Y-12456356D02*
X13584924Y-12385644D01*
X13514213Y-12385644D01*
X13514213Y-12456356D01*
X13584924Y-12456356D01*
D13*
X10348569Y-10708800D02*
X10399369Y-10658000D01*
X10348569Y-10607200D01*
X10297769Y-10658000D01*
X10348569Y-10708800D01*
X10348569Y-10962800D02*
X10399369Y-10912000D01*
X10348569Y-10861200D01*
X10297769Y-10912000D01*
X10348569Y-10962800D01*
X10348569Y-11216800D02*
X10399369Y-11166000D01*
X10348569Y-11115200D01*
X10297769Y-11166000D01*
X10348569Y-11216800D01*
X10348569Y-11470800D02*
X10399369Y-11420000D01*
X10348569Y-11369200D01*
X10297769Y-11420000D01*
X10348569Y-11470800D01*
X10348569Y-11724800D02*
X10399369Y-11674000D01*
X10348569Y-11623200D01*
X10297769Y-11674000D01*
X10348569Y-11724800D01*
D14*
X10368569Y-8137000D02*
X10478569Y-8247000D01*
X10478569Y-8137000D02*
X10368569Y-8247000D01*
X10478569Y-8192000D02*
G75*
G03*
X10368569Y-8192000I-55000J0D01*
G01*
X10368569Y-8192000D02*
G75*
G03*
X10478569Y-8192000I55000J0D01*
G01*
X10368569Y-8391000D02*
X10478569Y-8501000D01*
X10478569Y-8391000D02*
X10368569Y-8501000D01*
X10478569Y-8446000D02*
G75*
G03*
X10368569Y-8446000I-55000J0D01*
G01*
X10368569Y-8446000D02*
G75*
G03*
X10478569Y-8446000I55000J0D01*
G01*
X10368569Y-8645000D02*
X10478569Y-8755000D01*
X10478569Y-8645000D02*
X10368569Y-8755000D01*
X10478569Y-8700000D02*
G75*
G03*
X10368569Y-8700000I-55000J0D01*
G01*
X10368569Y-8700000D02*
G75*
G03*
X10478569Y-8700000I55000J0D01*
G01*
X18921569Y-8713000D02*
X19031569Y-8823000D01*
X19031569Y-8713000D02*
X18921569Y-8823000D01*
X19031569Y-8768000D02*
G75*
G03*
X18921569Y-8768000I-55000J0D01*
G01*
X18921569Y-8768000D02*
G75*
G03*
X19031569Y-8768000I55000J0D01*
G01*
X18921569Y-8967000D02*
X19031569Y-9077000D01*
X19031569Y-8967000D02*
X18921569Y-9077000D01*
X19031569Y-9022000D02*
G75*
G03*
X18921569Y-9022000I-55000J0D01*
G01*
X18921569Y-9022000D02*
G75*
G03*
X19031569Y-9022000I55000J0D01*
G01*
X18921569Y-9221000D02*
X19031569Y-9331000D01*
X19031569Y-9221000D02*
X18921569Y-9331000D01*
X19031569Y-9276000D02*
G75*
G03*
X18921569Y-9276000I-55000J0D01*
G01*
X18921569Y-9276000D02*
G75*
G03*
X19031569Y-9276000I55000J0D01*
G01*
X18946569Y-12323000D02*
X19056569Y-12433000D01*
X19056569Y-12323000D02*
X18946569Y-12433000D01*
X19056569Y-12378000D02*
G75*
G03*
X18946569Y-12378000I-55000J0D01*
G01*
X18946569Y-12378000D02*
G75*
G03*
X19056569Y-12378000I55000J0D01*
G01*
X18946569Y-12577000D02*
X19056569Y-12687000D01*
X19056569Y-12577000D02*
X18946569Y-12687000D01*
X19056569Y-12632000D02*
G75*
G03*
X18946569Y-12632000I-55000J0D01*
G01*
X18946569Y-12632000D02*
G75*
G03*
X19056569Y-12632000I55000J0D01*
G01*
X18946569Y-12831000D02*
X19056569Y-12941000D01*
X19056569Y-12831000D02*
X18946569Y-12941000D01*
X19056569Y-12886000D02*
G75*
G03*
X18946569Y-12886000I-55000J0D01*
G01*
X18946569Y-12886000D02*
G75*
G03*
X19056569Y-12886000I55000J0D01*
G01*
X21741569Y-12293000D02*
X21851569Y-12403000D01*
X21851569Y-12293000D02*
X21741569Y-12403000D01*
X21851569Y-12348000D02*
G75*
G03*
X21741569Y-12348000I-55000J0D01*
G01*
X21741569Y-12348000D02*
G75*
G03*
X21851569Y-12348000I55000J0D01*
G01*
X21741569Y-12547000D02*
X21851569Y-12657000D01*
X21851569Y-12547000D02*
X21741569Y-12657000D01*
X21851569Y-12602000D02*
G75*
G03*
X21741569Y-12602000I-55000J0D01*
G01*
X21741569Y-12602000D02*
G75*
G03*
X21851569Y-12602000I55000J0D01*
G01*
X21741569Y-12801000D02*
X21851569Y-12911000D01*
X21851569Y-12801000D02*
X21741569Y-12911000D01*
X21851569Y-12856000D02*
G75*
G03*
X21741569Y-12856000I-55000J0D01*
G01*
X21741569Y-12856000D02*
G75*
G03*
X21851569Y-12856000I55000J0D01*
G01*
X21746569Y-8693000D02*
X21856569Y-8803000D01*
X21856569Y-8693000D02*
X21746569Y-8803000D01*
X21856569Y-8748000D02*
G75*
G03*
X21746569Y-8748000I-55000J0D01*
G01*
X21746569Y-8748000D02*
G75*
G03*
X21856569Y-8748000I55000J0D01*
G01*
X21746569Y-8947000D02*
X21856569Y-9057000D01*
X21856569Y-8947000D02*
X21746569Y-9057000D01*
X21856569Y-9002000D02*
G75*
G03*
X21746569Y-9002000I-55000J0D01*
G01*
X21746569Y-9002000D02*
G75*
G03*
X21856569Y-9002000I55000J0D01*
G01*
X21746569Y-9201000D02*
X21856569Y-9311000D01*
X21856569Y-9201000D02*
X21746569Y-9311000D01*
X21856569Y-9256000D02*
G75*
G03*
X21746569Y-9256000I-55000J0D01*
G01*
X21746569Y-9256000D02*
G75*
G03*
X21856569Y-9256000I55000J0D01*
G01*
D15*
X17201569Y-8642000D02*
X17321569Y-8762000D01*
X17321569Y-8642000D02*
X17201569Y-8762000D01*
X17261569Y-8642000D02*
X17261569Y-8762000D01*
X17201569Y-8702000D02*
X17321569Y-8702000D01*
X17201569Y-9282000D02*
X17321569Y-9402000D01*
X17321569Y-9282000D02*
X17201569Y-9402000D01*
X17261569Y-9282000D02*
X17261569Y-9402000D01*
X17201569Y-9342000D02*
X17321569Y-9342000D01*
X17226569Y-12262000D02*
X17346569Y-12382000D01*
X17346569Y-12262000D02*
X17226569Y-12382000D01*
X17286569Y-12262000D02*
X17286569Y-12382000D01*
X17226569Y-12322000D02*
X17346569Y-12322000D01*
X17226569Y-12902000D02*
X17346569Y-13022000D01*
X17346569Y-12902000D02*
X17226569Y-13022000D01*
X17286569Y-12902000D02*
X17286569Y-13022000D01*
X17226569Y-12962000D02*
X17346569Y-12962000D01*
X18471569Y-8642000D02*
X18591569Y-8762000D01*
X18591569Y-8642000D02*
X18471569Y-8762000D01*
X18531569Y-8642000D02*
X18531569Y-8762000D01*
X18471569Y-8702000D02*
X18591569Y-8702000D01*
X18471569Y-9282000D02*
X18591569Y-9402000D01*
X18591569Y-9282000D02*
X18471569Y-9402000D01*
X18531569Y-9282000D02*
X18531569Y-9402000D01*
X18471569Y-9342000D02*
X18591569Y-9342000D01*
X18496569Y-12262000D02*
X18616569Y-12382000D01*
X18616569Y-12262000D02*
X18496569Y-12382000D01*
X18556569Y-12262000D02*
X18556569Y-12382000D01*
X18496569Y-12322000D02*
X18616569Y-12322000D01*
X18496569Y-12902000D02*
X18616569Y-13022000D01*
X18616569Y-12902000D02*
X18496569Y-13022000D01*
X18556569Y-12902000D02*
X18556569Y-13022000D01*
X18496569Y-12962000D02*
X18616569Y-12962000D01*
X20026569Y-12222000D02*
X20146569Y-12342000D01*
X20146569Y-12222000D02*
X20026569Y-12342000D01*
X20086569Y-12222000D02*
X20086569Y-12342000D01*
X20026569Y-12282000D02*
X20146569Y-12282000D01*
X20026569Y-12862000D02*
X20146569Y-12982000D01*
X20146569Y-12862000D02*
X20026569Y-12982000D01*
X20086569Y-12862000D02*
X20086569Y-12982000D01*
X20026569Y-12922000D02*
X20146569Y-12922000D01*
X20031569Y-8622000D02*
X20151569Y-8742000D01*
X20151569Y-8622000D02*
X20031569Y-8742000D01*
X20091569Y-8622000D02*
X20091569Y-8742000D01*
X20031569Y-8682000D02*
X20151569Y-8682000D01*
X20031569Y-9262000D02*
X20151569Y-9382000D01*
X20151569Y-9262000D02*
X20031569Y-9382000D01*
X20091569Y-9262000D02*
X20091569Y-9382000D01*
X20031569Y-9322000D02*
X20151569Y-9322000D01*
X21296569Y-12222000D02*
X21416569Y-12342000D01*
X21416569Y-12222000D02*
X21296569Y-12342000D01*
X21356569Y-12222000D02*
X21356569Y-12342000D01*
X21296569Y-12282000D02*
X21416569Y-12282000D01*
X21296569Y-12862000D02*
X21416569Y-12982000D01*
X21416569Y-12862000D02*
X21296569Y-12982000D01*
X21356569Y-12862000D02*
X21356569Y-12982000D01*
X21296569Y-12922000D02*
X21416569Y-12922000D01*
X21301569Y-8622000D02*
X21421569Y-8742000D01*
X21421569Y-8622000D02*
X21301569Y-8742000D01*
X21361569Y-8622000D02*
X21361569Y-8742000D01*
X21301569Y-8682000D02*
X21421569Y-8682000D01*
X21301569Y-9262000D02*
X21421569Y-9382000D01*
X21421569Y-9262000D02*
X21301569Y-9382000D01*
X21361569Y-9262000D02*
X21361569Y-9382000D01*
X21301569Y-9322000D02*
X21421569Y-9322000D01*
D16*
X9311569Y-8354000D02*
X9471569Y-8514000D01*
X9471569Y-8354000D02*
X9311569Y-8514000D01*
X9448138Y-8490569D02*
X9448138Y-8377431D01*
X9334999Y-8377431D01*
X9334999Y-8490569D01*
X9448138Y-8490569D01*
X9311569Y-9304000D02*
X9471569Y-9464000D01*
X9471569Y-9304000D02*
X9311569Y-9464000D01*
X9448138Y-9440569D02*
X9448138Y-9327431D01*
X9334999Y-9327431D01*
X9334999Y-9440569D01*
X9448138Y-9440569D01*
X18204569Y-10252000D02*
X18364569Y-10412000D01*
X18364569Y-10252000D02*
X18204569Y-10412000D01*
X18341138Y-10388569D02*
X18341138Y-10275431D01*
X18227999Y-10275431D01*
X18227999Y-10388569D01*
X18341138Y-10388569D01*
X18204569Y-11232000D02*
X18364569Y-11392000D01*
X18364569Y-11232000D02*
X18204569Y-11392000D01*
X18341138Y-11368569D02*
X18341138Y-11255431D01*
X18227999Y-11255431D01*
X18227999Y-11368569D01*
X18341138Y-11368569D01*
X19728569Y-10252000D02*
X19888569Y-10412000D01*
X19888569Y-10252000D02*
X19728569Y-10412000D01*
X19865138Y-10388569D02*
X19865138Y-10275431D01*
X19751999Y-10275431D01*
X19751999Y-10388569D01*
X19865138Y-10388569D01*
X19728569Y-11232000D02*
X19888569Y-11392000D01*
X19888569Y-11232000D02*
X19728569Y-11392000D01*
X19865138Y-11368569D02*
X19865138Y-11255431D01*
X19751999Y-11255431D01*
X19751999Y-11368569D01*
X19865138Y-11368569D01*
X20771569Y-10222000D02*
X20931569Y-10382000D01*
X20931569Y-10222000D02*
X20771569Y-10382000D01*
X20908138Y-10358569D02*
X20908138Y-10245431D01*
X20794999Y-10245431D01*
X20794999Y-10358569D01*
X20908138Y-10358569D01*
X20771569Y-11172000D02*
X20931569Y-11332000D01*
X20931569Y-11172000D02*
X20771569Y-11332000D01*
X20908138Y-11308569D02*
X20908138Y-11195431D01*
X20794999Y-11195431D01*
X20794999Y-11308569D01*
X20908138Y-11308569D01*
D17*
X7842500Y-7320000D02*
X8162500Y-7640000D01*
X8162500Y-7320000D02*
X7842500Y-7640000D01*
X8002500Y-7640000D02*
X8162500Y-7480000D01*
X8002500Y-7320000D01*
X7842500Y-7480000D01*
X8002500Y-7640000D01*
X7842500Y-13522500D02*
X8162500Y-13842500D01*
X8162500Y-13522500D02*
X7842500Y-13842500D01*
X8002500Y-13842500D02*
X8162500Y-13682500D01*
X8002500Y-13522500D01*
X7842500Y-13682500D01*
X8002500Y-13842500D01*
X22027500Y-13522500D02*
X22347500Y-13842500D01*
X22347500Y-13522500D02*
X22027500Y-13842500D01*
X22187500Y-13842500D02*
X22347500Y-13682500D01*
X22187500Y-13522500D01*
X22027500Y-13682500D01*
X22187500Y-13842500D01*
X22038932Y-7320000D02*
X22358932Y-7640000D01*
X22358932Y-7320000D02*
X22038932Y-7640000D01*
X22198932Y-7640000D02*
X22358932Y-7480000D01*
X22198932Y-7320000D01*
X22038932Y-7480000D01*
X22198932Y-7640000D01*
D12*
X7835777Y-14416484D02*
X7835777Y-14216484D01*
X7835777Y-14216484D02*
X7883396Y-14216484D01*
X7883396Y-14216484D02*
X7911967Y-14226008D01*
X7911967Y-14226008D02*
X7931015Y-14245055D01*
X7931015Y-14245055D02*
X7940539Y-14264103D01*
X7940539Y-14264103D02*
X7950062Y-14302198D01*
X7950062Y-14302198D02*
X7950062Y-14330769D01*
X7950062Y-14330769D02*
X7940539Y-14368865D01*
X7940539Y-14368865D02*
X7931015Y-14387912D01*
X7931015Y-14387912D02*
X7911967Y-14406960D01*
X7911967Y-14406960D02*
X7883396Y-14416484D01*
X7883396Y-14416484D02*
X7835777Y-14416484D01*
X8035777Y-14416484D02*
X8035777Y-14283150D01*
X8035777Y-14321246D02*
X8045301Y-14302198D01*
X8045301Y-14302198D02*
X8054824Y-14292674D01*
X8054824Y-14292674D02*
X8073872Y-14283150D01*
X8073872Y-14283150D02*
X8092920Y-14283150D01*
X8159586Y-14416484D02*
X8159586Y-14283150D01*
X8159586Y-14216484D02*
X8150062Y-14226008D01*
X8150062Y-14226008D02*
X8159586Y-14235531D01*
X8159586Y-14235531D02*
X8169110Y-14226008D01*
X8169110Y-14226008D02*
X8159586Y-14216484D01*
X8159586Y-14216484D02*
X8159586Y-14235531D01*
X8283396Y-14416484D02*
X8264348Y-14406960D01*
X8264348Y-14406960D02*
X8254824Y-14387912D01*
X8254824Y-14387912D02*
X8254824Y-14216484D01*
X8388158Y-14416484D02*
X8369110Y-14406960D01*
X8369110Y-14406960D02*
X8359586Y-14387912D01*
X8359586Y-14387912D02*
X8359586Y-14216484D01*
X8616729Y-14416484D02*
X8616729Y-14216484D01*
X8616729Y-14216484D02*
X8683396Y-14359341D01*
X8683396Y-14359341D02*
X8750063Y-14216484D01*
X8750063Y-14216484D02*
X8750063Y-14416484D01*
X8931015Y-14416484D02*
X8931015Y-14311722D01*
X8931015Y-14311722D02*
X8921491Y-14292674D01*
X8921491Y-14292674D02*
X8902444Y-14283150D01*
X8902444Y-14283150D02*
X8864348Y-14283150D01*
X8864348Y-14283150D02*
X8845301Y-14292674D01*
X8931015Y-14406960D02*
X8911967Y-14416484D01*
X8911967Y-14416484D02*
X8864348Y-14416484D01*
X8864348Y-14416484D02*
X8845301Y-14406960D01*
X8845301Y-14406960D02*
X8835777Y-14387912D01*
X8835777Y-14387912D02*
X8835777Y-14368865D01*
X8835777Y-14368865D02*
X8845301Y-14349817D01*
X8845301Y-14349817D02*
X8864348Y-14340293D01*
X8864348Y-14340293D02*
X8911967Y-14340293D01*
X8911967Y-14340293D02*
X8931015Y-14330769D01*
X9026253Y-14283150D02*
X9026253Y-14483150D01*
X9026253Y-14292674D02*
X9045301Y-14283150D01*
X9045301Y-14283150D02*
X9083396Y-14283150D01*
X9083396Y-14283150D02*
X9102444Y-14292674D01*
X9102444Y-14292674D02*
X9111967Y-14302198D01*
X9111967Y-14302198D02*
X9121491Y-14321246D01*
X9121491Y-14321246D02*
X9121491Y-14378388D01*
X9121491Y-14378388D02*
X9111967Y-14397436D01*
X9111967Y-14397436D02*
X9102444Y-14406960D01*
X9102444Y-14406960D02*
X9083396Y-14416484D01*
X9083396Y-14416484D02*
X9045301Y-14416484D01*
X9045301Y-14416484D02*
X9026253Y-14406960D01*
X9207205Y-14397436D02*
X9216729Y-14406960D01*
X9216729Y-14406960D02*
X9207205Y-14416484D01*
X9207205Y-14416484D02*
X9197682Y-14406960D01*
X9197682Y-14406960D02*
X9207205Y-14397436D01*
X9207205Y-14397436D02*
X9207205Y-14416484D01*
X9207205Y-14292674D02*
X9216729Y-14302198D01*
X9216729Y-14302198D02*
X9207205Y-14311722D01*
X9207205Y-14311722D02*
X9197682Y-14302198D01*
X9197682Y-14302198D02*
X9207205Y-14292674D01*
X9207205Y-14292674D02*
X9207205Y-14311722D01*
D10*
X7525000Y-14720000D02*
X7575000Y-14770000D01*
X7575000Y-14720000D02*
X7525000Y-14770000D01*
D12*
X7873872Y-14636484D02*
X7892920Y-14636484D01*
X7892920Y-14636484D02*
X7911967Y-14646008D01*
X7911967Y-14646008D02*
X7921491Y-14655531D01*
X7921491Y-14655531D02*
X7931015Y-14674579D01*
X7931015Y-14674579D02*
X7940539Y-14712674D01*
X7940539Y-14712674D02*
X7940539Y-14760293D01*
X7940539Y-14760293D02*
X7931015Y-14798388D01*
X7931015Y-14798388D02*
X7921491Y-14817436D01*
X7921491Y-14817436D02*
X7911967Y-14826960D01*
X7911967Y-14826960D02*
X7892920Y-14836484D01*
X7892920Y-14836484D02*
X7873872Y-14836484D01*
X7873872Y-14836484D02*
X7854824Y-14826960D01*
X7854824Y-14826960D02*
X7845301Y-14817436D01*
X7845301Y-14817436D02*
X7835777Y-14798388D01*
X7835777Y-14798388D02*
X7826253Y-14760293D01*
X7826253Y-14760293D02*
X7826253Y-14712674D01*
X7826253Y-14712674D02*
X7835777Y-14674579D01*
X7835777Y-14674579D02*
X7845301Y-14655531D01*
X7845301Y-14655531D02*
X7854824Y-14646008D01*
X7854824Y-14646008D02*
X7873872Y-14636484D01*
X8026253Y-14817436D02*
X8035777Y-14826960D01*
X8035777Y-14826960D02*
X8026253Y-14836484D01*
X8026253Y-14836484D02*
X8016729Y-14826960D01*
X8016729Y-14826960D02*
X8026253Y-14817436D01*
X8026253Y-14817436D02*
X8026253Y-14836484D01*
X8216729Y-14636484D02*
X8121491Y-14636484D01*
X8121491Y-14636484D02*
X8111967Y-14731722D01*
X8111967Y-14731722D02*
X8121491Y-14722198D01*
X8121491Y-14722198D02*
X8140539Y-14712674D01*
X8140539Y-14712674D02*
X8188158Y-14712674D01*
X8188158Y-14712674D02*
X8207205Y-14722198D01*
X8207205Y-14722198D02*
X8216729Y-14731722D01*
X8216729Y-14731722D02*
X8226253Y-14750769D01*
X8226253Y-14750769D02*
X8226253Y-14798388D01*
X8226253Y-14798388D02*
X8216729Y-14817436D01*
X8216729Y-14817436D02*
X8207205Y-14826960D01*
X8207205Y-14826960D02*
X8188158Y-14836484D01*
X8188158Y-14836484D02*
X8140539Y-14836484D01*
X8140539Y-14836484D02*
X8121491Y-14826960D01*
X8121491Y-14826960D02*
X8111967Y-14817436D01*
X8350062Y-14636484D02*
X8369110Y-14636484D01*
X8369110Y-14636484D02*
X8388158Y-14646008D01*
X8388158Y-14646008D02*
X8397682Y-14655531D01*
X8397682Y-14655531D02*
X8407205Y-14674579D01*
X8407205Y-14674579D02*
X8416729Y-14712674D01*
X8416729Y-14712674D02*
X8416729Y-14760293D01*
X8416729Y-14760293D02*
X8407205Y-14798388D01*
X8407205Y-14798388D02*
X8397682Y-14817436D01*
X8397682Y-14817436D02*
X8388158Y-14826960D01*
X8388158Y-14826960D02*
X8369110Y-14836484D01*
X8369110Y-14836484D02*
X8350062Y-14836484D01*
X8350062Y-14836484D02*
X8331015Y-14826960D01*
X8331015Y-14826960D02*
X8321491Y-14817436D01*
X8321491Y-14817436D02*
X8311967Y-14798388D01*
X8311967Y-14798388D02*
X8302443Y-14760293D01*
X8302443Y-14760293D02*
X8302443Y-14712674D01*
X8302443Y-14712674D02*
X8311967Y-14674579D01*
X8311967Y-14674579D02*
X8321491Y-14655531D01*
X8321491Y-14655531D02*
X8331015Y-14646008D01*
X8331015Y-14646008D02*
X8350062Y-14636484D01*
X8540539Y-14636484D02*
X8559586Y-14636484D01*
X8559586Y-14636484D02*
X8578634Y-14646008D01*
X8578634Y-14646008D02*
X8588158Y-14655531D01*
X8588158Y-14655531D02*
X8597682Y-14674579D01*
X8597682Y-14674579D02*
X8607205Y-14712674D01*
X8607205Y-14712674D02*
X8607205Y-14760293D01*
X8607205Y-14760293D02*
X8597682Y-14798388D01*
X8597682Y-14798388D02*
X8588158Y-14817436D01*
X8588158Y-14817436D02*
X8578634Y-14826960D01*
X8578634Y-14826960D02*
X8559586Y-14836484D01*
X8559586Y-14836484D02*
X8540539Y-14836484D01*
X8540539Y-14836484D02*
X8521491Y-14826960D01*
X8521491Y-14826960D02*
X8511967Y-14817436D01*
X8511967Y-14817436D02*
X8502444Y-14798388D01*
X8502444Y-14798388D02*
X8492920Y-14760293D01*
X8492920Y-14760293D02*
X8492920Y-14712674D01*
X8492920Y-14712674D02*
X8502444Y-14674579D01*
X8502444Y-14674579D02*
X8511967Y-14655531D01*
X8511967Y-14655531D02*
X8521491Y-14646008D01*
X8521491Y-14646008D02*
X8540539Y-14636484D01*
X8692920Y-14836484D02*
X8692920Y-14703150D01*
X8692920Y-14722198D02*
X8702444Y-14712674D01*
X8702444Y-14712674D02*
X8721491Y-14703150D01*
X8721491Y-14703150D02*
X8750063Y-14703150D01*
X8750063Y-14703150D02*
X8769110Y-14712674D01*
X8769110Y-14712674D02*
X8778634Y-14731722D01*
X8778634Y-14731722D02*
X8778634Y-14836484D01*
X8778634Y-14731722D02*
X8788158Y-14712674D01*
X8788158Y-14712674D02*
X8807205Y-14703150D01*
X8807205Y-14703150D02*
X8835777Y-14703150D01*
X8835777Y-14703150D02*
X8854825Y-14712674D01*
X8854825Y-14712674D02*
X8864348Y-14731722D01*
X8864348Y-14731722D02*
X8864348Y-14836484D01*
X8959586Y-14836484D02*
X8959586Y-14703150D01*
X8959586Y-14722198D02*
X8969110Y-14712674D01*
X8969110Y-14712674D02*
X8988158Y-14703150D01*
X8988158Y-14703150D02*
X9016729Y-14703150D01*
X9016729Y-14703150D02*
X9035777Y-14712674D01*
X9035777Y-14712674D02*
X9045301Y-14731722D01*
X9045301Y-14731722D02*
X9045301Y-14836484D01*
X9045301Y-14731722D02*
X9054825Y-14712674D01*
X9054825Y-14712674D02*
X9073872Y-14703150D01*
X9073872Y-14703150D02*
X9102444Y-14703150D01*
X9102444Y-14703150D02*
X9121491Y-14712674D01*
X9121491Y-14712674D02*
X9131015Y-14731722D01*
X9131015Y-14731722D02*
X9131015Y-14836484D01*
X9521491Y-14626960D02*
X9350063Y-14884103D01*
X9778634Y-14636484D02*
X9797682Y-14636484D01*
X9797682Y-14636484D02*
X9816729Y-14646008D01*
X9816729Y-14646008D02*
X9826253Y-14655531D01*
X9826253Y-14655531D02*
X9835777Y-14674579D01*
X9835777Y-14674579D02*
X9845301Y-14712674D01*
X9845301Y-14712674D02*
X9845301Y-14760293D01*
X9845301Y-14760293D02*
X9835777Y-14798388D01*
X9835777Y-14798388D02*
X9826253Y-14817436D01*
X9826253Y-14817436D02*
X9816729Y-14826960D01*
X9816729Y-14826960D02*
X9797682Y-14836484D01*
X9797682Y-14836484D02*
X9778634Y-14836484D01*
X9778634Y-14836484D02*
X9759587Y-14826960D01*
X9759587Y-14826960D02*
X9750063Y-14817436D01*
X9750063Y-14817436D02*
X9740539Y-14798388D01*
X9740539Y-14798388D02*
X9731015Y-14760293D01*
X9731015Y-14760293D02*
X9731015Y-14712674D01*
X9731015Y-14712674D02*
X9740539Y-14674579D01*
X9740539Y-14674579D02*
X9750063Y-14655531D01*
X9750063Y-14655531D02*
X9759587Y-14646008D01*
X9759587Y-14646008D02*
X9778634Y-14636484D01*
X9931015Y-14817436D02*
X9940539Y-14826960D01*
X9940539Y-14826960D02*
X9931015Y-14836484D01*
X9931015Y-14836484D02*
X9921491Y-14826960D01*
X9921491Y-14826960D02*
X9931015Y-14817436D01*
X9931015Y-14817436D02*
X9931015Y-14836484D01*
X10064348Y-14636484D02*
X10083396Y-14636484D01*
X10083396Y-14636484D02*
X10102444Y-14646008D01*
X10102444Y-14646008D02*
X10111968Y-14655531D01*
X10111968Y-14655531D02*
X10121491Y-14674579D01*
X10121491Y-14674579D02*
X10131015Y-14712674D01*
X10131015Y-14712674D02*
X10131015Y-14760293D01*
X10131015Y-14760293D02*
X10121491Y-14798388D01*
X10121491Y-14798388D02*
X10111968Y-14817436D01*
X10111968Y-14817436D02*
X10102444Y-14826960D01*
X10102444Y-14826960D02*
X10083396Y-14836484D01*
X10083396Y-14836484D02*
X10064348Y-14836484D01*
X10064348Y-14836484D02*
X10045301Y-14826960D01*
X10045301Y-14826960D02*
X10035777Y-14817436D01*
X10035777Y-14817436D02*
X10026253Y-14798388D01*
X10026253Y-14798388D02*
X10016729Y-14760293D01*
X10016729Y-14760293D02*
X10016729Y-14712674D01*
X10016729Y-14712674D02*
X10026253Y-14674579D01*
X10026253Y-14674579D02*
X10035777Y-14655531D01*
X10035777Y-14655531D02*
X10045301Y-14646008D01*
X10045301Y-14646008D02*
X10064348Y-14636484D01*
X10321491Y-14836484D02*
X10207206Y-14836484D01*
X10264348Y-14836484D02*
X10264348Y-14636484D01*
X10264348Y-14636484D02*
X10245301Y-14665055D01*
X10245301Y-14665055D02*
X10226253Y-14684103D01*
X10226253Y-14684103D02*
X10207206Y-14693627D01*
X10416729Y-14836484D02*
X10454825Y-14836484D01*
X10454825Y-14836484D02*
X10473872Y-14826960D01*
X10473872Y-14826960D02*
X10483396Y-14817436D01*
X10483396Y-14817436D02*
X10502444Y-14788865D01*
X10502444Y-14788865D02*
X10511968Y-14750769D01*
X10511968Y-14750769D02*
X10511968Y-14674579D01*
X10511968Y-14674579D02*
X10502444Y-14655531D01*
X10502444Y-14655531D02*
X10492920Y-14646008D01*
X10492920Y-14646008D02*
X10473872Y-14636484D01*
X10473872Y-14636484D02*
X10435777Y-14636484D01*
X10435777Y-14636484D02*
X10416729Y-14646008D01*
X10416729Y-14646008D02*
X10407206Y-14655531D01*
X10407206Y-14655531D02*
X10397682Y-14674579D01*
X10397682Y-14674579D02*
X10397682Y-14722198D01*
X10397682Y-14722198D02*
X10407206Y-14741246D01*
X10407206Y-14741246D02*
X10416729Y-14750769D01*
X10416729Y-14750769D02*
X10435777Y-14760293D01*
X10435777Y-14760293D02*
X10473872Y-14760293D01*
X10473872Y-14760293D02*
X10492920Y-14750769D01*
X10492920Y-14750769D02*
X10502444Y-14741246D01*
X10502444Y-14741246D02*
X10511968Y-14722198D01*
X10578634Y-14636484D02*
X10711968Y-14636484D01*
X10711968Y-14636484D02*
X10626253Y-14836484D01*
X10778634Y-14636484D02*
X10778634Y-14674579D01*
X10854825Y-14636484D02*
X10854825Y-14674579D01*
X11150063Y-14912674D02*
X11140539Y-14903150D01*
X11140539Y-14903150D02*
X11121491Y-14874579D01*
X11121491Y-14874579D02*
X11111968Y-14855531D01*
X11111968Y-14855531D02*
X11102444Y-14826960D01*
X11102444Y-14826960D02*
X11092920Y-14779341D01*
X11092920Y-14779341D02*
X11092920Y-14741246D01*
X11092920Y-14741246D02*
X11102444Y-14693627D01*
X11102444Y-14693627D02*
X11111968Y-14665055D01*
X11111968Y-14665055D02*
X11121491Y-14646008D01*
X11121491Y-14646008D02*
X11140539Y-14617436D01*
X11140539Y-14617436D02*
X11150063Y-14607912D01*
X11216729Y-14655531D02*
X11226253Y-14646008D01*
X11226253Y-14646008D02*
X11245301Y-14636484D01*
X11245301Y-14636484D02*
X11292920Y-14636484D01*
X11292920Y-14636484D02*
X11311968Y-14646008D01*
X11311968Y-14646008D02*
X11321491Y-14655531D01*
X11321491Y-14655531D02*
X11331015Y-14674579D01*
X11331015Y-14674579D02*
X11331015Y-14693627D01*
X11331015Y-14693627D02*
X11321491Y-14722198D01*
X11321491Y-14722198D02*
X11207206Y-14836484D01*
X11207206Y-14836484D02*
X11331015Y-14836484D01*
X11407206Y-14655531D02*
X11416729Y-14646008D01*
X11416729Y-14646008D02*
X11435777Y-14636484D01*
X11435777Y-14636484D02*
X11483396Y-14636484D01*
X11483396Y-14636484D02*
X11502444Y-14646008D01*
X11502444Y-14646008D02*
X11511968Y-14655531D01*
X11511968Y-14655531D02*
X11521491Y-14674579D01*
X11521491Y-14674579D02*
X11521491Y-14693627D01*
X11521491Y-14693627D02*
X11511968Y-14722198D01*
X11511968Y-14722198D02*
X11397682Y-14836484D01*
X11397682Y-14836484D02*
X11521491Y-14836484D01*
X11759587Y-14836484D02*
X11759587Y-14636484D01*
X11845301Y-14836484D02*
X11845301Y-14731722D01*
X11845301Y-14731722D02*
X11835777Y-14712674D01*
X11835777Y-14712674D02*
X11816730Y-14703150D01*
X11816730Y-14703150D02*
X11788158Y-14703150D01*
X11788158Y-14703150D02*
X11769110Y-14712674D01*
X11769110Y-14712674D02*
X11759587Y-14722198D01*
X11969110Y-14836484D02*
X11950063Y-14826960D01*
X11950063Y-14826960D02*
X11940539Y-14817436D01*
X11940539Y-14817436D02*
X11931015Y-14798388D01*
X11931015Y-14798388D02*
X11931015Y-14741246D01*
X11931015Y-14741246D02*
X11940539Y-14722198D01*
X11940539Y-14722198D02*
X11950063Y-14712674D01*
X11950063Y-14712674D02*
X11969110Y-14703150D01*
X11969110Y-14703150D02*
X11997682Y-14703150D01*
X11997682Y-14703150D02*
X12016730Y-14712674D01*
X12016730Y-14712674D02*
X12026253Y-14722198D01*
X12026253Y-14722198D02*
X12035777Y-14741246D01*
X12035777Y-14741246D02*
X12035777Y-14798388D01*
X12035777Y-14798388D02*
X12026253Y-14817436D01*
X12026253Y-14817436D02*
X12016730Y-14826960D01*
X12016730Y-14826960D02*
X11997682Y-14836484D01*
X11997682Y-14836484D02*
X11969110Y-14836484D01*
X12150063Y-14836484D02*
X12131015Y-14826960D01*
X12131015Y-14826960D02*
X12121491Y-14807912D01*
X12121491Y-14807912D02*
X12121491Y-14636484D01*
X12302444Y-14826960D02*
X12283396Y-14836484D01*
X12283396Y-14836484D02*
X12245301Y-14836484D01*
X12245301Y-14836484D02*
X12226253Y-14826960D01*
X12226253Y-14826960D02*
X12216730Y-14807912D01*
X12216730Y-14807912D02*
X12216730Y-14731722D01*
X12216730Y-14731722D02*
X12226253Y-14712674D01*
X12226253Y-14712674D02*
X12245301Y-14703150D01*
X12245301Y-14703150D02*
X12283396Y-14703150D01*
X12283396Y-14703150D02*
X12302444Y-14712674D01*
X12302444Y-14712674D02*
X12311968Y-14731722D01*
X12311968Y-14731722D02*
X12311968Y-14750769D01*
X12311968Y-14750769D02*
X12216730Y-14769817D01*
X12388158Y-14826960D02*
X12407206Y-14836484D01*
X12407206Y-14836484D02*
X12445301Y-14836484D01*
X12445301Y-14836484D02*
X12464349Y-14826960D01*
X12464349Y-14826960D02*
X12473872Y-14807912D01*
X12473872Y-14807912D02*
X12473872Y-14798388D01*
X12473872Y-14798388D02*
X12464349Y-14779341D01*
X12464349Y-14779341D02*
X12445301Y-14769817D01*
X12445301Y-14769817D02*
X12416730Y-14769817D01*
X12416730Y-14769817D02*
X12397682Y-14760293D01*
X12397682Y-14760293D02*
X12388158Y-14741246D01*
X12388158Y-14741246D02*
X12388158Y-14731722D01*
X12388158Y-14731722D02*
X12397682Y-14712674D01*
X12397682Y-14712674D02*
X12416730Y-14703150D01*
X12416730Y-14703150D02*
X12445301Y-14703150D01*
X12445301Y-14703150D02*
X12464349Y-14712674D01*
X12540539Y-14912674D02*
X12550063Y-14903150D01*
X12550063Y-14903150D02*
X12569111Y-14874579D01*
X12569111Y-14874579D02*
X12578634Y-14855531D01*
X12578634Y-14855531D02*
X12588158Y-14826960D01*
X12588158Y-14826960D02*
X12597682Y-14779341D01*
X12597682Y-14779341D02*
X12597682Y-14741246D01*
X12597682Y-14741246D02*
X12588158Y-14693627D01*
X12588158Y-14693627D02*
X12578634Y-14665055D01*
X12578634Y-14665055D02*
X12569111Y-14646008D01*
X12569111Y-14646008D02*
X12550063Y-14617436D01*
X12550063Y-14617436D02*
X12540539Y-14607912D01*
D10*
X7575000Y-15009000D02*
G75*
G03*
X7495000Y-15009000I-40000J0D01*
G01*
X7495000Y-15009000D02*
G75*
G03*
X7575000Y-15009000I40000J0D01*
G01*
D12*
X7873872Y-14900484D02*
X7892920Y-14900484D01*
X7892920Y-14900484D02*
X7911967Y-14910008D01*
X7911967Y-14910008D02*
X7921491Y-14919531D01*
X7921491Y-14919531D02*
X7931015Y-14938579D01*
X7931015Y-14938579D02*
X7940539Y-14976674D01*
X7940539Y-14976674D02*
X7940539Y-15024293D01*
X7940539Y-15024293D02*
X7931015Y-15062388D01*
X7931015Y-15062388D02*
X7921491Y-15081436D01*
X7921491Y-15081436D02*
X7911967Y-15090960D01*
X7911967Y-15090960D02*
X7892920Y-15100484D01*
X7892920Y-15100484D02*
X7873872Y-15100484D01*
X7873872Y-15100484D02*
X7854824Y-15090960D01*
X7854824Y-15090960D02*
X7845301Y-15081436D01*
X7845301Y-15081436D02*
X7835777Y-15062388D01*
X7835777Y-15062388D02*
X7826253Y-15024293D01*
X7826253Y-15024293D02*
X7826253Y-14976674D01*
X7826253Y-14976674D02*
X7835777Y-14938579D01*
X7835777Y-14938579D02*
X7845301Y-14919531D01*
X7845301Y-14919531D02*
X7854824Y-14910008D01*
X7854824Y-14910008D02*
X7873872Y-14900484D01*
X8026253Y-15081436D02*
X8035777Y-15090960D01*
X8035777Y-15090960D02*
X8026253Y-15100484D01*
X8026253Y-15100484D02*
X8016729Y-15090960D01*
X8016729Y-15090960D02*
X8026253Y-15081436D01*
X8026253Y-15081436D02*
X8026253Y-15100484D01*
X8150062Y-14986198D02*
X8131015Y-14976674D01*
X8131015Y-14976674D02*
X8121491Y-14967150D01*
X8121491Y-14967150D02*
X8111967Y-14948103D01*
X8111967Y-14948103D02*
X8111967Y-14938579D01*
X8111967Y-14938579D02*
X8121491Y-14919531D01*
X8121491Y-14919531D02*
X8131015Y-14910008D01*
X8131015Y-14910008D02*
X8150062Y-14900484D01*
X8150062Y-14900484D02*
X8188158Y-14900484D01*
X8188158Y-14900484D02*
X8207205Y-14910008D01*
X8207205Y-14910008D02*
X8216729Y-14919531D01*
X8216729Y-14919531D02*
X8226253Y-14938579D01*
X8226253Y-14938579D02*
X8226253Y-14948103D01*
X8226253Y-14948103D02*
X8216729Y-14967150D01*
X8216729Y-14967150D02*
X8207205Y-14976674D01*
X8207205Y-14976674D02*
X8188158Y-14986198D01*
X8188158Y-14986198D02*
X8150062Y-14986198D01*
X8150062Y-14986198D02*
X8131015Y-14995722D01*
X8131015Y-14995722D02*
X8121491Y-15005246D01*
X8121491Y-15005246D02*
X8111967Y-15024293D01*
X8111967Y-15024293D02*
X8111967Y-15062388D01*
X8111967Y-15062388D02*
X8121491Y-15081436D01*
X8121491Y-15081436D02*
X8131015Y-15090960D01*
X8131015Y-15090960D02*
X8150062Y-15100484D01*
X8150062Y-15100484D02*
X8188158Y-15100484D01*
X8188158Y-15100484D02*
X8207205Y-15090960D01*
X8207205Y-15090960D02*
X8216729Y-15081436D01*
X8216729Y-15081436D02*
X8226253Y-15062388D01*
X8226253Y-15062388D02*
X8226253Y-15024293D01*
X8226253Y-15024293D02*
X8216729Y-15005246D01*
X8216729Y-15005246D02*
X8207205Y-14995722D01*
X8207205Y-14995722D02*
X8188158Y-14986198D01*
X8350062Y-14900484D02*
X8369110Y-14900484D01*
X8369110Y-14900484D02*
X8388158Y-14910008D01*
X8388158Y-14910008D02*
X8397682Y-14919531D01*
X8397682Y-14919531D02*
X8407205Y-14938579D01*
X8407205Y-14938579D02*
X8416729Y-14976674D01*
X8416729Y-14976674D02*
X8416729Y-15024293D01*
X8416729Y-15024293D02*
X8407205Y-15062388D01*
X8407205Y-15062388D02*
X8397682Y-15081436D01*
X8397682Y-15081436D02*
X8388158Y-15090960D01*
X8388158Y-15090960D02*
X8369110Y-15100484D01*
X8369110Y-15100484D02*
X8350062Y-15100484D01*
X8350062Y-15100484D02*
X8331015Y-15090960D01*
X8331015Y-15090960D02*
X8321491Y-15081436D01*
X8321491Y-15081436D02*
X8311967Y-15062388D01*
X8311967Y-15062388D02*
X8302443Y-15024293D01*
X8302443Y-15024293D02*
X8302443Y-14976674D01*
X8302443Y-14976674D02*
X8311967Y-14938579D01*
X8311967Y-14938579D02*
X8321491Y-14919531D01*
X8321491Y-14919531D02*
X8331015Y-14910008D01*
X8331015Y-14910008D02*
X8350062Y-14900484D01*
X8540539Y-14900484D02*
X8559586Y-14900484D01*
X8559586Y-14900484D02*
X8578634Y-14910008D01*
X8578634Y-14910008D02*
X8588158Y-14919531D01*
X8588158Y-14919531D02*
X8597682Y-14938579D01*
X8597682Y-14938579D02*
X8607205Y-14976674D01*
X8607205Y-14976674D02*
X8607205Y-15024293D01*
X8607205Y-15024293D02*
X8597682Y-15062388D01*
X8597682Y-15062388D02*
X8588158Y-15081436D01*
X8588158Y-15081436D02*
X8578634Y-15090960D01*
X8578634Y-15090960D02*
X8559586Y-15100484D01*
X8559586Y-15100484D02*
X8540539Y-15100484D01*
X8540539Y-15100484D02*
X8521491Y-15090960D01*
X8521491Y-15090960D02*
X8511967Y-15081436D01*
X8511967Y-15081436D02*
X8502444Y-15062388D01*
X8502444Y-15062388D02*
X8492920Y-15024293D01*
X8492920Y-15024293D02*
X8492920Y-14976674D01*
X8492920Y-14976674D02*
X8502444Y-14938579D01*
X8502444Y-14938579D02*
X8511967Y-14919531D01*
X8511967Y-14919531D02*
X8521491Y-14910008D01*
X8521491Y-14910008D02*
X8540539Y-14900484D01*
X8692920Y-15100484D02*
X8692920Y-14967150D01*
X8692920Y-14986198D02*
X8702444Y-14976674D01*
X8702444Y-14976674D02*
X8721491Y-14967150D01*
X8721491Y-14967150D02*
X8750063Y-14967150D01*
X8750063Y-14967150D02*
X8769110Y-14976674D01*
X8769110Y-14976674D02*
X8778634Y-14995722D01*
X8778634Y-14995722D02*
X8778634Y-15100484D01*
X8778634Y-14995722D02*
X8788158Y-14976674D01*
X8788158Y-14976674D02*
X8807205Y-14967150D01*
X8807205Y-14967150D02*
X8835777Y-14967150D01*
X8835777Y-14967150D02*
X8854825Y-14976674D01*
X8854825Y-14976674D02*
X8864348Y-14995722D01*
X8864348Y-14995722D02*
X8864348Y-15100484D01*
X8959586Y-15100484D02*
X8959586Y-14967150D01*
X8959586Y-14986198D02*
X8969110Y-14976674D01*
X8969110Y-14976674D02*
X8988158Y-14967150D01*
X8988158Y-14967150D02*
X9016729Y-14967150D01*
X9016729Y-14967150D02*
X9035777Y-14976674D01*
X9035777Y-14976674D02*
X9045301Y-14995722D01*
X9045301Y-14995722D02*
X9045301Y-15100484D01*
X9045301Y-14995722D02*
X9054825Y-14976674D01*
X9054825Y-14976674D02*
X9073872Y-14967150D01*
X9073872Y-14967150D02*
X9102444Y-14967150D01*
X9102444Y-14967150D02*
X9121491Y-14976674D01*
X9121491Y-14976674D02*
X9131015Y-14995722D01*
X9131015Y-14995722D02*
X9131015Y-15100484D01*
X9521491Y-14890960D02*
X9350063Y-15148103D01*
X9778634Y-14900484D02*
X9797682Y-14900484D01*
X9797682Y-14900484D02*
X9816729Y-14910008D01*
X9816729Y-14910008D02*
X9826253Y-14919531D01*
X9826253Y-14919531D02*
X9835777Y-14938579D01*
X9835777Y-14938579D02*
X9845301Y-14976674D01*
X9845301Y-14976674D02*
X9845301Y-15024293D01*
X9845301Y-15024293D02*
X9835777Y-15062388D01*
X9835777Y-15062388D02*
X9826253Y-15081436D01*
X9826253Y-15081436D02*
X9816729Y-15090960D01*
X9816729Y-15090960D02*
X9797682Y-15100484D01*
X9797682Y-15100484D02*
X9778634Y-15100484D01*
X9778634Y-15100484D02*
X9759587Y-15090960D01*
X9759587Y-15090960D02*
X9750063Y-15081436D01*
X9750063Y-15081436D02*
X9740539Y-15062388D01*
X9740539Y-15062388D02*
X9731015Y-15024293D01*
X9731015Y-15024293D02*
X9731015Y-14976674D01*
X9731015Y-14976674D02*
X9740539Y-14938579D01*
X9740539Y-14938579D02*
X9750063Y-14919531D01*
X9750063Y-14919531D02*
X9759587Y-14910008D01*
X9759587Y-14910008D02*
X9778634Y-14900484D01*
X9931015Y-15081436D02*
X9940539Y-15090960D01*
X9940539Y-15090960D02*
X9931015Y-15100484D01*
X9931015Y-15100484D02*
X9921491Y-15090960D01*
X9921491Y-15090960D02*
X9931015Y-15081436D01*
X9931015Y-15081436D02*
X9931015Y-15100484D01*
X10064348Y-14900484D02*
X10083396Y-14900484D01*
X10083396Y-14900484D02*
X10102444Y-14910008D01*
X10102444Y-14910008D02*
X10111968Y-14919531D01*
X10111968Y-14919531D02*
X10121491Y-14938579D01*
X10121491Y-14938579D02*
X10131015Y-14976674D01*
X10131015Y-14976674D02*
X10131015Y-15024293D01*
X10131015Y-15024293D02*
X10121491Y-15062388D01*
X10121491Y-15062388D02*
X10111968Y-15081436D01*
X10111968Y-15081436D02*
X10102444Y-15090960D01*
X10102444Y-15090960D02*
X10083396Y-15100484D01*
X10083396Y-15100484D02*
X10064348Y-15100484D01*
X10064348Y-15100484D02*
X10045301Y-15090960D01*
X10045301Y-15090960D02*
X10035777Y-15081436D01*
X10035777Y-15081436D02*
X10026253Y-15062388D01*
X10026253Y-15062388D02*
X10016729Y-15024293D01*
X10016729Y-15024293D02*
X10016729Y-14976674D01*
X10016729Y-14976674D02*
X10026253Y-14938579D01*
X10026253Y-14938579D02*
X10035777Y-14919531D01*
X10035777Y-14919531D02*
X10045301Y-14910008D01*
X10045301Y-14910008D02*
X10064348Y-14900484D01*
X10197682Y-14900484D02*
X10321491Y-14900484D01*
X10321491Y-14900484D02*
X10254825Y-14976674D01*
X10254825Y-14976674D02*
X10283396Y-14976674D01*
X10283396Y-14976674D02*
X10302444Y-14986198D01*
X10302444Y-14986198D02*
X10311968Y-14995722D01*
X10311968Y-14995722D02*
X10321491Y-15014769D01*
X10321491Y-15014769D02*
X10321491Y-15062388D01*
X10321491Y-15062388D02*
X10311968Y-15081436D01*
X10311968Y-15081436D02*
X10302444Y-15090960D01*
X10302444Y-15090960D02*
X10283396Y-15100484D01*
X10283396Y-15100484D02*
X10226253Y-15100484D01*
X10226253Y-15100484D02*
X10207206Y-15090960D01*
X10207206Y-15090960D02*
X10197682Y-15081436D01*
X10511968Y-15100484D02*
X10397682Y-15100484D01*
X10454825Y-15100484D02*
X10454825Y-14900484D01*
X10454825Y-14900484D02*
X10435777Y-14929055D01*
X10435777Y-14929055D02*
X10416729Y-14948103D01*
X10416729Y-14948103D02*
X10397682Y-14957627D01*
X10692920Y-14900484D02*
X10597682Y-14900484D01*
X10597682Y-14900484D02*
X10588158Y-14995722D01*
X10588158Y-14995722D02*
X10597682Y-14986198D01*
X10597682Y-14986198D02*
X10616729Y-14976674D01*
X10616729Y-14976674D02*
X10664349Y-14976674D01*
X10664349Y-14976674D02*
X10683396Y-14986198D01*
X10683396Y-14986198D02*
X10692920Y-14995722D01*
X10692920Y-14995722D02*
X10702444Y-15014769D01*
X10702444Y-15014769D02*
X10702444Y-15062388D01*
X10702444Y-15062388D02*
X10692920Y-15081436D01*
X10692920Y-15081436D02*
X10683396Y-15090960D01*
X10683396Y-15090960D02*
X10664349Y-15100484D01*
X10664349Y-15100484D02*
X10616729Y-15100484D01*
X10616729Y-15100484D02*
X10597682Y-15090960D01*
X10597682Y-15090960D02*
X10588158Y-15081436D01*
X10778634Y-14900484D02*
X10778634Y-14938579D01*
X10854825Y-14900484D02*
X10854825Y-14938579D01*
X11150063Y-15176674D02*
X11140539Y-15167150D01*
X11140539Y-15167150D02*
X11121491Y-15138579D01*
X11121491Y-15138579D02*
X11111968Y-15119531D01*
X11111968Y-15119531D02*
X11102444Y-15090960D01*
X11102444Y-15090960D02*
X11092920Y-15043341D01*
X11092920Y-15043341D02*
X11092920Y-15005246D01*
X11092920Y-15005246D02*
X11102444Y-14957627D01*
X11102444Y-14957627D02*
X11111968Y-14929055D01*
X11111968Y-14929055D02*
X11121491Y-14910008D01*
X11121491Y-14910008D02*
X11140539Y-14881436D01*
X11140539Y-14881436D02*
X11150063Y-14871912D01*
X11216729Y-14919531D02*
X11226253Y-14910008D01*
X11226253Y-14910008D02*
X11245301Y-14900484D01*
X11245301Y-14900484D02*
X11292920Y-14900484D01*
X11292920Y-14900484D02*
X11311968Y-14910008D01*
X11311968Y-14910008D02*
X11321491Y-14919531D01*
X11321491Y-14919531D02*
X11331015Y-14938579D01*
X11331015Y-14938579D02*
X11331015Y-14957627D01*
X11331015Y-14957627D02*
X11321491Y-14986198D01*
X11321491Y-14986198D02*
X11207206Y-15100484D01*
X11207206Y-15100484D02*
X11331015Y-15100484D01*
X11426253Y-15100484D02*
X11464348Y-15100484D01*
X11464348Y-15100484D02*
X11483396Y-15090960D01*
X11483396Y-15090960D02*
X11492920Y-15081436D01*
X11492920Y-15081436D02*
X11511968Y-15052865D01*
X11511968Y-15052865D02*
X11521491Y-15014769D01*
X11521491Y-15014769D02*
X11521491Y-14938579D01*
X11521491Y-14938579D02*
X11511968Y-14919531D01*
X11511968Y-14919531D02*
X11502444Y-14910008D01*
X11502444Y-14910008D02*
X11483396Y-14900484D01*
X11483396Y-14900484D02*
X11445301Y-14900484D01*
X11445301Y-14900484D02*
X11426253Y-14910008D01*
X11426253Y-14910008D02*
X11416729Y-14919531D01*
X11416729Y-14919531D02*
X11407206Y-14938579D01*
X11407206Y-14938579D02*
X11407206Y-14986198D01*
X11407206Y-14986198D02*
X11416729Y-15005246D01*
X11416729Y-15005246D02*
X11426253Y-15014769D01*
X11426253Y-15014769D02*
X11445301Y-15024293D01*
X11445301Y-15024293D02*
X11483396Y-15024293D01*
X11483396Y-15024293D02*
X11502444Y-15014769D01*
X11502444Y-15014769D02*
X11511968Y-15005246D01*
X11511968Y-15005246D02*
X11521491Y-14986198D01*
X11759587Y-15100484D02*
X11759587Y-14900484D01*
X11845301Y-15100484D02*
X11845301Y-14995722D01*
X11845301Y-14995722D02*
X11835777Y-14976674D01*
X11835777Y-14976674D02*
X11816730Y-14967150D01*
X11816730Y-14967150D02*
X11788158Y-14967150D01*
X11788158Y-14967150D02*
X11769110Y-14976674D01*
X11769110Y-14976674D02*
X11759587Y-14986198D01*
X11969110Y-15100484D02*
X11950063Y-15090960D01*
X11950063Y-15090960D02*
X11940539Y-15081436D01*
X11940539Y-15081436D02*
X11931015Y-15062388D01*
X11931015Y-15062388D02*
X11931015Y-15005246D01*
X11931015Y-15005246D02*
X11940539Y-14986198D01*
X11940539Y-14986198D02*
X11950063Y-14976674D01*
X11950063Y-14976674D02*
X11969110Y-14967150D01*
X11969110Y-14967150D02*
X11997682Y-14967150D01*
X11997682Y-14967150D02*
X12016730Y-14976674D01*
X12016730Y-14976674D02*
X12026253Y-14986198D01*
X12026253Y-14986198D02*
X12035777Y-15005246D01*
X12035777Y-15005246D02*
X12035777Y-15062388D01*
X12035777Y-15062388D02*
X12026253Y-15081436D01*
X12026253Y-15081436D02*
X12016730Y-15090960D01*
X12016730Y-15090960D02*
X11997682Y-15100484D01*
X11997682Y-15100484D02*
X11969110Y-15100484D01*
X12150063Y-15100484D02*
X12131015Y-15090960D01*
X12131015Y-15090960D02*
X12121491Y-15071912D01*
X12121491Y-15071912D02*
X12121491Y-14900484D01*
X12302444Y-15090960D02*
X12283396Y-15100484D01*
X12283396Y-15100484D02*
X12245301Y-15100484D01*
X12245301Y-15100484D02*
X12226253Y-15090960D01*
X12226253Y-15090960D02*
X12216730Y-15071912D01*
X12216730Y-15071912D02*
X12216730Y-14995722D01*
X12216730Y-14995722D02*
X12226253Y-14976674D01*
X12226253Y-14976674D02*
X12245301Y-14967150D01*
X12245301Y-14967150D02*
X12283396Y-14967150D01*
X12283396Y-14967150D02*
X12302444Y-14976674D01*
X12302444Y-14976674D02*
X12311968Y-14995722D01*
X12311968Y-14995722D02*
X12311968Y-15014769D01*
X12311968Y-15014769D02*
X12216730Y-15033817D01*
X12388158Y-15090960D02*
X12407206Y-15100484D01*
X12407206Y-15100484D02*
X12445301Y-15100484D01*
X12445301Y-15100484D02*
X12464349Y-15090960D01*
X12464349Y-15090960D02*
X12473872Y-15071912D01*
X12473872Y-15071912D02*
X12473872Y-15062388D01*
X12473872Y-15062388D02*
X12464349Y-15043341D01*
X12464349Y-15043341D02*
X12445301Y-15033817D01*
X12445301Y-15033817D02*
X12416730Y-15033817D01*
X12416730Y-15033817D02*
X12397682Y-15024293D01*
X12397682Y-15024293D02*
X12388158Y-15005246D01*
X12388158Y-15005246D02*
X12388158Y-14995722D01*
X12388158Y-14995722D02*
X12397682Y-14976674D01*
X12397682Y-14976674D02*
X12416730Y-14967150D01*
X12416730Y-14967150D02*
X12445301Y-14967150D01*
X12445301Y-14967150D02*
X12464349Y-14976674D01*
X12540539Y-15176674D02*
X12550063Y-15167150D01*
X12550063Y-15167150D02*
X12569111Y-15138579D01*
X12569111Y-15138579D02*
X12578634Y-15119531D01*
X12578634Y-15119531D02*
X12588158Y-15090960D01*
X12588158Y-15090960D02*
X12597682Y-15043341D01*
X12597682Y-15043341D02*
X12597682Y-15005246D01*
X12597682Y-15005246D02*
X12588158Y-14957627D01*
X12588158Y-14957627D02*
X12578634Y-14929055D01*
X12578634Y-14929055D02*
X12569111Y-14910008D01*
X12569111Y-14910008D02*
X12550063Y-14881436D01*
X12550063Y-14881436D02*
X12540539Y-14871912D01*
D10*
X7535000Y-15233000D02*
X7535000Y-15313000D01*
X7495000Y-15273000D02*
X7575000Y-15273000D01*
D12*
X7873872Y-15164484D02*
X7892920Y-15164484D01*
X7892920Y-15164484D02*
X7911967Y-15174008D01*
X7911967Y-15174008D02*
X7921491Y-15183531D01*
X7921491Y-15183531D02*
X7931015Y-15202579D01*
X7931015Y-15202579D02*
X7940539Y-15240674D01*
X7940539Y-15240674D02*
X7940539Y-15288293D01*
X7940539Y-15288293D02*
X7931015Y-15326388D01*
X7931015Y-15326388D02*
X7921491Y-15345436D01*
X7921491Y-15345436D02*
X7911967Y-15354960D01*
X7911967Y-15354960D02*
X7892920Y-15364484D01*
X7892920Y-15364484D02*
X7873872Y-15364484D01*
X7873872Y-15364484D02*
X7854824Y-15354960D01*
X7854824Y-15354960D02*
X7845301Y-15345436D01*
X7845301Y-15345436D02*
X7835777Y-15326388D01*
X7835777Y-15326388D02*
X7826253Y-15288293D01*
X7826253Y-15288293D02*
X7826253Y-15240674D01*
X7826253Y-15240674D02*
X7835777Y-15202579D01*
X7835777Y-15202579D02*
X7845301Y-15183531D01*
X7845301Y-15183531D02*
X7854824Y-15174008D01*
X7854824Y-15174008D02*
X7873872Y-15164484D01*
X8026253Y-15345436D02*
X8035777Y-15354960D01*
X8035777Y-15354960D02*
X8026253Y-15364484D01*
X8026253Y-15364484D02*
X8016729Y-15354960D01*
X8016729Y-15354960D02*
X8026253Y-15345436D01*
X8026253Y-15345436D02*
X8026253Y-15364484D01*
X8150062Y-15250198D02*
X8131015Y-15240674D01*
X8131015Y-15240674D02*
X8121491Y-15231150D01*
X8121491Y-15231150D02*
X8111967Y-15212103D01*
X8111967Y-15212103D02*
X8111967Y-15202579D01*
X8111967Y-15202579D02*
X8121491Y-15183531D01*
X8121491Y-15183531D02*
X8131015Y-15174008D01*
X8131015Y-15174008D02*
X8150062Y-15164484D01*
X8150062Y-15164484D02*
X8188158Y-15164484D01*
X8188158Y-15164484D02*
X8207205Y-15174008D01*
X8207205Y-15174008D02*
X8216729Y-15183531D01*
X8216729Y-15183531D02*
X8226253Y-15202579D01*
X8226253Y-15202579D02*
X8226253Y-15212103D01*
X8226253Y-15212103D02*
X8216729Y-15231150D01*
X8216729Y-15231150D02*
X8207205Y-15240674D01*
X8207205Y-15240674D02*
X8188158Y-15250198D01*
X8188158Y-15250198D02*
X8150062Y-15250198D01*
X8150062Y-15250198D02*
X8131015Y-15259722D01*
X8131015Y-15259722D02*
X8121491Y-15269246D01*
X8121491Y-15269246D02*
X8111967Y-15288293D01*
X8111967Y-15288293D02*
X8111967Y-15326388D01*
X8111967Y-15326388D02*
X8121491Y-15345436D01*
X8121491Y-15345436D02*
X8131015Y-15354960D01*
X8131015Y-15354960D02*
X8150062Y-15364484D01*
X8150062Y-15364484D02*
X8188158Y-15364484D01*
X8188158Y-15364484D02*
X8207205Y-15354960D01*
X8207205Y-15354960D02*
X8216729Y-15345436D01*
X8216729Y-15345436D02*
X8226253Y-15326388D01*
X8226253Y-15326388D02*
X8226253Y-15288293D01*
X8226253Y-15288293D02*
X8216729Y-15269246D01*
X8216729Y-15269246D02*
X8207205Y-15259722D01*
X8207205Y-15259722D02*
X8188158Y-15250198D01*
X8350062Y-15164484D02*
X8369110Y-15164484D01*
X8369110Y-15164484D02*
X8388158Y-15174008D01*
X8388158Y-15174008D02*
X8397682Y-15183531D01*
X8397682Y-15183531D02*
X8407205Y-15202579D01*
X8407205Y-15202579D02*
X8416729Y-15240674D01*
X8416729Y-15240674D02*
X8416729Y-15288293D01*
X8416729Y-15288293D02*
X8407205Y-15326388D01*
X8407205Y-15326388D02*
X8397682Y-15345436D01*
X8397682Y-15345436D02*
X8388158Y-15354960D01*
X8388158Y-15354960D02*
X8369110Y-15364484D01*
X8369110Y-15364484D02*
X8350062Y-15364484D01*
X8350062Y-15364484D02*
X8331015Y-15354960D01*
X8331015Y-15354960D02*
X8321491Y-15345436D01*
X8321491Y-15345436D02*
X8311967Y-15326388D01*
X8311967Y-15326388D02*
X8302443Y-15288293D01*
X8302443Y-15288293D02*
X8302443Y-15240674D01*
X8302443Y-15240674D02*
X8311967Y-15202579D01*
X8311967Y-15202579D02*
X8321491Y-15183531D01*
X8321491Y-15183531D02*
X8331015Y-15174008D01*
X8331015Y-15174008D02*
X8350062Y-15164484D01*
X8540539Y-15164484D02*
X8559586Y-15164484D01*
X8559586Y-15164484D02*
X8578634Y-15174008D01*
X8578634Y-15174008D02*
X8588158Y-15183531D01*
X8588158Y-15183531D02*
X8597682Y-15202579D01*
X8597682Y-15202579D02*
X8607205Y-15240674D01*
X8607205Y-15240674D02*
X8607205Y-15288293D01*
X8607205Y-15288293D02*
X8597682Y-15326388D01*
X8597682Y-15326388D02*
X8588158Y-15345436D01*
X8588158Y-15345436D02*
X8578634Y-15354960D01*
X8578634Y-15354960D02*
X8559586Y-15364484D01*
X8559586Y-15364484D02*
X8540539Y-15364484D01*
X8540539Y-15364484D02*
X8521491Y-15354960D01*
X8521491Y-15354960D02*
X8511967Y-15345436D01*
X8511967Y-15345436D02*
X8502444Y-15326388D01*
X8502444Y-15326388D02*
X8492920Y-15288293D01*
X8492920Y-15288293D02*
X8492920Y-15240674D01*
X8492920Y-15240674D02*
X8502444Y-15202579D01*
X8502444Y-15202579D02*
X8511967Y-15183531D01*
X8511967Y-15183531D02*
X8521491Y-15174008D01*
X8521491Y-15174008D02*
X8540539Y-15164484D01*
X8692920Y-15364484D02*
X8692920Y-15231150D01*
X8692920Y-15250198D02*
X8702444Y-15240674D01*
X8702444Y-15240674D02*
X8721491Y-15231150D01*
X8721491Y-15231150D02*
X8750063Y-15231150D01*
X8750063Y-15231150D02*
X8769110Y-15240674D01*
X8769110Y-15240674D02*
X8778634Y-15259722D01*
X8778634Y-15259722D02*
X8778634Y-15364484D01*
X8778634Y-15259722D02*
X8788158Y-15240674D01*
X8788158Y-15240674D02*
X8807205Y-15231150D01*
X8807205Y-15231150D02*
X8835777Y-15231150D01*
X8835777Y-15231150D02*
X8854825Y-15240674D01*
X8854825Y-15240674D02*
X8864348Y-15259722D01*
X8864348Y-15259722D02*
X8864348Y-15364484D01*
X8959586Y-15364484D02*
X8959586Y-15231150D01*
X8959586Y-15250198D02*
X8969110Y-15240674D01*
X8969110Y-15240674D02*
X8988158Y-15231150D01*
X8988158Y-15231150D02*
X9016729Y-15231150D01*
X9016729Y-15231150D02*
X9035777Y-15240674D01*
X9035777Y-15240674D02*
X9045301Y-15259722D01*
X9045301Y-15259722D02*
X9045301Y-15364484D01*
X9045301Y-15259722D02*
X9054825Y-15240674D01*
X9054825Y-15240674D02*
X9073872Y-15231150D01*
X9073872Y-15231150D02*
X9102444Y-15231150D01*
X9102444Y-15231150D02*
X9121491Y-15240674D01*
X9121491Y-15240674D02*
X9131015Y-15259722D01*
X9131015Y-15259722D02*
X9131015Y-15364484D01*
X9521491Y-15154960D02*
X9350063Y-15412103D01*
X9778634Y-15164484D02*
X9797682Y-15164484D01*
X9797682Y-15164484D02*
X9816729Y-15174008D01*
X9816729Y-15174008D02*
X9826253Y-15183531D01*
X9826253Y-15183531D02*
X9835777Y-15202579D01*
X9835777Y-15202579D02*
X9845301Y-15240674D01*
X9845301Y-15240674D02*
X9845301Y-15288293D01*
X9845301Y-15288293D02*
X9835777Y-15326388D01*
X9835777Y-15326388D02*
X9826253Y-15345436D01*
X9826253Y-15345436D02*
X9816729Y-15354960D01*
X9816729Y-15354960D02*
X9797682Y-15364484D01*
X9797682Y-15364484D02*
X9778634Y-15364484D01*
X9778634Y-15364484D02*
X9759587Y-15354960D01*
X9759587Y-15354960D02*
X9750063Y-15345436D01*
X9750063Y-15345436D02*
X9740539Y-15326388D01*
X9740539Y-15326388D02*
X9731015Y-15288293D01*
X9731015Y-15288293D02*
X9731015Y-15240674D01*
X9731015Y-15240674D02*
X9740539Y-15202579D01*
X9740539Y-15202579D02*
X9750063Y-15183531D01*
X9750063Y-15183531D02*
X9759587Y-15174008D01*
X9759587Y-15174008D02*
X9778634Y-15164484D01*
X9931015Y-15345436D02*
X9940539Y-15354960D01*
X9940539Y-15354960D02*
X9931015Y-15364484D01*
X9931015Y-15364484D02*
X9921491Y-15354960D01*
X9921491Y-15354960D02*
X9931015Y-15345436D01*
X9931015Y-15345436D02*
X9931015Y-15364484D01*
X10064348Y-15164484D02*
X10083396Y-15164484D01*
X10083396Y-15164484D02*
X10102444Y-15174008D01*
X10102444Y-15174008D02*
X10111968Y-15183531D01*
X10111968Y-15183531D02*
X10121491Y-15202579D01*
X10121491Y-15202579D02*
X10131015Y-15240674D01*
X10131015Y-15240674D02*
X10131015Y-15288293D01*
X10131015Y-15288293D02*
X10121491Y-15326388D01*
X10121491Y-15326388D02*
X10111968Y-15345436D01*
X10111968Y-15345436D02*
X10102444Y-15354960D01*
X10102444Y-15354960D02*
X10083396Y-15364484D01*
X10083396Y-15364484D02*
X10064348Y-15364484D01*
X10064348Y-15364484D02*
X10045301Y-15354960D01*
X10045301Y-15354960D02*
X10035777Y-15345436D01*
X10035777Y-15345436D02*
X10026253Y-15326388D01*
X10026253Y-15326388D02*
X10016729Y-15288293D01*
X10016729Y-15288293D02*
X10016729Y-15240674D01*
X10016729Y-15240674D02*
X10026253Y-15202579D01*
X10026253Y-15202579D02*
X10035777Y-15183531D01*
X10035777Y-15183531D02*
X10045301Y-15174008D01*
X10045301Y-15174008D02*
X10064348Y-15164484D01*
X10197682Y-15164484D02*
X10321491Y-15164484D01*
X10321491Y-15164484D02*
X10254825Y-15240674D01*
X10254825Y-15240674D02*
X10283396Y-15240674D01*
X10283396Y-15240674D02*
X10302444Y-15250198D01*
X10302444Y-15250198D02*
X10311968Y-15259722D01*
X10311968Y-15259722D02*
X10321491Y-15278769D01*
X10321491Y-15278769D02*
X10321491Y-15326388D01*
X10321491Y-15326388D02*
X10311968Y-15345436D01*
X10311968Y-15345436D02*
X10302444Y-15354960D01*
X10302444Y-15354960D02*
X10283396Y-15364484D01*
X10283396Y-15364484D02*
X10226253Y-15364484D01*
X10226253Y-15364484D02*
X10207206Y-15354960D01*
X10207206Y-15354960D02*
X10197682Y-15345436D01*
X10511968Y-15364484D02*
X10397682Y-15364484D01*
X10454825Y-15364484D02*
X10454825Y-15164484D01*
X10454825Y-15164484D02*
X10435777Y-15193055D01*
X10435777Y-15193055D02*
X10416729Y-15212103D01*
X10416729Y-15212103D02*
X10397682Y-15221627D01*
X10692920Y-15164484D02*
X10597682Y-15164484D01*
X10597682Y-15164484D02*
X10588158Y-15259722D01*
X10588158Y-15259722D02*
X10597682Y-15250198D01*
X10597682Y-15250198D02*
X10616729Y-15240674D01*
X10616729Y-15240674D02*
X10664349Y-15240674D01*
X10664349Y-15240674D02*
X10683396Y-15250198D01*
X10683396Y-15250198D02*
X10692920Y-15259722D01*
X10692920Y-15259722D02*
X10702444Y-15278769D01*
X10702444Y-15278769D02*
X10702444Y-15326388D01*
X10702444Y-15326388D02*
X10692920Y-15345436D01*
X10692920Y-15345436D02*
X10683396Y-15354960D01*
X10683396Y-15354960D02*
X10664349Y-15364484D01*
X10664349Y-15364484D02*
X10616729Y-15364484D01*
X10616729Y-15364484D02*
X10597682Y-15354960D01*
X10597682Y-15354960D02*
X10588158Y-15345436D01*
X10778634Y-15164484D02*
X10778634Y-15202579D01*
X10854825Y-15164484D02*
X10854825Y-15202579D01*
X11150063Y-15440674D02*
X11140539Y-15431150D01*
X11140539Y-15431150D02*
X11121491Y-15402579D01*
X11121491Y-15402579D02*
X11111968Y-15383531D01*
X11111968Y-15383531D02*
X11102444Y-15354960D01*
X11102444Y-15354960D02*
X11092920Y-15307341D01*
X11092920Y-15307341D02*
X11092920Y-15269246D01*
X11092920Y-15269246D02*
X11102444Y-15221627D01*
X11102444Y-15221627D02*
X11111968Y-15193055D01*
X11111968Y-15193055D02*
X11121491Y-15174008D01*
X11121491Y-15174008D02*
X11140539Y-15145436D01*
X11140539Y-15145436D02*
X11150063Y-15135912D01*
X11311968Y-15164484D02*
X11273872Y-15164484D01*
X11273872Y-15164484D02*
X11254825Y-15174008D01*
X11254825Y-15174008D02*
X11245301Y-15183531D01*
X11245301Y-15183531D02*
X11226253Y-15212103D01*
X11226253Y-15212103D02*
X11216729Y-15250198D01*
X11216729Y-15250198D02*
X11216729Y-15326388D01*
X11216729Y-15326388D02*
X11226253Y-15345436D01*
X11226253Y-15345436D02*
X11235777Y-15354960D01*
X11235777Y-15354960D02*
X11254825Y-15364484D01*
X11254825Y-15364484D02*
X11292920Y-15364484D01*
X11292920Y-15364484D02*
X11311968Y-15354960D01*
X11311968Y-15354960D02*
X11321491Y-15345436D01*
X11321491Y-15345436D02*
X11331015Y-15326388D01*
X11331015Y-15326388D02*
X11331015Y-15278769D01*
X11331015Y-15278769D02*
X11321491Y-15259722D01*
X11321491Y-15259722D02*
X11311968Y-15250198D01*
X11311968Y-15250198D02*
X11292920Y-15240674D01*
X11292920Y-15240674D02*
X11254825Y-15240674D01*
X11254825Y-15240674D02*
X11235777Y-15250198D01*
X11235777Y-15250198D02*
X11226253Y-15259722D01*
X11226253Y-15259722D02*
X11216729Y-15278769D01*
X11502444Y-15231150D02*
X11502444Y-15364484D01*
X11454825Y-15154960D02*
X11407206Y-15297817D01*
X11407206Y-15297817D02*
X11531015Y-15297817D01*
X11759587Y-15364484D02*
X11759587Y-15164484D01*
X11845301Y-15364484D02*
X11845301Y-15259722D01*
X11845301Y-15259722D02*
X11835777Y-15240674D01*
X11835777Y-15240674D02*
X11816730Y-15231150D01*
X11816730Y-15231150D02*
X11788158Y-15231150D01*
X11788158Y-15231150D02*
X11769110Y-15240674D01*
X11769110Y-15240674D02*
X11759587Y-15250198D01*
X11969110Y-15364484D02*
X11950063Y-15354960D01*
X11950063Y-15354960D02*
X11940539Y-15345436D01*
X11940539Y-15345436D02*
X11931015Y-15326388D01*
X11931015Y-15326388D02*
X11931015Y-15269246D01*
X11931015Y-15269246D02*
X11940539Y-15250198D01*
X11940539Y-15250198D02*
X11950063Y-15240674D01*
X11950063Y-15240674D02*
X11969110Y-15231150D01*
X11969110Y-15231150D02*
X11997682Y-15231150D01*
X11997682Y-15231150D02*
X12016730Y-15240674D01*
X12016730Y-15240674D02*
X12026253Y-15250198D01*
X12026253Y-15250198D02*
X12035777Y-15269246D01*
X12035777Y-15269246D02*
X12035777Y-15326388D01*
X12035777Y-15326388D02*
X12026253Y-15345436D01*
X12026253Y-15345436D02*
X12016730Y-15354960D01*
X12016730Y-15354960D02*
X11997682Y-15364484D01*
X11997682Y-15364484D02*
X11969110Y-15364484D01*
X12150063Y-15364484D02*
X12131015Y-15354960D01*
X12131015Y-15354960D02*
X12121491Y-15335912D01*
X12121491Y-15335912D02*
X12121491Y-15164484D01*
X12302444Y-15354960D02*
X12283396Y-15364484D01*
X12283396Y-15364484D02*
X12245301Y-15364484D01*
X12245301Y-15364484D02*
X12226253Y-15354960D01*
X12226253Y-15354960D02*
X12216730Y-15335912D01*
X12216730Y-15335912D02*
X12216730Y-15259722D01*
X12216730Y-15259722D02*
X12226253Y-15240674D01*
X12226253Y-15240674D02*
X12245301Y-15231150D01*
X12245301Y-15231150D02*
X12283396Y-15231150D01*
X12283396Y-15231150D02*
X12302444Y-15240674D01*
X12302444Y-15240674D02*
X12311968Y-15259722D01*
X12311968Y-15259722D02*
X12311968Y-15278769D01*
X12311968Y-15278769D02*
X12216730Y-15297817D01*
X12388158Y-15354960D02*
X12407206Y-15364484D01*
X12407206Y-15364484D02*
X12445301Y-15364484D01*
X12445301Y-15364484D02*
X12464349Y-15354960D01*
X12464349Y-15354960D02*
X12473872Y-15335912D01*
X12473872Y-15335912D02*
X12473872Y-15326388D01*
X12473872Y-15326388D02*
X12464349Y-15307341D01*
X12464349Y-15307341D02*
X12445301Y-15297817D01*
X12445301Y-15297817D02*
X12416730Y-15297817D01*
X12416730Y-15297817D02*
X12397682Y-15288293D01*
X12397682Y-15288293D02*
X12388158Y-15269246D01*
X12388158Y-15269246D02*
X12388158Y-15259722D01*
X12388158Y-15259722D02*
X12397682Y-15240674D01*
X12397682Y-15240674D02*
X12416730Y-15231150D01*
X12416730Y-15231150D02*
X12445301Y-15231150D01*
X12445301Y-15231150D02*
X12464349Y-15240674D01*
X12540539Y-15440674D02*
X12550063Y-15431150D01*
X12550063Y-15431150D02*
X12569111Y-15402579D01*
X12569111Y-15402579D02*
X12578634Y-15383531D01*
X12578634Y-15383531D02*
X12588158Y-15354960D01*
X12588158Y-15354960D02*
X12597682Y-15307341D01*
X12597682Y-15307341D02*
X12597682Y-15269246D01*
X12597682Y-15269246D02*
X12588158Y-15221627D01*
X12588158Y-15221627D02*
X12578634Y-15193055D01*
X12578634Y-15193055D02*
X12569111Y-15174008D01*
X12569111Y-15174008D02*
X12550063Y-15145436D01*
X12550063Y-15145436D02*
X12540539Y-15135912D01*
D10*
X7560356Y-15572356D02*
X7560356Y-15501644D01*
X7489644Y-15501644D01*
X7489644Y-15572356D01*
X7560356Y-15572356D01*
D12*
X7940539Y-15628484D02*
X7826253Y-15628484D01*
X7883396Y-15628484D02*
X7883396Y-15428484D01*
X7883396Y-15428484D02*
X7864348Y-15457055D01*
X7864348Y-15457055D02*
X7845301Y-15476103D01*
X7845301Y-15476103D02*
X7826253Y-15485627D01*
X8026253Y-15609436D02*
X8035777Y-15618960D01*
X8035777Y-15618960D02*
X8026253Y-15628484D01*
X8026253Y-15628484D02*
X8016729Y-15618960D01*
X8016729Y-15618960D02*
X8026253Y-15609436D01*
X8026253Y-15609436D02*
X8026253Y-15628484D01*
X8159586Y-15428484D02*
X8178634Y-15428484D01*
X8178634Y-15428484D02*
X8197682Y-15438008D01*
X8197682Y-15438008D02*
X8207205Y-15447531D01*
X8207205Y-15447531D02*
X8216729Y-15466579D01*
X8216729Y-15466579D02*
X8226253Y-15504674D01*
X8226253Y-15504674D02*
X8226253Y-15552293D01*
X8226253Y-15552293D02*
X8216729Y-15590388D01*
X8216729Y-15590388D02*
X8207205Y-15609436D01*
X8207205Y-15609436D02*
X8197682Y-15618960D01*
X8197682Y-15618960D02*
X8178634Y-15628484D01*
X8178634Y-15628484D02*
X8159586Y-15628484D01*
X8159586Y-15628484D02*
X8140539Y-15618960D01*
X8140539Y-15618960D02*
X8131015Y-15609436D01*
X8131015Y-15609436D02*
X8121491Y-15590388D01*
X8121491Y-15590388D02*
X8111967Y-15552293D01*
X8111967Y-15552293D02*
X8111967Y-15504674D01*
X8111967Y-15504674D02*
X8121491Y-15466579D01*
X8121491Y-15466579D02*
X8131015Y-15447531D01*
X8131015Y-15447531D02*
X8140539Y-15438008D01*
X8140539Y-15438008D02*
X8159586Y-15428484D01*
X8350062Y-15428484D02*
X8369110Y-15428484D01*
X8369110Y-15428484D02*
X8388158Y-15438008D01*
X8388158Y-15438008D02*
X8397682Y-15447531D01*
X8397682Y-15447531D02*
X8407205Y-15466579D01*
X8407205Y-15466579D02*
X8416729Y-15504674D01*
X8416729Y-15504674D02*
X8416729Y-15552293D01*
X8416729Y-15552293D02*
X8407205Y-15590388D01*
X8407205Y-15590388D02*
X8397682Y-15609436D01*
X8397682Y-15609436D02*
X8388158Y-15618960D01*
X8388158Y-15618960D02*
X8369110Y-15628484D01*
X8369110Y-15628484D02*
X8350062Y-15628484D01*
X8350062Y-15628484D02*
X8331015Y-15618960D01*
X8331015Y-15618960D02*
X8321491Y-15609436D01*
X8321491Y-15609436D02*
X8311967Y-15590388D01*
X8311967Y-15590388D02*
X8302443Y-15552293D01*
X8302443Y-15552293D02*
X8302443Y-15504674D01*
X8302443Y-15504674D02*
X8311967Y-15466579D01*
X8311967Y-15466579D02*
X8321491Y-15447531D01*
X8321491Y-15447531D02*
X8331015Y-15438008D01*
X8331015Y-15438008D02*
X8350062Y-15428484D01*
X8540539Y-15428484D02*
X8559586Y-15428484D01*
X8559586Y-15428484D02*
X8578634Y-15438008D01*
X8578634Y-15438008D02*
X8588158Y-15447531D01*
X8588158Y-15447531D02*
X8597682Y-15466579D01*
X8597682Y-15466579D02*
X8607205Y-15504674D01*
X8607205Y-15504674D02*
X8607205Y-15552293D01*
X8607205Y-15552293D02*
X8597682Y-15590388D01*
X8597682Y-15590388D02*
X8588158Y-15609436D01*
X8588158Y-15609436D02*
X8578634Y-15618960D01*
X8578634Y-15618960D02*
X8559586Y-15628484D01*
X8559586Y-15628484D02*
X8540539Y-15628484D01*
X8540539Y-15628484D02*
X8521491Y-15618960D01*
X8521491Y-15618960D02*
X8511967Y-15609436D01*
X8511967Y-15609436D02*
X8502444Y-15590388D01*
X8502444Y-15590388D02*
X8492920Y-15552293D01*
X8492920Y-15552293D02*
X8492920Y-15504674D01*
X8492920Y-15504674D02*
X8502444Y-15466579D01*
X8502444Y-15466579D02*
X8511967Y-15447531D01*
X8511967Y-15447531D02*
X8521491Y-15438008D01*
X8521491Y-15438008D02*
X8540539Y-15428484D01*
X8692920Y-15628484D02*
X8692920Y-15495150D01*
X8692920Y-15514198D02*
X8702444Y-15504674D01*
X8702444Y-15504674D02*
X8721491Y-15495150D01*
X8721491Y-15495150D02*
X8750063Y-15495150D01*
X8750063Y-15495150D02*
X8769110Y-15504674D01*
X8769110Y-15504674D02*
X8778634Y-15523722D01*
X8778634Y-15523722D02*
X8778634Y-15628484D01*
X8778634Y-15523722D02*
X8788158Y-15504674D01*
X8788158Y-15504674D02*
X8807205Y-15495150D01*
X8807205Y-15495150D02*
X8835777Y-15495150D01*
X8835777Y-15495150D02*
X8854825Y-15504674D01*
X8854825Y-15504674D02*
X8864348Y-15523722D01*
X8864348Y-15523722D02*
X8864348Y-15628484D01*
X8959586Y-15628484D02*
X8959586Y-15495150D01*
X8959586Y-15514198D02*
X8969110Y-15504674D01*
X8969110Y-15504674D02*
X8988158Y-15495150D01*
X8988158Y-15495150D02*
X9016729Y-15495150D01*
X9016729Y-15495150D02*
X9035777Y-15504674D01*
X9035777Y-15504674D02*
X9045301Y-15523722D01*
X9045301Y-15523722D02*
X9045301Y-15628484D01*
X9045301Y-15523722D02*
X9054825Y-15504674D01*
X9054825Y-15504674D02*
X9073872Y-15495150D01*
X9073872Y-15495150D02*
X9102444Y-15495150D01*
X9102444Y-15495150D02*
X9121491Y-15504674D01*
X9121491Y-15504674D02*
X9131015Y-15523722D01*
X9131015Y-15523722D02*
X9131015Y-15628484D01*
X9521491Y-15418960D02*
X9350063Y-15676103D01*
X9778634Y-15428484D02*
X9797682Y-15428484D01*
X9797682Y-15428484D02*
X9816729Y-15438008D01*
X9816729Y-15438008D02*
X9826253Y-15447531D01*
X9826253Y-15447531D02*
X9835777Y-15466579D01*
X9835777Y-15466579D02*
X9845301Y-15504674D01*
X9845301Y-15504674D02*
X9845301Y-15552293D01*
X9845301Y-15552293D02*
X9835777Y-15590388D01*
X9835777Y-15590388D02*
X9826253Y-15609436D01*
X9826253Y-15609436D02*
X9816729Y-15618960D01*
X9816729Y-15618960D02*
X9797682Y-15628484D01*
X9797682Y-15628484D02*
X9778634Y-15628484D01*
X9778634Y-15628484D02*
X9759587Y-15618960D01*
X9759587Y-15618960D02*
X9750063Y-15609436D01*
X9750063Y-15609436D02*
X9740539Y-15590388D01*
X9740539Y-15590388D02*
X9731015Y-15552293D01*
X9731015Y-15552293D02*
X9731015Y-15504674D01*
X9731015Y-15504674D02*
X9740539Y-15466579D01*
X9740539Y-15466579D02*
X9750063Y-15447531D01*
X9750063Y-15447531D02*
X9759587Y-15438008D01*
X9759587Y-15438008D02*
X9778634Y-15428484D01*
X9931015Y-15609436D02*
X9940539Y-15618960D01*
X9940539Y-15618960D02*
X9931015Y-15628484D01*
X9931015Y-15628484D02*
X9921491Y-15618960D01*
X9921491Y-15618960D02*
X9931015Y-15609436D01*
X9931015Y-15609436D02*
X9931015Y-15628484D01*
X10064348Y-15428484D02*
X10083396Y-15428484D01*
X10083396Y-15428484D02*
X10102444Y-15438008D01*
X10102444Y-15438008D02*
X10111968Y-15447531D01*
X10111968Y-15447531D02*
X10121491Y-15466579D01*
X10121491Y-15466579D02*
X10131015Y-15504674D01*
X10131015Y-15504674D02*
X10131015Y-15552293D01*
X10131015Y-15552293D02*
X10121491Y-15590388D01*
X10121491Y-15590388D02*
X10111968Y-15609436D01*
X10111968Y-15609436D02*
X10102444Y-15618960D01*
X10102444Y-15618960D02*
X10083396Y-15628484D01*
X10083396Y-15628484D02*
X10064348Y-15628484D01*
X10064348Y-15628484D02*
X10045301Y-15618960D01*
X10045301Y-15618960D02*
X10035777Y-15609436D01*
X10035777Y-15609436D02*
X10026253Y-15590388D01*
X10026253Y-15590388D02*
X10016729Y-15552293D01*
X10016729Y-15552293D02*
X10016729Y-15504674D01*
X10016729Y-15504674D02*
X10026253Y-15466579D01*
X10026253Y-15466579D02*
X10035777Y-15447531D01*
X10035777Y-15447531D02*
X10045301Y-15438008D01*
X10045301Y-15438008D02*
X10064348Y-15428484D01*
X10197682Y-15428484D02*
X10321491Y-15428484D01*
X10321491Y-15428484D02*
X10254825Y-15504674D01*
X10254825Y-15504674D02*
X10283396Y-15504674D01*
X10283396Y-15504674D02*
X10302444Y-15514198D01*
X10302444Y-15514198D02*
X10311968Y-15523722D01*
X10311968Y-15523722D02*
X10321491Y-15542769D01*
X10321491Y-15542769D02*
X10321491Y-15590388D01*
X10321491Y-15590388D02*
X10311968Y-15609436D01*
X10311968Y-15609436D02*
X10302444Y-15618960D01*
X10302444Y-15618960D02*
X10283396Y-15628484D01*
X10283396Y-15628484D02*
X10226253Y-15628484D01*
X10226253Y-15628484D02*
X10207206Y-15618960D01*
X10207206Y-15618960D02*
X10197682Y-15609436D01*
X10416729Y-15628484D02*
X10454825Y-15628484D01*
X10454825Y-15628484D02*
X10473872Y-15618960D01*
X10473872Y-15618960D02*
X10483396Y-15609436D01*
X10483396Y-15609436D02*
X10502444Y-15580865D01*
X10502444Y-15580865D02*
X10511968Y-15542769D01*
X10511968Y-15542769D02*
X10511968Y-15466579D01*
X10511968Y-15466579D02*
X10502444Y-15447531D01*
X10502444Y-15447531D02*
X10492920Y-15438008D01*
X10492920Y-15438008D02*
X10473872Y-15428484D01*
X10473872Y-15428484D02*
X10435777Y-15428484D01*
X10435777Y-15428484D02*
X10416729Y-15438008D01*
X10416729Y-15438008D02*
X10407206Y-15447531D01*
X10407206Y-15447531D02*
X10397682Y-15466579D01*
X10397682Y-15466579D02*
X10397682Y-15514198D01*
X10397682Y-15514198D02*
X10407206Y-15533246D01*
X10407206Y-15533246D02*
X10416729Y-15542769D01*
X10416729Y-15542769D02*
X10435777Y-15552293D01*
X10435777Y-15552293D02*
X10473872Y-15552293D01*
X10473872Y-15552293D02*
X10492920Y-15542769D01*
X10492920Y-15542769D02*
X10502444Y-15533246D01*
X10502444Y-15533246D02*
X10511968Y-15514198D01*
X10683396Y-15495150D02*
X10683396Y-15628484D01*
X10635777Y-15418960D02*
X10588158Y-15561817D01*
X10588158Y-15561817D02*
X10711968Y-15561817D01*
X10778634Y-15428484D02*
X10778634Y-15466579D01*
X10854825Y-15428484D02*
X10854825Y-15466579D01*
X11150063Y-15704674D02*
X11140539Y-15695150D01*
X11140539Y-15695150D02*
X11121491Y-15666579D01*
X11121491Y-15666579D02*
X11111968Y-15647531D01*
X11111968Y-15647531D02*
X11102444Y-15618960D01*
X11102444Y-15618960D02*
X11092920Y-15571341D01*
X11092920Y-15571341D02*
X11092920Y-15533246D01*
X11092920Y-15533246D02*
X11102444Y-15485627D01*
X11102444Y-15485627D02*
X11111968Y-15457055D01*
X11111968Y-15457055D02*
X11121491Y-15438008D01*
X11121491Y-15438008D02*
X11140539Y-15409436D01*
X11140539Y-15409436D02*
X11150063Y-15399912D01*
X11207206Y-15428484D02*
X11331015Y-15428484D01*
X11331015Y-15428484D02*
X11264348Y-15504674D01*
X11264348Y-15504674D02*
X11292920Y-15504674D01*
X11292920Y-15504674D02*
X11311968Y-15514198D01*
X11311968Y-15514198D02*
X11321491Y-15523722D01*
X11321491Y-15523722D02*
X11331015Y-15542769D01*
X11331015Y-15542769D02*
X11331015Y-15590388D01*
X11331015Y-15590388D02*
X11321491Y-15609436D01*
X11321491Y-15609436D02*
X11311968Y-15618960D01*
X11311968Y-15618960D02*
X11292920Y-15628484D01*
X11292920Y-15628484D02*
X11235777Y-15628484D01*
X11235777Y-15628484D02*
X11216729Y-15618960D01*
X11216729Y-15618960D02*
X11207206Y-15609436D01*
X11502444Y-15495150D02*
X11502444Y-15628484D01*
X11454825Y-15418960D02*
X11407206Y-15561817D01*
X11407206Y-15561817D02*
X11531015Y-15561817D01*
X11759587Y-15628484D02*
X11759587Y-15428484D01*
X11845301Y-15628484D02*
X11845301Y-15523722D01*
X11845301Y-15523722D02*
X11835777Y-15504674D01*
X11835777Y-15504674D02*
X11816730Y-15495150D01*
X11816730Y-15495150D02*
X11788158Y-15495150D01*
X11788158Y-15495150D02*
X11769110Y-15504674D01*
X11769110Y-15504674D02*
X11759587Y-15514198D01*
X11969110Y-15628484D02*
X11950063Y-15618960D01*
X11950063Y-15618960D02*
X11940539Y-15609436D01*
X11940539Y-15609436D02*
X11931015Y-15590388D01*
X11931015Y-15590388D02*
X11931015Y-15533246D01*
X11931015Y-15533246D02*
X11940539Y-15514198D01*
X11940539Y-15514198D02*
X11950063Y-15504674D01*
X11950063Y-15504674D02*
X11969110Y-15495150D01*
X11969110Y-15495150D02*
X11997682Y-15495150D01*
X11997682Y-15495150D02*
X12016730Y-15504674D01*
X12016730Y-15504674D02*
X12026253Y-15514198D01*
X12026253Y-15514198D02*
X12035777Y-15533246D01*
X12035777Y-15533246D02*
X12035777Y-15590388D01*
X12035777Y-15590388D02*
X12026253Y-15609436D01*
X12026253Y-15609436D02*
X12016730Y-15618960D01*
X12016730Y-15618960D02*
X11997682Y-15628484D01*
X11997682Y-15628484D02*
X11969110Y-15628484D01*
X12150063Y-15628484D02*
X12131015Y-15618960D01*
X12131015Y-15618960D02*
X12121491Y-15599912D01*
X12121491Y-15599912D02*
X12121491Y-15428484D01*
X12302444Y-15618960D02*
X12283396Y-15628484D01*
X12283396Y-15628484D02*
X12245301Y-15628484D01*
X12245301Y-15628484D02*
X12226253Y-15618960D01*
X12226253Y-15618960D02*
X12216730Y-15599912D01*
X12216730Y-15599912D02*
X12216730Y-15523722D01*
X12216730Y-15523722D02*
X12226253Y-15504674D01*
X12226253Y-15504674D02*
X12245301Y-15495150D01*
X12245301Y-15495150D02*
X12283396Y-15495150D01*
X12283396Y-15495150D02*
X12302444Y-15504674D01*
X12302444Y-15504674D02*
X12311968Y-15523722D01*
X12311968Y-15523722D02*
X12311968Y-15542769D01*
X12311968Y-15542769D02*
X12216730Y-15561817D01*
X12388158Y-15618960D02*
X12407206Y-15628484D01*
X12407206Y-15628484D02*
X12445301Y-15628484D01*
X12445301Y-15628484D02*
X12464349Y-15618960D01*
X12464349Y-15618960D02*
X12473872Y-15599912D01*
X12473872Y-15599912D02*
X12473872Y-15590388D01*
X12473872Y-15590388D02*
X12464349Y-15571341D01*
X12464349Y-15571341D02*
X12445301Y-15561817D01*
X12445301Y-15561817D02*
X12416730Y-15561817D01*
X12416730Y-15561817D02*
X12397682Y-15552293D01*
X12397682Y-15552293D02*
X12388158Y-15533246D01*
X12388158Y-15533246D02*
X12388158Y-15523722D01*
X12388158Y-15523722D02*
X12397682Y-15504674D01*
X12397682Y-15504674D02*
X12416730Y-15495150D01*
X12416730Y-15495150D02*
X12445301Y-15495150D01*
X12445301Y-15495150D02*
X12464349Y-15504674D01*
X12540539Y-15704674D02*
X12550063Y-15695150D01*
X12550063Y-15695150D02*
X12569111Y-15666579D01*
X12569111Y-15666579D02*
X12578634Y-15647531D01*
X12578634Y-15647531D02*
X12588158Y-15618960D01*
X12588158Y-15618960D02*
X12597682Y-15571341D01*
X12597682Y-15571341D02*
X12597682Y-15533246D01*
X12597682Y-15533246D02*
X12588158Y-15485627D01*
X12588158Y-15485627D02*
X12578634Y-15457055D01*
X12578634Y-15457055D02*
X12569111Y-15438008D01*
X12569111Y-15438008D02*
X12550063Y-15409436D01*
X12550063Y-15409436D02*
X12540539Y-15399912D01*
D13*
X7524200Y-15851800D02*
X7575000Y-15801000D01*
X7524200Y-15750200D01*
X7473400Y-15801000D01*
X7524200Y-15851800D01*
D12*
X7940539Y-15892484D02*
X7826253Y-15892484D01*
X7883396Y-15892484D02*
X7883396Y-15692484D01*
X7883396Y-15692484D02*
X7864348Y-15721055D01*
X7864348Y-15721055D02*
X7845301Y-15740103D01*
X7845301Y-15740103D02*
X7826253Y-15749627D01*
X8026253Y-15873436D02*
X8035777Y-15882960D01*
X8035777Y-15882960D02*
X8026253Y-15892484D01*
X8026253Y-15892484D02*
X8016729Y-15882960D01*
X8016729Y-15882960D02*
X8026253Y-15873436D01*
X8026253Y-15873436D02*
X8026253Y-15892484D01*
X8159586Y-15692484D02*
X8178634Y-15692484D01*
X8178634Y-15692484D02*
X8197682Y-15702008D01*
X8197682Y-15702008D02*
X8207205Y-15711531D01*
X8207205Y-15711531D02*
X8216729Y-15730579D01*
X8216729Y-15730579D02*
X8226253Y-15768674D01*
X8226253Y-15768674D02*
X8226253Y-15816293D01*
X8226253Y-15816293D02*
X8216729Y-15854388D01*
X8216729Y-15854388D02*
X8207205Y-15873436D01*
X8207205Y-15873436D02*
X8197682Y-15882960D01*
X8197682Y-15882960D02*
X8178634Y-15892484D01*
X8178634Y-15892484D02*
X8159586Y-15892484D01*
X8159586Y-15892484D02*
X8140539Y-15882960D01*
X8140539Y-15882960D02*
X8131015Y-15873436D01*
X8131015Y-15873436D02*
X8121491Y-15854388D01*
X8121491Y-15854388D02*
X8111967Y-15816293D01*
X8111967Y-15816293D02*
X8111967Y-15768674D01*
X8111967Y-15768674D02*
X8121491Y-15730579D01*
X8121491Y-15730579D02*
X8131015Y-15711531D01*
X8131015Y-15711531D02*
X8140539Y-15702008D01*
X8140539Y-15702008D02*
X8159586Y-15692484D01*
X8416729Y-15892484D02*
X8302443Y-15892484D01*
X8359586Y-15892484D02*
X8359586Y-15692484D01*
X8359586Y-15692484D02*
X8340539Y-15721055D01*
X8340539Y-15721055D02*
X8321491Y-15740103D01*
X8321491Y-15740103D02*
X8302443Y-15749627D01*
X8588158Y-15692484D02*
X8550063Y-15692484D01*
X8550063Y-15692484D02*
X8531015Y-15702008D01*
X8531015Y-15702008D02*
X8521491Y-15711531D01*
X8521491Y-15711531D02*
X8502444Y-15740103D01*
X8502444Y-15740103D02*
X8492920Y-15778198D01*
X8492920Y-15778198D02*
X8492920Y-15854388D01*
X8492920Y-15854388D02*
X8502444Y-15873436D01*
X8502444Y-15873436D02*
X8511967Y-15882960D01*
X8511967Y-15882960D02*
X8531015Y-15892484D01*
X8531015Y-15892484D02*
X8569110Y-15892484D01*
X8569110Y-15892484D02*
X8588158Y-15882960D01*
X8588158Y-15882960D02*
X8597682Y-15873436D01*
X8597682Y-15873436D02*
X8607205Y-15854388D01*
X8607205Y-15854388D02*
X8607205Y-15806769D01*
X8607205Y-15806769D02*
X8597682Y-15787722D01*
X8597682Y-15787722D02*
X8588158Y-15778198D01*
X8588158Y-15778198D02*
X8569110Y-15768674D01*
X8569110Y-15768674D02*
X8531015Y-15768674D01*
X8531015Y-15768674D02*
X8511967Y-15778198D01*
X8511967Y-15778198D02*
X8502444Y-15787722D01*
X8502444Y-15787722D02*
X8492920Y-15806769D01*
X8692920Y-15892484D02*
X8692920Y-15759150D01*
X8692920Y-15778198D02*
X8702444Y-15768674D01*
X8702444Y-15768674D02*
X8721491Y-15759150D01*
X8721491Y-15759150D02*
X8750063Y-15759150D01*
X8750063Y-15759150D02*
X8769110Y-15768674D01*
X8769110Y-15768674D02*
X8778634Y-15787722D01*
X8778634Y-15787722D02*
X8778634Y-15892484D01*
X8778634Y-15787722D02*
X8788158Y-15768674D01*
X8788158Y-15768674D02*
X8807205Y-15759150D01*
X8807205Y-15759150D02*
X8835777Y-15759150D01*
X8835777Y-15759150D02*
X8854825Y-15768674D01*
X8854825Y-15768674D02*
X8864348Y-15787722D01*
X8864348Y-15787722D02*
X8864348Y-15892484D01*
X8959586Y-15892484D02*
X8959586Y-15759150D01*
X8959586Y-15778198D02*
X8969110Y-15768674D01*
X8969110Y-15768674D02*
X8988158Y-15759150D01*
X8988158Y-15759150D02*
X9016729Y-15759150D01*
X9016729Y-15759150D02*
X9035777Y-15768674D01*
X9035777Y-15768674D02*
X9045301Y-15787722D01*
X9045301Y-15787722D02*
X9045301Y-15892484D01*
X9045301Y-15787722D02*
X9054825Y-15768674D01*
X9054825Y-15768674D02*
X9073872Y-15759150D01*
X9073872Y-15759150D02*
X9102444Y-15759150D01*
X9102444Y-15759150D02*
X9121491Y-15768674D01*
X9121491Y-15768674D02*
X9131015Y-15787722D01*
X9131015Y-15787722D02*
X9131015Y-15892484D01*
X9521491Y-15682960D02*
X9350063Y-15940103D01*
X9778634Y-15692484D02*
X9797682Y-15692484D01*
X9797682Y-15692484D02*
X9816729Y-15702008D01*
X9816729Y-15702008D02*
X9826253Y-15711531D01*
X9826253Y-15711531D02*
X9835777Y-15730579D01*
X9835777Y-15730579D02*
X9845301Y-15768674D01*
X9845301Y-15768674D02*
X9845301Y-15816293D01*
X9845301Y-15816293D02*
X9835777Y-15854388D01*
X9835777Y-15854388D02*
X9826253Y-15873436D01*
X9826253Y-15873436D02*
X9816729Y-15882960D01*
X9816729Y-15882960D02*
X9797682Y-15892484D01*
X9797682Y-15892484D02*
X9778634Y-15892484D01*
X9778634Y-15892484D02*
X9759587Y-15882960D01*
X9759587Y-15882960D02*
X9750063Y-15873436D01*
X9750063Y-15873436D02*
X9740539Y-15854388D01*
X9740539Y-15854388D02*
X9731015Y-15816293D01*
X9731015Y-15816293D02*
X9731015Y-15768674D01*
X9731015Y-15768674D02*
X9740539Y-15730579D01*
X9740539Y-15730579D02*
X9750063Y-15711531D01*
X9750063Y-15711531D02*
X9759587Y-15702008D01*
X9759587Y-15702008D02*
X9778634Y-15692484D01*
X9931015Y-15873436D02*
X9940539Y-15882960D01*
X9940539Y-15882960D02*
X9931015Y-15892484D01*
X9931015Y-15892484D02*
X9921491Y-15882960D01*
X9921491Y-15882960D02*
X9931015Y-15873436D01*
X9931015Y-15873436D02*
X9931015Y-15892484D01*
X10064348Y-15692484D02*
X10083396Y-15692484D01*
X10083396Y-15692484D02*
X10102444Y-15702008D01*
X10102444Y-15702008D02*
X10111968Y-15711531D01*
X10111968Y-15711531D02*
X10121491Y-15730579D01*
X10121491Y-15730579D02*
X10131015Y-15768674D01*
X10131015Y-15768674D02*
X10131015Y-15816293D01*
X10131015Y-15816293D02*
X10121491Y-15854388D01*
X10121491Y-15854388D02*
X10111968Y-15873436D01*
X10111968Y-15873436D02*
X10102444Y-15882960D01*
X10102444Y-15882960D02*
X10083396Y-15892484D01*
X10083396Y-15892484D02*
X10064348Y-15892484D01*
X10064348Y-15892484D02*
X10045301Y-15882960D01*
X10045301Y-15882960D02*
X10035777Y-15873436D01*
X10035777Y-15873436D02*
X10026253Y-15854388D01*
X10026253Y-15854388D02*
X10016729Y-15816293D01*
X10016729Y-15816293D02*
X10016729Y-15768674D01*
X10016729Y-15768674D02*
X10026253Y-15730579D01*
X10026253Y-15730579D02*
X10035777Y-15711531D01*
X10035777Y-15711531D02*
X10045301Y-15702008D01*
X10045301Y-15702008D02*
X10064348Y-15692484D01*
X10302444Y-15759150D02*
X10302444Y-15892484D01*
X10254825Y-15682960D02*
X10207206Y-15825817D01*
X10207206Y-15825817D02*
X10331015Y-15825817D01*
X10445301Y-15692484D02*
X10464349Y-15692484D01*
X10464349Y-15692484D02*
X10483396Y-15702008D01*
X10483396Y-15702008D02*
X10492920Y-15711531D01*
X10492920Y-15711531D02*
X10502444Y-15730579D01*
X10502444Y-15730579D02*
X10511968Y-15768674D01*
X10511968Y-15768674D02*
X10511968Y-15816293D01*
X10511968Y-15816293D02*
X10502444Y-15854388D01*
X10502444Y-15854388D02*
X10492920Y-15873436D01*
X10492920Y-15873436D02*
X10483396Y-15882960D01*
X10483396Y-15882960D02*
X10464349Y-15892484D01*
X10464349Y-15892484D02*
X10445301Y-15892484D01*
X10445301Y-15892484D02*
X10426253Y-15882960D01*
X10426253Y-15882960D02*
X10416729Y-15873436D01*
X10416729Y-15873436D02*
X10407206Y-15854388D01*
X10407206Y-15854388D02*
X10397682Y-15816293D01*
X10397682Y-15816293D02*
X10397682Y-15768674D01*
X10397682Y-15768674D02*
X10407206Y-15730579D01*
X10407206Y-15730579D02*
X10416729Y-15711531D01*
X10416729Y-15711531D02*
X10426253Y-15702008D01*
X10426253Y-15702008D02*
X10445301Y-15692484D01*
X10635777Y-15692484D02*
X10654825Y-15692484D01*
X10654825Y-15692484D02*
X10673872Y-15702008D01*
X10673872Y-15702008D02*
X10683396Y-15711531D01*
X10683396Y-15711531D02*
X10692920Y-15730579D01*
X10692920Y-15730579D02*
X10702444Y-15768674D01*
X10702444Y-15768674D02*
X10702444Y-15816293D01*
X10702444Y-15816293D02*
X10692920Y-15854388D01*
X10692920Y-15854388D02*
X10683396Y-15873436D01*
X10683396Y-15873436D02*
X10673872Y-15882960D01*
X10673872Y-15882960D02*
X10654825Y-15892484D01*
X10654825Y-15892484D02*
X10635777Y-15892484D01*
X10635777Y-15892484D02*
X10616729Y-15882960D01*
X10616729Y-15882960D02*
X10607206Y-15873436D01*
X10607206Y-15873436D02*
X10597682Y-15854388D01*
X10597682Y-15854388D02*
X10588158Y-15816293D01*
X10588158Y-15816293D02*
X10588158Y-15768674D01*
X10588158Y-15768674D02*
X10597682Y-15730579D01*
X10597682Y-15730579D02*
X10607206Y-15711531D01*
X10607206Y-15711531D02*
X10616729Y-15702008D01*
X10616729Y-15702008D02*
X10635777Y-15692484D01*
X10778634Y-15692484D02*
X10778634Y-15730579D01*
X10854825Y-15692484D02*
X10854825Y-15730579D01*
X11150063Y-15968674D02*
X11140539Y-15959150D01*
X11140539Y-15959150D02*
X11121491Y-15930579D01*
X11121491Y-15930579D02*
X11111968Y-15911531D01*
X11111968Y-15911531D02*
X11102444Y-15882960D01*
X11102444Y-15882960D02*
X11092920Y-15835341D01*
X11092920Y-15835341D02*
X11092920Y-15797246D01*
X11092920Y-15797246D02*
X11102444Y-15749627D01*
X11102444Y-15749627D02*
X11111968Y-15721055D01*
X11111968Y-15721055D02*
X11121491Y-15702008D01*
X11121491Y-15702008D02*
X11140539Y-15673436D01*
X11140539Y-15673436D02*
X11150063Y-15663912D01*
X11321491Y-15692484D02*
X11226253Y-15692484D01*
X11226253Y-15692484D02*
X11216729Y-15787722D01*
X11216729Y-15787722D02*
X11226253Y-15778198D01*
X11226253Y-15778198D02*
X11245301Y-15768674D01*
X11245301Y-15768674D02*
X11292920Y-15768674D01*
X11292920Y-15768674D02*
X11311968Y-15778198D01*
X11311968Y-15778198D02*
X11321491Y-15787722D01*
X11321491Y-15787722D02*
X11331015Y-15806769D01*
X11331015Y-15806769D02*
X11331015Y-15854388D01*
X11331015Y-15854388D02*
X11321491Y-15873436D01*
X11321491Y-15873436D02*
X11311968Y-15882960D01*
X11311968Y-15882960D02*
X11292920Y-15892484D01*
X11292920Y-15892484D02*
X11245301Y-15892484D01*
X11245301Y-15892484D02*
X11226253Y-15882960D01*
X11226253Y-15882960D02*
X11216729Y-15873436D01*
X11569110Y-15892484D02*
X11569110Y-15692484D01*
X11654825Y-15892484D02*
X11654825Y-15787722D01*
X11654825Y-15787722D02*
X11645301Y-15768674D01*
X11645301Y-15768674D02*
X11626253Y-15759150D01*
X11626253Y-15759150D02*
X11597682Y-15759150D01*
X11597682Y-15759150D02*
X11578634Y-15768674D01*
X11578634Y-15768674D02*
X11569110Y-15778198D01*
X11778634Y-15892484D02*
X11759587Y-15882960D01*
X11759587Y-15882960D02*
X11750063Y-15873436D01*
X11750063Y-15873436D02*
X11740539Y-15854388D01*
X11740539Y-15854388D02*
X11740539Y-15797246D01*
X11740539Y-15797246D02*
X11750063Y-15778198D01*
X11750063Y-15778198D02*
X11759587Y-15768674D01*
X11759587Y-15768674D02*
X11778634Y-15759150D01*
X11778634Y-15759150D02*
X11807206Y-15759150D01*
X11807206Y-15759150D02*
X11826253Y-15768674D01*
X11826253Y-15768674D02*
X11835777Y-15778198D01*
X11835777Y-15778198D02*
X11845301Y-15797246D01*
X11845301Y-15797246D02*
X11845301Y-15854388D01*
X11845301Y-15854388D02*
X11835777Y-15873436D01*
X11835777Y-15873436D02*
X11826253Y-15882960D01*
X11826253Y-15882960D02*
X11807206Y-15892484D01*
X11807206Y-15892484D02*
X11778634Y-15892484D01*
X11959587Y-15892484D02*
X11940539Y-15882960D01*
X11940539Y-15882960D02*
X11931015Y-15863912D01*
X11931015Y-15863912D02*
X11931015Y-15692484D01*
X12111968Y-15882960D02*
X12092920Y-15892484D01*
X12092920Y-15892484D02*
X12054825Y-15892484D01*
X12054825Y-15892484D02*
X12035777Y-15882960D01*
X12035777Y-15882960D02*
X12026253Y-15863912D01*
X12026253Y-15863912D02*
X12026253Y-15787722D01*
X12026253Y-15787722D02*
X12035777Y-15768674D01*
X12035777Y-15768674D02*
X12054825Y-15759150D01*
X12054825Y-15759150D02*
X12092920Y-15759150D01*
X12092920Y-15759150D02*
X12111968Y-15768674D01*
X12111968Y-15768674D02*
X12121491Y-15787722D01*
X12121491Y-15787722D02*
X12121491Y-15806769D01*
X12121491Y-15806769D02*
X12026253Y-15825817D01*
X12197682Y-15882960D02*
X12216730Y-15892484D01*
X12216730Y-15892484D02*
X12254825Y-15892484D01*
X12254825Y-15892484D02*
X12273872Y-15882960D01*
X12273872Y-15882960D02*
X12283396Y-15863912D01*
X12283396Y-15863912D02*
X12283396Y-15854388D01*
X12283396Y-15854388D02*
X12273872Y-15835341D01*
X12273872Y-15835341D02*
X12254825Y-15825817D01*
X12254825Y-15825817D02*
X12226253Y-15825817D01*
X12226253Y-15825817D02*
X12207206Y-15816293D01*
X12207206Y-15816293D02*
X12197682Y-15797246D01*
X12197682Y-15797246D02*
X12197682Y-15787722D01*
X12197682Y-15787722D02*
X12207206Y-15768674D01*
X12207206Y-15768674D02*
X12226253Y-15759150D01*
X12226253Y-15759150D02*
X12254825Y-15759150D01*
X12254825Y-15759150D02*
X12273872Y-15768674D01*
X12350063Y-15968674D02*
X12359587Y-15959150D01*
X12359587Y-15959150D02*
X12378634Y-15930579D01*
X12378634Y-15930579D02*
X12388158Y-15911531D01*
X12388158Y-15911531D02*
X12397682Y-15882960D01*
X12397682Y-15882960D02*
X12407206Y-15835341D01*
X12407206Y-15835341D02*
X12407206Y-15797246D01*
X12407206Y-15797246D02*
X12397682Y-15749627D01*
X12397682Y-15749627D02*
X12388158Y-15721055D01*
X12388158Y-15721055D02*
X12378634Y-15702008D01*
X12378634Y-15702008D02*
X12359587Y-15673436D01*
X12359587Y-15673436D02*
X12350063Y-15663912D01*
D14*
X7465000Y-16010000D02*
X7575000Y-16120000D01*
X7575000Y-16010000D02*
X7465000Y-16120000D01*
X7575000Y-16065000D02*
G75*
G03*
X7465000Y-16065000I-55000J0D01*
G01*
X7465000Y-16065000D02*
G75*
G03*
X7575000Y-16065000I55000J0D01*
G01*
D12*
X7940539Y-16156484D02*
X7826253Y-16156484D01*
X7883396Y-16156484D02*
X7883396Y-15956484D01*
X7883396Y-15956484D02*
X7864348Y-15985055D01*
X7864348Y-15985055D02*
X7845301Y-16004103D01*
X7845301Y-16004103D02*
X7826253Y-16013627D01*
X8026253Y-16137436D02*
X8035777Y-16146960D01*
X8035777Y-16146960D02*
X8026253Y-16156484D01*
X8026253Y-16156484D02*
X8016729Y-16146960D01*
X8016729Y-16146960D02*
X8026253Y-16137436D01*
X8026253Y-16137436D02*
X8026253Y-16156484D01*
X8226253Y-16156484D02*
X8111967Y-16156484D01*
X8169110Y-16156484D02*
X8169110Y-15956484D01*
X8169110Y-15956484D02*
X8150062Y-15985055D01*
X8150062Y-15985055D02*
X8131015Y-16004103D01*
X8131015Y-16004103D02*
X8111967Y-16013627D01*
X8350062Y-15956484D02*
X8369110Y-15956484D01*
X8369110Y-15956484D02*
X8388158Y-15966008D01*
X8388158Y-15966008D02*
X8397682Y-15975531D01*
X8397682Y-15975531D02*
X8407205Y-15994579D01*
X8407205Y-15994579D02*
X8416729Y-16032674D01*
X8416729Y-16032674D02*
X8416729Y-16080293D01*
X8416729Y-16080293D02*
X8407205Y-16118388D01*
X8407205Y-16118388D02*
X8397682Y-16137436D01*
X8397682Y-16137436D02*
X8388158Y-16146960D01*
X8388158Y-16146960D02*
X8369110Y-16156484D01*
X8369110Y-16156484D02*
X8350062Y-16156484D01*
X8350062Y-16156484D02*
X8331015Y-16146960D01*
X8331015Y-16146960D02*
X8321491Y-16137436D01*
X8321491Y-16137436D02*
X8311967Y-16118388D01*
X8311967Y-16118388D02*
X8302443Y-16080293D01*
X8302443Y-16080293D02*
X8302443Y-16032674D01*
X8302443Y-16032674D02*
X8311967Y-15994579D01*
X8311967Y-15994579D02*
X8321491Y-15975531D01*
X8321491Y-15975531D02*
X8331015Y-15966008D01*
X8331015Y-15966008D02*
X8350062Y-15956484D01*
X8540539Y-15956484D02*
X8559586Y-15956484D01*
X8559586Y-15956484D02*
X8578634Y-15966008D01*
X8578634Y-15966008D02*
X8588158Y-15975531D01*
X8588158Y-15975531D02*
X8597682Y-15994579D01*
X8597682Y-15994579D02*
X8607205Y-16032674D01*
X8607205Y-16032674D02*
X8607205Y-16080293D01*
X8607205Y-16080293D02*
X8597682Y-16118388D01*
X8597682Y-16118388D02*
X8588158Y-16137436D01*
X8588158Y-16137436D02*
X8578634Y-16146960D01*
X8578634Y-16146960D02*
X8559586Y-16156484D01*
X8559586Y-16156484D02*
X8540539Y-16156484D01*
X8540539Y-16156484D02*
X8521491Y-16146960D01*
X8521491Y-16146960D02*
X8511967Y-16137436D01*
X8511967Y-16137436D02*
X8502444Y-16118388D01*
X8502444Y-16118388D02*
X8492920Y-16080293D01*
X8492920Y-16080293D02*
X8492920Y-16032674D01*
X8492920Y-16032674D02*
X8502444Y-15994579D01*
X8502444Y-15994579D02*
X8511967Y-15975531D01*
X8511967Y-15975531D02*
X8521491Y-15966008D01*
X8521491Y-15966008D02*
X8540539Y-15956484D01*
X8692920Y-16156484D02*
X8692920Y-16023150D01*
X8692920Y-16042198D02*
X8702444Y-16032674D01*
X8702444Y-16032674D02*
X8721491Y-16023150D01*
X8721491Y-16023150D02*
X8750063Y-16023150D01*
X8750063Y-16023150D02*
X8769110Y-16032674D01*
X8769110Y-16032674D02*
X8778634Y-16051722D01*
X8778634Y-16051722D02*
X8778634Y-16156484D01*
X8778634Y-16051722D02*
X8788158Y-16032674D01*
X8788158Y-16032674D02*
X8807205Y-16023150D01*
X8807205Y-16023150D02*
X8835777Y-16023150D01*
X8835777Y-16023150D02*
X8854825Y-16032674D01*
X8854825Y-16032674D02*
X8864348Y-16051722D01*
X8864348Y-16051722D02*
X8864348Y-16156484D01*
X8959586Y-16156484D02*
X8959586Y-16023150D01*
X8959586Y-16042198D02*
X8969110Y-16032674D01*
X8969110Y-16032674D02*
X8988158Y-16023150D01*
X8988158Y-16023150D02*
X9016729Y-16023150D01*
X9016729Y-16023150D02*
X9035777Y-16032674D01*
X9035777Y-16032674D02*
X9045301Y-16051722D01*
X9045301Y-16051722D02*
X9045301Y-16156484D01*
X9045301Y-16051722D02*
X9054825Y-16032674D01*
X9054825Y-16032674D02*
X9073872Y-16023150D01*
X9073872Y-16023150D02*
X9102444Y-16023150D01*
X9102444Y-16023150D02*
X9121491Y-16032674D01*
X9121491Y-16032674D02*
X9131015Y-16051722D01*
X9131015Y-16051722D02*
X9131015Y-16156484D01*
X9521491Y-15946960D02*
X9350063Y-16204103D01*
X9778634Y-15956484D02*
X9797682Y-15956484D01*
X9797682Y-15956484D02*
X9816729Y-15966008D01*
X9816729Y-15966008D02*
X9826253Y-15975531D01*
X9826253Y-15975531D02*
X9835777Y-15994579D01*
X9835777Y-15994579D02*
X9845301Y-16032674D01*
X9845301Y-16032674D02*
X9845301Y-16080293D01*
X9845301Y-16080293D02*
X9835777Y-16118388D01*
X9835777Y-16118388D02*
X9826253Y-16137436D01*
X9826253Y-16137436D02*
X9816729Y-16146960D01*
X9816729Y-16146960D02*
X9797682Y-16156484D01*
X9797682Y-16156484D02*
X9778634Y-16156484D01*
X9778634Y-16156484D02*
X9759587Y-16146960D01*
X9759587Y-16146960D02*
X9750063Y-16137436D01*
X9750063Y-16137436D02*
X9740539Y-16118388D01*
X9740539Y-16118388D02*
X9731015Y-16080293D01*
X9731015Y-16080293D02*
X9731015Y-16032674D01*
X9731015Y-16032674D02*
X9740539Y-15994579D01*
X9740539Y-15994579D02*
X9750063Y-15975531D01*
X9750063Y-15975531D02*
X9759587Y-15966008D01*
X9759587Y-15966008D02*
X9778634Y-15956484D01*
X9931015Y-16137436D02*
X9940539Y-16146960D01*
X9940539Y-16146960D02*
X9931015Y-16156484D01*
X9931015Y-16156484D02*
X9921491Y-16146960D01*
X9921491Y-16146960D02*
X9931015Y-16137436D01*
X9931015Y-16137436D02*
X9931015Y-16156484D01*
X10064348Y-15956484D02*
X10083396Y-15956484D01*
X10083396Y-15956484D02*
X10102444Y-15966008D01*
X10102444Y-15966008D02*
X10111968Y-15975531D01*
X10111968Y-15975531D02*
X10121491Y-15994579D01*
X10121491Y-15994579D02*
X10131015Y-16032674D01*
X10131015Y-16032674D02*
X10131015Y-16080293D01*
X10131015Y-16080293D02*
X10121491Y-16118388D01*
X10121491Y-16118388D02*
X10111968Y-16137436D01*
X10111968Y-16137436D02*
X10102444Y-16146960D01*
X10102444Y-16146960D02*
X10083396Y-16156484D01*
X10083396Y-16156484D02*
X10064348Y-16156484D01*
X10064348Y-16156484D02*
X10045301Y-16146960D01*
X10045301Y-16146960D02*
X10035777Y-16137436D01*
X10035777Y-16137436D02*
X10026253Y-16118388D01*
X10026253Y-16118388D02*
X10016729Y-16080293D01*
X10016729Y-16080293D02*
X10016729Y-16032674D01*
X10016729Y-16032674D02*
X10026253Y-15994579D01*
X10026253Y-15994579D02*
X10035777Y-15975531D01*
X10035777Y-15975531D02*
X10045301Y-15966008D01*
X10045301Y-15966008D02*
X10064348Y-15956484D01*
X10302444Y-16023150D02*
X10302444Y-16156484D01*
X10254825Y-15946960D02*
X10207206Y-16089817D01*
X10207206Y-16089817D02*
X10331015Y-16089817D01*
X10388158Y-15956484D02*
X10511968Y-15956484D01*
X10511968Y-15956484D02*
X10445301Y-16032674D01*
X10445301Y-16032674D02*
X10473872Y-16032674D01*
X10473872Y-16032674D02*
X10492920Y-16042198D01*
X10492920Y-16042198D02*
X10502444Y-16051722D01*
X10502444Y-16051722D02*
X10511968Y-16070769D01*
X10511968Y-16070769D02*
X10511968Y-16118388D01*
X10511968Y-16118388D02*
X10502444Y-16137436D01*
X10502444Y-16137436D02*
X10492920Y-16146960D01*
X10492920Y-16146960D02*
X10473872Y-16156484D01*
X10473872Y-16156484D02*
X10416729Y-16156484D01*
X10416729Y-16156484D02*
X10397682Y-16146960D01*
X10397682Y-16146960D02*
X10388158Y-16137436D01*
X10578634Y-15956484D02*
X10702444Y-15956484D01*
X10702444Y-15956484D02*
X10635777Y-16032674D01*
X10635777Y-16032674D02*
X10664349Y-16032674D01*
X10664349Y-16032674D02*
X10683396Y-16042198D01*
X10683396Y-16042198D02*
X10692920Y-16051722D01*
X10692920Y-16051722D02*
X10702444Y-16070769D01*
X10702444Y-16070769D02*
X10702444Y-16118388D01*
X10702444Y-16118388D02*
X10692920Y-16137436D01*
X10692920Y-16137436D02*
X10683396Y-16146960D01*
X10683396Y-16146960D02*
X10664349Y-16156484D01*
X10664349Y-16156484D02*
X10607206Y-16156484D01*
X10607206Y-16156484D02*
X10588158Y-16146960D01*
X10588158Y-16146960D02*
X10578634Y-16137436D01*
X10778634Y-15956484D02*
X10778634Y-15994579D01*
X10854825Y-15956484D02*
X10854825Y-15994579D01*
X11150063Y-16232674D02*
X11140539Y-16223150D01*
X11140539Y-16223150D02*
X11121491Y-16194579D01*
X11121491Y-16194579D02*
X11111968Y-16175531D01*
X11111968Y-16175531D02*
X11102444Y-16146960D01*
X11102444Y-16146960D02*
X11092920Y-16099341D01*
X11092920Y-16099341D02*
X11092920Y-16061246D01*
X11092920Y-16061246D02*
X11102444Y-16013627D01*
X11102444Y-16013627D02*
X11111968Y-15985055D01*
X11111968Y-15985055D02*
X11121491Y-15966008D01*
X11121491Y-15966008D02*
X11140539Y-15937436D01*
X11140539Y-15937436D02*
X11150063Y-15927912D01*
X11331015Y-16156484D02*
X11216729Y-16156484D01*
X11273872Y-16156484D02*
X11273872Y-15956484D01*
X11273872Y-15956484D02*
X11254825Y-15985055D01*
X11254825Y-15985055D02*
X11235777Y-16004103D01*
X11235777Y-16004103D02*
X11216729Y-16013627D01*
X11511968Y-15956484D02*
X11416729Y-15956484D01*
X11416729Y-15956484D02*
X11407206Y-16051722D01*
X11407206Y-16051722D02*
X11416729Y-16042198D01*
X11416729Y-16042198D02*
X11435777Y-16032674D01*
X11435777Y-16032674D02*
X11483396Y-16032674D01*
X11483396Y-16032674D02*
X11502444Y-16042198D01*
X11502444Y-16042198D02*
X11511968Y-16051722D01*
X11511968Y-16051722D02*
X11521491Y-16070769D01*
X11521491Y-16070769D02*
X11521491Y-16118388D01*
X11521491Y-16118388D02*
X11511968Y-16137436D01*
X11511968Y-16137436D02*
X11502444Y-16146960D01*
X11502444Y-16146960D02*
X11483396Y-16156484D01*
X11483396Y-16156484D02*
X11435777Y-16156484D01*
X11435777Y-16156484D02*
X11416729Y-16146960D01*
X11416729Y-16146960D02*
X11407206Y-16137436D01*
X11759587Y-16156484D02*
X11759587Y-15956484D01*
X11845301Y-16156484D02*
X11845301Y-16051722D01*
X11845301Y-16051722D02*
X11835777Y-16032674D01*
X11835777Y-16032674D02*
X11816730Y-16023150D01*
X11816730Y-16023150D02*
X11788158Y-16023150D01*
X11788158Y-16023150D02*
X11769110Y-16032674D01*
X11769110Y-16032674D02*
X11759587Y-16042198D01*
X11969110Y-16156484D02*
X11950063Y-16146960D01*
X11950063Y-16146960D02*
X11940539Y-16137436D01*
X11940539Y-16137436D02*
X11931015Y-16118388D01*
X11931015Y-16118388D02*
X11931015Y-16061246D01*
X11931015Y-16061246D02*
X11940539Y-16042198D01*
X11940539Y-16042198D02*
X11950063Y-16032674D01*
X11950063Y-16032674D02*
X11969110Y-16023150D01*
X11969110Y-16023150D02*
X11997682Y-16023150D01*
X11997682Y-16023150D02*
X12016730Y-16032674D01*
X12016730Y-16032674D02*
X12026253Y-16042198D01*
X12026253Y-16042198D02*
X12035777Y-16061246D01*
X12035777Y-16061246D02*
X12035777Y-16118388D01*
X12035777Y-16118388D02*
X12026253Y-16137436D01*
X12026253Y-16137436D02*
X12016730Y-16146960D01*
X12016730Y-16146960D02*
X11997682Y-16156484D01*
X11997682Y-16156484D02*
X11969110Y-16156484D01*
X12150063Y-16156484D02*
X12131015Y-16146960D01*
X12131015Y-16146960D02*
X12121491Y-16127912D01*
X12121491Y-16127912D02*
X12121491Y-15956484D01*
X12302444Y-16146960D02*
X12283396Y-16156484D01*
X12283396Y-16156484D02*
X12245301Y-16156484D01*
X12245301Y-16156484D02*
X12226253Y-16146960D01*
X12226253Y-16146960D02*
X12216730Y-16127912D01*
X12216730Y-16127912D02*
X12216730Y-16051722D01*
X12216730Y-16051722D02*
X12226253Y-16032674D01*
X12226253Y-16032674D02*
X12245301Y-16023150D01*
X12245301Y-16023150D02*
X12283396Y-16023150D01*
X12283396Y-16023150D02*
X12302444Y-16032674D01*
X12302444Y-16032674D02*
X12311968Y-16051722D01*
X12311968Y-16051722D02*
X12311968Y-16070769D01*
X12311968Y-16070769D02*
X12216730Y-16089817D01*
X12388158Y-16146960D02*
X12407206Y-16156484D01*
X12407206Y-16156484D02*
X12445301Y-16156484D01*
X12445301Y-16156484D02*
X12464349Y-16146960D01*
X12464349Y-16146960D02*
X12473872Y-16127912D01*
X12473872Y-16127912D02*
X12473872Y-16118388D01*
X12473872Y-16118388D02*
X12464349Y-16099341D01*
X12464349Y-16099341D02*
X12445301Y-16089817D01*
X12445301Y-16089817D02*
X12416730Y-16089817D01*
X12416730Y-16089817D02*
X12397682Y-16080293D01*
X12397682Y-16080293D02*
X12388158Y-16061246D01*
X12388158Y-16061246D02*
X12388158Y-16051722D01*
X12388158Y-16051722D02*
X12397682Y-16032674D01*
X12397682Y-16032674D02*
X12416730Y-16023150D01*
X12416730Y-16023150D02*
X12445301Y-16023150D01*
X12445301Y-16023150D02*
X12464349Y-16032674D01*
X12540539Y-16232674D02*
X12550063Y-16223150D01*
X12550063Y-16223150D02*
X12569111Y-16194579D01*
X12569111Y-16194579D02*
X12578634Y-16175531D01*
X12578634Y-16175531D02*
X12588158Y-16146960D01*
X12588158Y-16146960D02*
X12597682Y-16099341D01*
X12597682Y-16099341D02*
X12597682Y-16061246D01*
X12597682Y-16061246D02*
X12588158Y-16013627D01*
X12588158Y-16013627D02*
X12578634Y-15985055D01*
X12578634Y-15985055D02*
X12569111Y-15966008D01*
X12569111Y-15966008D02*
X12550063Y-15937436D01*
X12550063Y-15937436D02*
X12540539Y-15927912D01*
D15*
X7455000Y-16269000D02*
X7575000Y-16389000D01*
X7575000Y-16269000D02*
X7455000Y-16389000D01*
X7515000Y-16269000D02*
X7515000Y-16389000D01*
X7455000Y-16329000D02*
X7575000Y-16329000D01*
D12*
X7940539Y-16420484D02*
X7826253Y-16420484D01*
X7883396Y-16420484D02*
X7883396Y-16220484D01*
X7883396Y-16220484D02*
X7864348Y-16249055D01*
X7864348Y-16249055D02*
X7845301Y-16268103D01*
X7845301Y-16268103D02*
X7826253Y-16277627D01*
X8026253Y-16401436D02*
X8035777Y-16410960D01*
X8035777Y-16410960D02*
X8026253Y-16420484D01*
X8026253Y-16420484D02*
X8016729Y-16410960D01*
X8016729Y-16410960D02*
X8026253Y-16401436D01*
X8026253Y-16401436D02*
X8026253Y-16420484D01*
X8111967Y-16239531D02*
X8121491Y-16230008D01*
X8121491Y-16230008D02*
X8140539Y-16220484D01*
X8140539Y-16220484D02*
X8188158Y-16220484D01*
X8188158Y-16220484D02*
X8207205Y-16230008D01*
X8207205Y-16230008D02*
X8216729Y-16239531D01*
X8216729Y-16239531D02*
X8226253Y-16258579D01*
X8226253Y-16258579D02*
X8226253Y-16277627D01*
X8226253Y-16277627D02*
X8216729Y-16306198D01*
X8216729Y-16306198D02*
X8102443Y-16420484D01*
X8102443Y-16420484D02*
X8226253Y-16420484D01*
X8350062Y-16220484D02*
X8369110Y-16220484D01*
X8369110Y-16220484D02*
X8388158Y-16230008D01*
X8388158Y-16230008D02*
X8397682Y-16239531D01*
X8397682Y-16239531D02*
X8407205Y-16258579D01*
X8407205Y-16258579D02*
X8416729Y-16296674D01*
X8416729Y-16296674D02*
X8416729Y-16344293D01*
X8416729Y-16344293D02*
X8407205Y-16382388D01*
X8407205Y-16382388D02*
X8397682Y-16401436D01*
X8397682Y-16401436D02*
X8388158Y-16410960D01*
X8388158Y-16410960D02*
X8369110Y-16420484D01*
X8369110Y-16420484D02*
X8350062Y-16420484D01*
X8350062Y-16420484D02*
X8331015Y-16410960D01*
X8331015Y-16410960D02*
X8321491Y-16401436D01*
X8321491Y-16401436D02*
X8311967Y-16382388D01*
X8311967Y-16382388D02*
X8302443Y-16344293D01*
X8302443Y-16344293D02*
X8302443Y-16296674D01*
X8302443Y-16296674D02*
X8311967Y-16258579D01*
X8311967Y-16258579D02*
X8321491Y-16239531D01*
X8321491Y-16239531D02*
X8331015Y-16230008D01*
X8331015Y-16230008D02*
X8350062Y-16220484D01*
X8540539Y-16220484D02*
X8559586Y-16220484D01*
X8559586Y-16220484D02*
X8578634Y-16230008D01*
X8578634Y-16230008D02*
X8588158Y-16239531D01*
X8588158Y-16239531D02*
X8597682Y-16258579D01*
X8597682Y-16258579D02*
X8607205Y-16296674D01*
X8607205Y-16296674D02*
X8607205Y-16344293D01*
X8607205Y-16344293D02*
X8597682Y-16382388D01*
X8597682Y-16382388D02*
X8588158Y-16401436D01*
X8588158Y-16401436D02*
X8578634Y-16410960D01*
X8578634Y-16410960D02*
X8559586Y-16420484D01*
X8559586Y-16420484D02*
X8540539Y-16420484D01*
X8540539Y-16420484D02*
X8521491Y-16410960D01*
X8521491Y-16410960D02*
X8511967Y-16401436D01*
X8511967Y-16401436D02*
X8502444Y-16382388D01*
X8502444Y-16382388D02*
X8492920Y-16344293D01*
X8492920Y-16344293D02*
X8492920Y-16296674D01*
X8492920Y-16296674D02*
X8502444Y-16258579D01*
X8502444Y-16258579D02*
X8511967Y-16239531D01*
X8511967Y-16239531D02*
X8521491Y-16230008D01*
X8521491Y-16230008D02*
X8540539Y-16220484D01*
X8692920Y-16420484D02*
X8692920Y-16287150D01*
X8692920Y-16306198D02*
X8702444Y-16296674D01*
X8702444Y-16296674D02*
X8721491Y-16287150D01*
X8721491Y-16287150D02*
X8750063Y-16287150D01*
X8750063Y-16287150D02*
X8769110Y-16296674D01*
X8769110Y-16296674D02*
X8778634Y-16315722D01*
X8778634Y-16315722D02*
X8778634Y-16420484D01*
X8778634Y-16315722D02*
X8788158Y-16296674D01*
X8788158Y-16296674D02*
X8807205Y-16287150D01*
X8807205Y-16287150D02*
X8835777Y-16287150D01*
X8835777Y-16287150D02*
X8854825Y-16296674D01*
X8854825Y-16296674D02*
X8864348Y-16315722D01*
X8864348Y-16315722D02*
X8864348Y-16420484D01*
X8959586Y-16420484D02*
X8959586Y-16287150D01*
X8959586Y-16306198D02*
X8969110Y-16296674D01*
X8969110Y-16296674D02*
X8988158Y-16287150D01*
X8988158Y-16287150D02*
X9016729Y-16287150D01*
X9016729Y-16287150D02*
X9035777Y-16296674D01*
X9035777Y-16296674D02*
X9045301Y-16315722D01*
X9045301Y-16315722D02*
X9045301Y-16420484D01*
X9045301Y-16315722D02*
X9054825Y-16296674D01*
X9054825Y-16296674D02*
X9073872Y-16287150D01*
X9073872Y-16287150D02*
X9102444Y-16287150D01*
X9102444Y-16287150D02*
X9121491Y-16296674D01*
X9121491Y-16296674D02*
X9131015Y-16315722D01*
X9131015Y-16315722D02*
X9131015Y-16420484D01*
X9521491Y-16210960D02*
X9350063Y-16468103D01*
X9778634Y-16220484D02*
X9797682Y-16220484D01*
X9797682Y-16220484D02*
X9816729Y-16230008D01*
X9816729Y-16230008D02*
X9826253Y-16239531D01*
X9826253Y-16239531D02*
X9835777Y-16258579D01*
X9835777Y-16258579D02*
X9845301Y-16296674D01*
X9845301Y-16296674D02*
X9845301Y-16344293D01*
X9845301Y-16344293D02*
X9835777Y-16382388D01*
X9835777Y-16382388D02*
X9826253Y-16401436D01*
X9826253Y-16401436D02*
X9816729Y-16410960D01*
X9816729Y-16410960D02*
X9797682Y-16420484D01*
X9797682Y-16420484D02*
X9778634Y-16420484D01*
X9778634Y-16420484D02*
X9759587Y-16410960D01*
X9759587Y-16410960D02*
X9750063Y-16401436D01*
X9750063Y-16401436D02*
X9740539Y-16382388D01*
X9740539Y-16382388D02*
X9731015Y-16344293D01*
X9731015Y-16344293D02*
X9731015Y-16296674D01*
X9731015Y-16296674D02*
X9740539Y-16258579D01*
X9740539Y-16258579D02*
X9750063Y-16239531D01*
X9750063Y-16239531D02*
X9759587Y-16230008D01*
X9759587Y-16230008D02*
X9778634Y-16220484D01*
X9931015Y-16401436D02*
X9940539Y-16410960D01*
X9940539Y-16410960D02*
X9931015Y-16420484D01*
X9931015Y-16420484D02*
X9921491Y-16410960D01*
X9921491Y-16410960D02*
X9931015Y-16401436D01*
X9931015Y-16401436D02*
X9931015Y-16420484D01*
X10064348Y-16220484D02*
X10083396Y-16220484D01*
X10083396Y-16220484D02*
X10102444Y-16230008D01*
X10102444Y-16230008D02*
X10111968Y-16239531D01*
X10111968Y-16239531D02*
X10121491Y-16258579D01*
X10121491Y-16258579D02*
X10131015Y-16296674D01*
X10131015Y-16296674D02*
X10131015Y-16344293D01*
X10131015Y-16344293D02*
X10121491Y-16382388D01*
X10121491Y-16382388D02*
X10111968Y-16401436D01*
X10111968Y-16401436D02*
X10102444Y-16410960D01*
X10102444Y-16410960D02*
X10083396Y-16420484D01*
X10083396Y-16420484D02*
X10064348Y-16420484D01*
X10064348Y-16420484D02*
X10045301Y-16410960D01*
X10045301Y-16410960D02*
X10035777Y-16401436D01*
X10035777Y-16401436D02*
X10026253Y-16382388D01*
X10026253Y-16382388D02*
X10016729Y-16344293D01*
X10016729Y-16344293D02*
X10016729Y-16296674D01*
X10016729Y-16296674D02*
X10026253Y-16258579D01*
X10026253Y-16258579D02*
X10035777Y-16239531D01*
X10035777Y-16239531D02*
X10045301Y-16230008D01*
X10045301Y-16230008D02*
X10064348Y-16220484D01*
X10302444Y-16287150D02*
X10302444Y-16420484D01*
X10254825Y-16210960D02*
X10207206Y-16353817D01*
X10207206Y-16353817D02*
X10331015Y-16353817D01*
X10388158Y-16220484D02*
X10521491Y-16220484D01*
X10521491Y-16220484D02*
X10435777Y-16420484D01*
X10588158Y-16239531D02*
X10597682Y-16230008D01*
X10597682Y-16230008D02*
X10616729Y-16220484D01*
X10616729Y-16220484D02*
X10664349Y-16220484D01*
X10664349Y-16220484D02*
X10683396Y-16230008D01*
X10683396Y-16230008D02*
X10692920Y-16239531D01*
X10692920Y-16239531D02*
X10702444Y-16258579D01*
X10702444Y-16258579D02*
X10702444Y-16277627D01*
X10702444Y-16277627D02*
X10692920Y-16306198D01*
X10692920Y-16306198D02*
X10578634Y-16420484D01*
X10578634Y-16420484D02*
X10702444Y-16420484D01*
X10778634Y-16220484D02*
X10778634Y-16258579D01*
X10854825Y-16220484D02*
X10854825Y-16258579D01*
X11150063Y-16496674D02*
X11140539Y-16487150D01*
X11140539Y-16487150D02*
X11121491Y-16458579D01*
X11121491Y-16458579D02*
X11111968Y-16439531D01*
X11111968Y-16439531D02*
X11102444Y-16410960D01*
X11102444Y-16410960D02*
X11092920Y-16363341D01*
X11092920Y-16363341D02*
X11092920Y-16325246D01*
X11092920Y-16325246D02*
X11102444Y-16277627D01*
X11102444Y-16277627D02*
X11111968Y-16249055D01*
X11111968Y-16249055D02*
X11121491Y-16230008D01*
X11121491Y-16230008D02*
X11140539Y-16201436D01*
X11140539Y-16201436D02*
X11150063Y-16191912D01*
X11331015Y-16420484D02*
X11216729Y-16420484D01*
X11273872Y-16420484D02*
X11273872Y-16220484D01*
X11273872Y-16220484D02*
X11254825Y-16249055D01*
X11254825Y-16249055D02*
X11235777Y-16268103D01*
X11235777Y-16268103D02*
X11216729Y-16277627D01*
X11502444Y-16220484D02*
X11464348Y-16220484D01*
X11464348Y-16220484D02*
X11445301Y-16230008D01*
X11445301Y-16230008D02*
X11435777Y-16239531D01*
X11435777Y-16239531D02*
X11416729Y-16268103D01*
X11416729Y-16268103D02*
X11407206Y-16306198D01*
X11407206Y-16306198D02*
X11407206Y-16382388D01*
X11407206Y-16382388D02*
X11416729Y-16401436D01*
X11416729Y-16401436D02*
X11426253Y-16410960D01*
X11426253Y-16410960D02*
X11445301Y-16420484D01*
X11445301Y-16420484D02*
X11483396Y-16420484D01*
X11483396Y-16420484D02*
X11502444Y-16410960D01*
X11502444Y-16410960D02*
X11511968Y-16401436D01*
X11511968Y-16401436D02*
X11521491Y-16382388D01*
X11521491Y-16382388D02*
X11521491Y-16334769D01*
X11521491Y-16334769D02*
X11511968Y-16315722D01*
X11511968Y-16315722D02*
X11502444Y-16306198D01*
X11502444Y-16306198D02*
X11483396Y-16296674D01*
X11483396Y-16296674D02*
X11445301Y-16296674D01*
X11445301Y-16296674D02*
X11426253Y-16306198D01*
X11426253Y-16306198D02*
X11416729Y-16315722D01*
X11416729Y-16315722D02*
X11407206Y-16334769D01*
X11759587Y-16420484D02*
X11759587Y-16220484D01*
X11845301Y-16420484D02*
X11845301Y-16315722D01*
X11845301Y-16315722D02*
X11835777Y-16296674D01*
X11835777Y-16296674D02*
X11816730Y-16287150D01*
X11816730Y-16287150D02*
X11788158Y-16287150D01*
X11788158Y-16287150D02*
X11769110Y-16296674D01*
X11769110Y-16296674D02*
X11759587Y-16306198D01*
X11969110Y-16420484D02*
X11950063Y-16410960D01*
X11950063Y-16410960D02*
X11940539Y-16401436D01*
X11940539Y-16401436D02*
X11931015Y-16382388D01*
X11931015Y-16382388D02*
X11931015Y-16325246D01*
X11931015Y-16325246D02*
X11940539Y-16306198D01*
X11940539Y-16306198D02*
X11950063Y-16296674D01*
X11950063Y-16296674D02*
X11969110Y-16287150D01*
X11969110Y-16287150D02*
X11997682Y-16287150D01*
X11997682Y-16287150D02*
X12016730Y-16296674D01*
X12016730Y-16296674D02*
X12026253Y-16306198D01*
X12026253Y-16306198D02*
X12035777Y-16325246D01*
X12035777Y-16325246D02*
X12035777Y-16382388D01*
X12035777Y-16382388D02*
X12026253Y-16401436D01*
X12026253Y-16401436D02*
X12016730Y-16410960D01*
X12016730Y-16410960D02*
X11997682Y-16420484D01*
X11997682Y-16420484D02*
X11969110Y-16420484D01*
X12150063Y-16420484D02*
X12131015Y-16410960D01*
X12131015Y-16410960D02*
X12121491Y-16391912D01*
X12121491Y-16391912D02*
X12121491Y-16220484D01*
X12302444Y-16410960D02*
X12283396Y-16420484D01*
X12283396Y-16420484D02*
X12245301Y-16420484D01*
X12245301Y-16420484D02*
X12226253Y-16410960D01*
X12226253Y-16410960D02*
X12216730Y-16391912D01*
X12216730Y-16391912D02*
X12216730Y-16315722D01*
X12216730Y-16315722D02*
X12226253Y-16296674D01*
X12226253Y-16296674D02*
X12245301Y-16287150D01*
X12245301Y-16287150D02*
X12283396Y-16287150D01*
X12283396Y-16287150D02*
X12302444Y-16296674D01*
X12302444Y-16296674D02*
X12311968Y-16315722D01*
X12311968Y-16315722D02*
X12311968Y-16334769D01*
X12311968Y-16334769D02*
X12216730Y-16353817D01*
X12388158Y-16410960D02*
X12407206Y-16420484D01*
X12407206Y-16420484D02*
X12445301Y-16420484D01*
X12445301Y-16420484D02*
X12464349Y-16410960D01*
X12464349Y-16410960D02*
X12473872Y-16391912D01*
X12473872Y-16391912D02*
X12473872Y-16382388D01*
X12473872Y-16382388D02*
X12464349Y-16363341D01*
X12464349Y-16363341D02*
X12445301Y-16353817D01*
X12445301Y-16353817D02*
X12416730Y-16353817D01*
X12416730Y-16353817D02*
X12397682Y-16344293D01*
X12397682Y-16344293D02*
X12388158Y-16325246D01*
X12388158Y-16325246D02*
X12388158Y-16315722D01*
X12388158Y-16315722D02*
X12397682Y-16296674D01*
X12397682Y-16296674D02*
X12416730Y-16287150D01*
X12416730Y-16287150D02*
X12445301Y-16287150D01*
X12445301Y-16287150D02*
X12464349Y-16296674D01*
X12540539Y-16496674D02*
X12550063Y-16487150D01*
X12550063Y-16487150D02*
X12569111Y-16458579D01*
X12569111Y-16458579D02*
X12578634Y-16439531D01*
X12578634Y-16439531D02*
X12588158Y-16410960D01*
X12588158Y-16410960D02*
X12597682Y-16363341D01*
X12597682Y-16363341D02*
X12597682Y-16325246D01*
X12597682Y-16325246D02*
X12588158Y-16277627D01*
X12588158Y-16277627D02*
X12578634Y-16249055D01*
X12578634Y-16249055D02*
X12569111Y-16230008D01*
X12569111Y-16230008D02*
X12550063Y-16201436D01*
X12550063Y-16201436D02*
X12540539Y-16191912D01*
D16*
X7415000Y-16513000D02*
X7575000Y-16673000D01*
X7575000Y-16513000D02*
X7415000Y-16673000D01*
X7551569Y-16649569D02*
X7551569Y-16536431D01*
X7438431Y-16536431D01*
X7438431Y-16649569D01*
X7551569Y-16649569D01*
D12*
X7940539Y-16684484D02*
X7826253Y-16684484D01*
X7883396Y-16684484D02*
X7883396Y-16484484D01*
X7883396Y-16484484D02*
X7864348Y-16513055D01*
X7864348Y-16513055D02*
X7845301Y-16532103D01*
X7845301Y-16532103D02*
X7826253Y-16541627D01*
X8026253Y-16665436D02*
X8035777Y-16674960D01*
X8035777Y-16674960D02*
X8026253Y-16684484D01*
X8026253Y-16684484D02*
X8016729Y-16674960D01*
X8016729Y-16674960D02*
X8026253Y-16665436D01*
X8026253Y-16665436D02*
X8026253Y-16684484D01*
X8207205Y-16484484D02*
X8169110Y-16484484D01*
X8169110Y-16484484D02*
X8150062Y-16494008D01*
X8150062Y-16494008D02*
X8140539Y-16503531D01*
X8140539Y-16503531D02*
X8121491Y-16532103D01*
X8121491Y-16532103D02*
X8111967Y-16570198D01*
X8111967Y-16570198D02*
X8111967Y-16646388D01*
X8111967Y-16646388D02*
X8121491Y-16665436D01*
X8121491Y-16665436D02*
X8131015Y-16674960D01*
X8131015Y-16674960D02*
X8150062Y-16684484D01*
X8150062Y-16684484D02*
X8188158Y-16684484D01*
X8188158Y-16684484D02*
X8207205Y-16674960D01*
X8207205Y-16674960D02*
X8216729Y-16665436D01*
X8216729Y-16665436D02*
X8226253Y-16646388D01*
X8226253Y-16646388D02*
X8226253Y-16598769D01*
X8226253Y-16598769D02*
X8216729Y-16579722D01*
X8216729Y-16579722D02*
X8207205Y-16570198D01*
X8207205Y-16570198D02*
X8188158Y-16560674D01*
X8188158Y-16560674D02*
X8150062Y-16560674D01*
X8150062Y-16560674D02*
X8131015Y-16570198D01*
X8131015Y-16570198D02*
X8121491Y-16579722D01*
X8121491Y-16579722D02*
X8111967Y-16598769D01*
X8350062Y-16484484D02*
X8369110Y-16484484D01*
X8369110Y-16484484D02*
X8388158Y-16494008D01*
X8388158Y-16494008D02*
X8397682Y-16503531D01*
X8397682Y-16503531D02*
X8407205Y-16522579D01*
X8407205Y-16522579D02*
X8416729Y-16560674D01*
X8416729Y-16560674D02*
X8416729Y-16608293D01*
X8416729Y-16608293D02*
X8407205Y-16646388D01*
X8407205Y-16646388D02*
X8397682Y-16665436D01*
X8397682Y-16665436D02*
X8388158Y-16674960D01*
X8388158Y-16674960D02*
X8369110Y-16684484D01*
X8369110Y-16684484D02*
X8350062Y-16684484D01*
X8350062Y-16684484D02*
X8331015Y-16674960D01*
X8331015Y-16674960D02*
X8321491Y-16665436D01*
X8321491Y-16665436D02*
X8311967Y-16646388D01*
X8311967Y-16646388D02*
X8302443Y-16608293D01*
X8302443Y-16608293D02*
X8302443Y-16560674D01*
X8302443Y-16560674D02*
X8311967Y-16522579D01*
X8311967Y-16522579D02*
X8321491Y-16503531D01*
X8321491Y-16503531D02*
X8331015Y-16494008D01*
X8331015Y-16494008D02*
X8350062Y-16484484D01*
X8540539Y-16484484D02*
X8559586Y-16484484D01*
X8559586Y-16484484D02*
X8578634Y-16494008D01*
X8578634Y-16494008D02*
X8588158Y-16503531D01*
X8588158Y-16503531D02*
X8597682Y-16522579D01*
X8597682Y-16522579D02*
X8607205Y-16560674D01*
X8607205Y-16560674D02*
X8607205Y-16608293D01*
X8607205Y-16608293D02*
X8597682Y-16646388D01*
X8597682Y-16646388D02*
X8588158Y-16665436D01*
X8588158Y-16665436D02*
X8578634Y-16674960D01*
X8578634Y-16674960D02*
X8559586Y-16684484D01*
X8559586Y-16684484D02*
X8540539Y-16684484D01*
X8540539Y-16684484D02*
X8521491Y-16674960D01*
X8521491Y-16674960D02*
X8511967Y-16665436D01*
X8511967Y-16665436D02*
X8502444Y-16646388D01*
X8502444Y-16646388D02*
X8492920Y-16608293D01*
X8492920Y-16608293D02*
X8492920Y-16560674D01*
X8492920Y-16560674D02*
X8502444Y-16522579D01*
X8502444Y-16522579D02*
X8511967Y-16503531D01*
X8511967Y-16503531D02*
X8521491Y-16494008D01*
X8521491Y-16494008D02*
X8540539Y-16484484D01*
X8692920Y-16684484D02*
X8692920Y-16551150D01*
X8692920Y-16570198D02*
X8702444Y-16560674D01*
X8702444Y-16560674D02*
X8721491Y-16551150D01*
X8721491Y-16551150D02*
X8750063Y-16551150D01*
X8750063Y-16551150D02*
X8769110Y-16560674D01*
X8769110Y-16560674D02*
X8778634Y-16579722D01*
X8778634Y-16579722D02*
X8778634Y-16684484D01*
X8778634Y-16579722D02*
X8788158Y-16560674D01*
X8788158Y-16560674D02*
X8807205Y-16551150D01*
X8807205Y-16551150D02*
X8835777Y-16551150D01*
X8835777Y-16551150D02*
X8854825Y-16560674D01*
X8854825Y-16560674D02*
X8864348Y-16579722D01*
X8864348Y-16579722D02*
X8864348Y-16684484D01*
X8959586Y-16684484D02*
X8959586Y-16551150D01*
X8959586Y-16570198D02*
X8969110Y-16560674D01*
X8969110Y-16560674D02*
X8988158Y-16551150D01*
X8988158Y-16551150D02*
X9016729Y-16551150D01*
X9016729Y-16551150D02*
X9035777Y-16560674D01*
X9035777Y-16560674D02*
X9045301Y-16579722D01*
X9045301Y-16579722D02*
X9045301Y-16684484D01*
X9045301Y-16579722D02*
X9054825Y-16560674D01*
X9054825Y-16560674D02*
X9073872Y-16551150D01*
X9073872Y-16551150D02*
X9102444Y-16551150D01*
X9102444Y-16551150D02*
X9121491Y-16560674D01*
X9121491Y-16560674D02*
X9131015Y-16579722D01*
X9131015Y-16579722D02*
X9131015Y-16684484D01*
X9521491Y-16474960D02*
X9350063Y-16732103D01*
X9778634Y-16484484D02*
X9797682Y-16484484D01*
X9797682Y-16484484D02*
X9816729Y-16494008D01*
X9816729Y-16494008D02*
X9826253Y-16503531D01*
X9826253Y-16503531D02*
X9835777Y-16522579D01*
X9835777Y-16522579D02*
X9845301Y-16560674D01*
X9845301Y-16560674D02*
X9845301Y-16608293D01*
X9845301Y-16608293D02*
X9835777Y-16646388D01*
X9835777Y-16646388D02*
X9826253Y-16665436D01*
X9826253Y-16665436D02*
X9816729Y-16674960D01*
X9816729Y-16674960D02*
X9797682Y-16684484D01*
X9797682Y-16684484D02*
X9778634Y-16684484D01*
X9778634Y-16684484D02*
X9759587Y-16674960D01*
X9759587Y-16674960D02*
X9750063Y-16665436D01*
X9750063Y-16665436D02*
X9740539Y-16646388D01*
X9740539Y-16646388D02*
X9731015Y-16608293D01*
X9731015Y-16608293D02*
X9731015Y-16560674D01*
X9731015Y-16560674D02*
X9740539Y-16522579D01*
X9740539Y-16522579D02*
X9750063Y-16503531D01*
X9750063Y-16503531D02*
X9759587Y-16494008D01*
X9759587Y-16494008D02*
X9778634Y-16484484D01*
X9931015Y-16665436D02*
X9940539Y-16674960D01*
X9940539Y-16674960D02*
X9931015Y-16684484D01*
X9931015Y-16684484D02*
X9921491Y-16674960D01*
X9921491Y-16674960D02*
X9931015Y-16665436D01*
X9931015Y-16665436D02*
X9931015Y-16684484D01*
X10064348Y-16484484D02*
X10083396Y-16484484D01*
X10083396Y-16484484D02*
X10102444Y-16494008D01*
X10102444Y-16494008D02*
X10111968Y-16503531D01*
X10111968Y-16503531D02*
X10121491Y-16522579D01*
X10121491Y-16522579D02*
X10131015Y-16560674D01*
X10131015Y-16560674D02*
X10131015Y-16608293D01*
X10131015Y-16608293D02*
X10121491Y-16646388D01*
X10121491Y-16646388D02*
X10111968Y-16665436D01*
X10111968Y-16665436D02*
X10102444Y-16674960D01*
X10102444Y-16674960D02*
X10083396Y-16684484D01*
X10083396Y-16684484D02*
X10064348Y-16684484D01*
X10064348Y-16684484D02*
X10045301Y-16674960D01*
X10045301Y-16674960D02*
X10035777Y-16665436D01*
X10035777Y-16665436D02*
X10026253Y-16646388D01*
X10026253Y-16646388D02*
X10016729Y-16608293D01*
X10016729Y-16608293D02*
X10016729Y-16560674D01*
X10016729Y-16560674D02*
X10026253Y-16522579D01*
X10026253Y-16522579D02*
X10035777Y-16503531D01*
X10035777Y-16503531D02*
X10045301Y-16494008D01*
X10045301Y-16494008D02*
X10064348Y-16484484D01*
X10302444Y-16484484D02*
X10264348Y-16484484D01*
X10264348Y-16484484D02*
X10245301Y-16494008D01*
X10245301Y-16494008D02*
X10235777Y-16503531D01*
X10235777Y-16503531D02*
X10216729Y-16532103D01*
X10216729Y-16532103D02*
X10207206Y-16570198D01*
X10207206Y-16570198D02*
X10207206Y-16646388D01*
X10207206Y-16646388D02*
X10216729Y-16665436D01*
X10216729Y-16665436D02*
X10226253Y-16674960D01*
X10226253Y-16674960D02*
X10245301Y-16684484D01*
X10245301Y-16684484D02*
X10283396Y-16684484D01*
X10283396Y-16684484D02*
X10302444Y-16674960D01*
X10302444Y-16674960D02*
X10311968Y-16665436D01*
X10311968Y-16665436D02*
X10321491Y-16646388D01*
X10321491Y-16646388D02*
X10321491Y-16598769D01*
X10321491Y-16598769D02*
X10311968Y-16579722D01*
X10311968Y-16579722D02*
X10302444Y-16570198D01*
X10302444Y-16570198D02*
X10283396Y-16560674D01*
X10283396Y-16560674D02*
X10245301Y-16560674D01*
X10245301Y-16560674D02*
X10226253Y-16570198D01*
X10226253Y-16570198D02*
X10216729Y-16579722D01*
X10216729Y-16579722D02*
X10207206Y-16598769D01*
X10388158Y-16484484D02*
X10511968Y-16484484D01*
X10511968Y-16484484D02*
X10445301Y-16560674D01*
X10445301Y-16560674D02*
X10473872Y-16560674D01*
X10473872Y-16560674D02*
X10492920Y-16570198D01*
X10492920Y-16570198D02*
X10502444Y-16579722D01*
X10502444Y-16579722D02*
X10511968Y-16598769D01*
X10511968Y-16598769D02*
X10511968Y-16646388D01*
X10511968Y-16646388D02*
X10502444Y-16665436D01*
X10502444Y-16665436D02*
X10492920Y-16674960D01*
X10492920Y-16674960D02*
X10473872Y-16684484D01*
X10473872Y-16684484D02*
X10416729Y-16684484D01*
X10416729Y-16684484D02*
X10397682Y-16674960D01*
X10397682Y-16674960D02*
X10388158Y-16665436D01*
X10635777Y-16484484D02*
X10654825Y-16484484D01*
X10654825Y-16484484D02*
X10673872Y-16494008D01*
X10673872Y-16494008D02*
X10683396Y-16503531D01*
X10683396Y-16503531D02*
X10692920Y-16522579D01*
X10692920Y-16522579D02*
X10702444Y-16560674D01*
X10702444Y-16560674D02*
X10702444Y-16608293D01*
X10702444Y-16608293D02*
X10692920Y-16646388D01*
X10692920Y-16646388D02*
X10683396Y-16665436D01*
X10683396Y-16665436D02*
X10673872Y-16674960D01*
X10673872Y-16674960D02*
X10654825Y-16684484D01*
X10654825Y-16684484D02*
X10635777Y-16684484D01*
X10635777Y-16684484D02*
X10616729Y-16674960D01*
X10616729Y-16674960D02*
X10607206Y-16665436D01*
X10607206Y-16665436D02*
X10597682Y-16646388D01*
X10597682Y-16646388D02*
X10588158Y-16608293D01*
X10588158Y-16608293D02*
X10588158Y-16560674D01*
X10588158Y-16560674D02*
X10597682Y-16522579D01*
X10597682Y-16522579D02*
X10607206Y-16503531D01*
X10607206Y-16503531D02*
X10616729Y-16494008D01*
X10616729Y-16494008D02*
X10635777Y-16484484D01*
X10778634Y-16484484D02*
X10778634Y-16522579D01*
X10854825Y-16484484D02*
X10854825Y-16522579D01*
X11150063Y-16760674D02*
X11140539Y-16751150D01*
X11140539Y-16751150D02*
X11121491Y-16722579D01*
X11121491Y-16722579D02*
X11111968Y-16703531D01*
X11111968Y-16703531D02*
X11102444Y-16674960D01*
X11102444Y-16674960D02*
X11092920Y-16627341D01*
X11092920Y-16627341D02*
X11092920Y-16589246D01*
X11092920Y-16589246D02*
X11102444Y-16541627D01*
X11102444Y-16541627D02*
X11111968Y-16513055D01*
X11111968Y-16513055D02*
X11121491Y-16494008D01*
X11121491Y-16494008D02*
X11140539Y-16465436D01*
X11140539Y-16465436D02*
X11150063Y-16455912D01*
X11254825Y-16570198D02*
X11235777Y-16560674D01*
X11235777Y-16560674D02*
X11226253Y-16551150D01*
X11226253Y-16551150D02*
X11216729Y-16532103D01*
X11216729Y-16532103D02*
X11216729Y-16522579D01*
X11216729Y-16522579D02*
X11226253Y-16503531D01*
X11226253Y-16503531D02*
X11235777Y-16494008D01*
X11235777Y-16494008D02*
X11254825Y-16484484D01*
X11254825Y-16484484D02*
X11292920Y-16484484D01*
X11292920Y-16484484D02*
X11311968Y-16494008D01*
X11311968Y-16494008D02*
X11321491Y-16503531D01*
X11321491Y-16503531D02*
X11331015Y-16522579D01*
X11331015Y-16522579D02*
X11331015Y-16532103D01*
X11331015Y-16532103D02*
X11321491Y-16551150D01*
X11321491Y-16551150D02*
X11311968Y-16560674D01*
X11311968Y-16560674D02*
X11292920Y-16570198D01*
X11292920Y-16570198D02*
X11254825Y-16570198D01*
X11254825Y-16570198D02*
X11235777Y-16579722D01*
X11235777Y-16579722D02*
X11226253Y-16589246D01*
X11226253Y-16589246D02*
X11216729Y-16608293D01*
X11216729Y-16608293D02*
X11216729Y-16646388D01*
X11216729Y-16646388D02*
X11226253Y-16665436D01*
X11226253Y-16665436D02*
X11235777Y-16674960D01*
X11235777Y-16674960D02*
X11254825Y-16684484D01*
X11254825Y-16684484D02*
X11292920Y-16684484D01*
X11292920Y-16684484D02*
X11311968Y-16674960D01*
X11311968Y-16674960D02*
X11321491Y-16665436D01*
X11321491Y-16665436D02*
X11331015Y-16646388D01*
X11331015Y-16646388D02*
X11331015Y-16608293D01*
X11331015Y-16608293D02*
X11321491Y-16589246D01*
X11321491Y-16589246D02*
X11311968Y-16579722D01*
X11311968Y-16579722D02*
X11292920Y-16570198D01*
X11569110Y-16684484D02*
X11569110Y-16484484D01*
X11654825Y-16684484D02*
X11654825Y-16579722D01*
X11654825Y-16579722D02*
X11645301Y-16560674D01*
X11645301Y-16560674D02*
X11626253Y-16551150D01*
X11626253Y-16551150D02*
X11597682Y-16551150D01*
X11597682Y-16551150D02*
X11578634Y-16560674D01*
X11578634Y-16560674D02*
X11569110Y-16570198D01*
X11778634Y-16684484D02*
X11759587Y-16674960D01*
X11759587Y-16674960D02*
X11750063Y-16665436D01*
X11750063Y-16665436D02*
X11740539Y-16646388D01*
X11740539Y-16646388D02*
X11740539Y-16589246D01*
X11740539Y-16589246D02*
X11750063Y-16570198D01*
X11750063Y-16570198D02*
X11759587Y-16560674D01*
X11759587Y-16560674D02*
X11778634Y-16551150D01*
X11778634Y-16551150D02*
X11807206Y-16551150D01*
X11807206Y-16551150D02*
X11826253Y-16560674D01*
X11826253Y-16560674D02*
X11835777Y-16570198D01*
X11835777Y-16570198D02*
X11845301Y-16589246D01*
X11845301Y-16589246D02*
X11845301Y-16646388D01*
X11845301Y-16646388D02*
X11835777Y-16665436D01*
X11835777Y-16665436D02*
X11826253Y-16674960D01*
X11826253Y-16674960D02*
X11807206Y-16684484D01*
X11807206Y-16684484D02*
X11778634Y-16684484D01*
X11959587Y-16684484D02*
X11940539Y-16674960D01*
X11940539Y-16674960D02*
X11931015Y-16655912D01*
X11931015Y-16655912D02*
X11931015Y-16484484D01*
X12111968Y-16674960D02*
X12092920Y-16684484D01*
X12092920Y-16684484D02*
X12054825Y-16684484D01*
X12054825Y-16684484D02*
X12035777Y-16674960D01*
X12035777Y-16674960D02*
X12026253Y-16655912D01*
X12026253Y-16655912D02*
X12026253Y-16579722D01*
X12026253Y-16579722D02*
X12035777Y-16560674D01*
X12035777Y-16560674D02*
X12054825Y-16551150D01*
X12054825Y-16551150D02*
X12092920Y-16551150D01*
X12092920Y-16551150D02*
X12111968Y-16560674D01*
X12111968Y-16560674D02*
X12121491Y-16579722D01*
X12121491Y-16579722D02*
X12121491Y-16598769D01*
X12121491Y-16598769D02*
X12026253Y-16617817D01*
X12197682Y-16674960D02*
X12216730Y-16684484D01*
X12216730Y-16684484D02*
X12254825Y-16684484D01*
X12254825Y-16684484D02*
X12273872Y-16674960D01*
X12273872Y-16674960D02*
X12283396Y-16655912D01*
X12283396Y-16655912D02*
X12283396Y-16646388D01*
X12283396Y-16646388D02*
X12273872Y-16627341D01*
X12273872Y-16627341D02*
X12254825Y-16617817D01*
X12254825Y-16617817D02*
X12226253Y-16617817D01*
X12226253Y-16617817D02*
X12207206Y-16608293D01*
X12207206Y-16608293D02*
X12197682Y-16589246D01*
X12197682Y-16589246D02*
X12197682Y-16579722D01*
X12197682Y-16579722D02*
X12207206Y-16560674D01*
X12207206Y-16560674D02*
X12226253Y-16551150D01*
X12226253Y-16551150D02*
X12254825Y-16551150D01*
X12254825Y-16551150D02*
X12273872Y-16560674D01*
X12350063Y-16760674D02*
X12359587Y-16751150D01*
X12359587Y-16751150D02*
X12378634Y-16722579D01*
X12378634Y-16722579D02*
X12388158Y-16703531D01*
X12388158Y-16703531D02*
X12397682Y-16674960D01*
X12397682Y-16674960D02*
X12407206Y-16627341D01*
X12407206Y-16627341D02*
X12407206Y-16589246D01*
X12407206Y-16589246D02*
X12397682Y-16541627D01*
X12397682Y-16541627D02*
X12388158Y-16513055D01*
X12388158Y-16513055D02*
X12378634Y-16494008D01*
X12378634Y-16494008D02*
X12359587Y-16465436D01*
X12359587Y-16465436D02*
X12350063Y-16455912D01*
X7375000Y-16773000D02*
X7575000Y-16973000D01*
X7575000Y-16773000D02*
X7375000Y-16973000D01*
X7475000Y-16973000D02*
X7575000Y-16873000D01*
X7475000Y-16773000D01*
X7375000Y-16873000D01*
X7475000Y-16973000D01*
X7816729Y-16764484D02*
X7940539Y-16764484D01*
X7940539Y-16764484D02*
X7873872Y-16840674D01*
X7873872Y-16840674D02*
X7902443Y-16840674D01*
X7902443Y-16840674D02*
X7921491Y-16850198D01*
X7921491Y-16850198D02*
X7931015Y-16859722D01*
X7931015Y-16859722D02*
X7940539Y-16878770D01*
X7940539Y-16878770D02*
X7940539Y-16926389D01*
X7940539Y-16926389D02*
X7931015Y-16945436D01*
X7931015Y-16945436D02*
X7921491Y-16954960D01*
X7921491Y-16954960D02*
X7902443Y-16964484D01*
X7902443Y-16964484D02*
X7845301Y-16964484D01*
X7845301Y-16964484D02*
X7826253Y-16954960D01*
X7826253Y-16954960D02*
X7816729Y-16945436D01*
X8026253Y-16945436D02*
X8035777Y-16954960D01*
X8035777Y-16954960D02*
X8026253Y-16964484D01*
X8026253Y-16964484D02*
X8016729Y-16954960D01*
X8016729Y-16954960D02*
X8026253Y-16945436D01*
X8026253Y-16945436D02*
X8026253Y-16964484D01*
X8111967Y-16783531D02*
X8121491Y-16774008D01*
X8121491Y-16774008D02*
X8140539Y-16764484D01*
X8140539Y-16764484D02*
X8188158Y-16764484D01*
X8188158Y-16764484D02*
X8207205Y-16774008D01*
X8207205Y-16774008D02*
X8216729Y-16783531D01*
X8216729Y-16783531D02*
X8226253Y-16802579D01*
X8226253Y-16802579D02*
X8226253Y-16821627D01*
X8226253Y-16821627D02*
X8216729Y-16850198D01*
X8216729Y-16850198D02*
X8102443Y-16964484D01*
X8102443Y-16964484D02*
X8226253Y-16964484D01*
X8350062Y-16764484D02*
X8369110Y-16764484D01*
X8369110Y-16764484D02*
X8388158Y-16774008D01*
X8388158Y-16774008D02*
X8397682Y-16783531D01*
X8397682Y-16783531D02*
X8407205Y-16802579D01*
X8407205Y-16802579D02*
X8416729Y-16840674D01*
X8416729Y-16840674D02*
X8416729Y-16888293D01*
X8416729Y-16888293D02*
X8407205Y-16926389D01*
X8407205Y-16926389D02*
X8397682Y-16945436D01*
X8397682Y-16945436D02*
X8388158Y-16954960D01*
X8388158Y-16954960D02*
X8369110Y-16964484D01*
X8369110Y-16964484D02*
X8350062Y-16964484D01*
X8350062Y-16964484D02*
X8331015Y-16954960D01*
X8331015Y-16954960D02*
X8321491Y-16945436D01*
X8321491Y-16945436D02*
X8311967Y-16926389D01*
X8311967Y-16926389D02*
X8302443Y-16888293D01*
X8302443Y-16888293D02*
X8302443Y-16840674D01*
X8302443Y-16840674D02*
X8311967Y-16802579D01*
X8311967Y-16802579D02*
X8321491Y-16783531D01*
X8321491Y-16783531D02*
X8331015Y-16774008D01*
X8331015Y-16774008D02*
X8350062Y-16764484D01*
X8540539Y-16764484D02*
X8559586Y-16764484D01*
X8559586Y-16764484D02*
X8578634Y-16774008D01*
X8578634Y-16774008D02*
X8588158Y-16783531D01*
X8588158Y-16783531D02*
X8597682Y-16802579D01*
X8597682Y-16802579D02*
X8607205Y-16840674D01*
X8607205Y-16840674D02*
X8607205Y-16888293D01*
X8607205Y-16888293D02*
X8597682Y-16926389D01*
X8597682Y-16926389D02*
X8588158Y-16945436D01*
X8588158Y-16945436D02*
X8578634Y-16954960D01*
X8578634Y-16954960D02*
X8559586Y-16964484D01*
X8559586Y-16964484D02*
X8540539Y-16964484D01*
X8540539Y-16964484D02*
X8521491Y-16954960D01*
X8521491Y-16954960D02*
X8511967Y-16945436D01*
X8511967Y-16945436D02*
X8502444Y-16926389D01*
X8502444Y-16926389D02*
X8492920Y-16888293D01*
X8492920Y-16888293D02*
X8492920Y-16840674D01*
X8492920Y-16840674D02*
X8502444Y-16802579D01*
X8502444Y-16802579D02*
X8511967Y-16783531D01*
X8511967Y-16783531D02*
X8521491Y-16774008D01*
X8521491Y-16774008D02*
X8540539Y-16764484D01*
X8692920Y-16964484D02*
X8692920Y-16831150D01*
X8692920Y-16850198D02*
X8702444Y-16840674D01*
X8702444Y-16840674D02*
X8721491Y-16831150D01*
X8721491Y-16831150D02*
X8750063Y-16831150D01*
X8750063Y-16831150D02*
X8769110Y-16840674D01*
X8769110Y-16840674D02*
X8778634Y-16859722D01*
X8778634Y-16859722D02*
X8778634Y-16964484D01*
X8778634Y-16859722D02*
X8788158Y-16840674D01*
X8788158Y-16840674D02*
X8807205Y-16831150D01*
X8807205Y-16831150D02*
X8835777Y-16831150D01*
X8835777Y-16831150D02*
X8854825Y-16840674D01*
X8854825Y-16840674D02*
X8864348Y-16859722D01*
X8864348Y-16859722D02*
X8864348Y-16964484D01*
X8959586Y-16964484D02*
X8959586Y-16831150D01*
X8959586Y-16850198D02*
X8969110Y-16840674D01*
X8969110Y-16840674D02*
X8988158Y-16831150D01*
X8988158Y-16831150D02*
X9016729Y-16831150D01*
X9016729Y-16831150D02*
X9035777Y-16840674D01*
X9035777Y-16840674D02*
X9045301Y-16859722D01*
X9045301Y-16859722D02*
X9045301Y-16964484D01*
X9045301Y-16859722D02*
X9054825Y-16840674D01*
X9054825Y-16840674D02*
X9073872Y-16831150D01*
X9073872Y-16831150D02*
X9102444Y-16831150D01*
X9102444Y-16831150D02*
X9121491Y-16840674D01*
X9121491Y-16840674D02*
X9131015Y-16859722D01*
X9131015Y-16859722D02*
X9131015Y-16964484D01*
X9521491Y-16754960D02*
X9350063Y-17012103D01*
X9778634Y-16764484D02*
X9797682Y-16764484D01*
X9797682Y-16764484D02*
X9816729Y-16774008D01*
X9816729Y-16774008D02*
X9826253Y-16783531D01*
X9826253Y-16783531D02*
X9835777Y-16802579D01*
X9835777Y-16802579D02*
X9845301Y-16840674D01*
X9845301Y-16840674D02*
X9845301Y-16888293D01*
X9845301Y-16888293D02*
X9835777Y-16926389D01*
X9835777Y-16926389D02*
X9826253Y-16945436D01*
X9826253Y-16945436D02*
X9816729Y-16954960D01*
X9816729Y-16954960D02*
X9797682Y-16964484D01*
X9797682Y-16964484D02*
X9778634Y-16964484D01*
X9778634Y-16964484D02*
X9759587Y-16954960D01*
X9759587Y-16954960D02*
X9750063Y-16945436D01*
X9750063Y-16945436D02*
X9740539Y-16926389D01*
X9740539Y-16926389D02*
X9731015Y-16888293D01*
X9731015Y-16888293D02*
X9731015Y-16840674D01*
X9731015Y-16840674D02*
X9740539Y-16802579D01*
X9740539Y-16802579D02*
X9750063Y-16783531D01*
X9750063Y-16783531D02*
X9759587Y-16774008D01*
X9759587Y-16774008D02*
X9778634Y-16764484D01*
X9931015Y-16945436D02*
X9940539Y-16954960D01*
X9940539Y-16954960D02*
X9931015Y-16964484D01*
X9931015Y-16964484D02*
X9921491Y-16954960D01*
X9921491Y-16954960D02*
X9931015Y-16945436D01*
X9931015Y-16945436D02*
X9931015Y-16964484D01*
X10131015Y-16964484D02*
X10016729Y-16964484D01*
X10073872Y-16964484D02*
X10073872Y-16764484D01*
X10073872Y-16764484D02*
X10054825Y-16793055D01*
X10054825Y-16793055D02*
X10035777Y-16812103D01*
X10035777Y-16812103D02*
X10016729Y-16821627D01*
X10207206Y-16783531D02*
X10216729Y-16774008D01*
X10216729Y-16774008D02*
X10235777Y-16764484D01*
X10235777Y-16764484D02*
X10283396Y-16764484D01*
X10283396Y-16764484D02*
X10302444Y-16774008D01*
X10302444Y-16774008D02*
X10311968Y-16783531D01*
X10311968Y-16783531D02*
X10321491Y-16802579D01*
X10321491Y-16802579D02*
X10321491Y-16821627D01*
X10321491Y-16821627D02*
X10311968Y-16850198D01*
X10311968Y-16850198D02*
X10197682Y-16964484D01*
X10197682Y-16964484D02*
X10321491Y-16964484D01*
X10492920Y-16764484D02*
X10454825Y-16764484D01*
X10454825Y-16764484D02*
X10435777Y-16774008D01*
X10435777Y-16774008D02*
X10426253Y-16783531D01*
X10426253Y-16783531D02*
X10407206Y-16812103D01*
X10407206Y-16812103D02*
X10397682Y-16850198D01*
X10397682Y-16850198D02*
X10397682Y-16926389D01*
X10397682Y-16926389D02*
X10407206Y-16945436D01*
X10407206Y-16945436D02*
X10416729Y-16954960D01*
X10416729Y-16954960D02*
X10435777Y-16964484D01*
X10435777Y-16964484D02*
X10473872Y-16964484D01*
X10473872Y-16964484D02*
X10492920Y-16954960D01*
X10492920Y-16954960D02*
X10502444Y-16945436D01*
X10502444Y-16945436D02*
X10511968Y-16926389D01*
X10511968Y-16926389D02*
X10511968Y-16878770D01*
X10511968Y-16878770D02*
X10502444Y-16859722D01*
X10502444Y-16859722D02*
X10492920Y-16850198D01*
X10492920Y-16850198D02*
X10473872Y-16840674D01*
X10473872Y-16840674D02*
X10435777Y-16840674D01*
X10435777Y-16840674D02*
X10416729Y-16850198D01*
X10416729Y-16850198D02*
X10407206Y-16859722D01*
X10407206Y-16859722D02*
X10397682Y-16878770D01*
X10635777Y-16764484D02*
X10654825Y-16764484D01*
X10654825Y-16764484D02*
X10673872Y-16774008D01*
X10673872Y-16774008D02*
X10683396Y-16783531D01*
X10683396Y-16783531D02*
X10692920Y-16802579D01*
X10692920Y-16802579D02*
X10702444Y-16840674D01*
X10702444Y-16840674D02*
X10702444Y-16888293D01*
X10702444Y-16888293D02*
X10692920Y-16926389D01*
X10692920Y-16926389D02*
X10683396Y-16945436D01*
X10683396Y-16945436D02*
X10673872Y-16954960D01*
X10673872Y-16954960D02*
X10654825Y-16964484D01*
X10654825Y-16964484D02*
X10635777Y-16964484D01*
X10635777Y-16964484D02*
X10616729Y-16954960D01*
X10616729Y-16954960D02*
X10607206Y-16945436D01*
X10607206Y-16945436D02*
X10597682Y-16926389D01*
X10597682Y-16926389D02*
X10588158Y-16888293D01*
X10588158Y-16888293D02*
X10588158Y-16840674D01*
X10588158Y-16840674D02*
X10597682Y-16802579D01*
X10597682Y-16802579D02*
X10607206Y-16783531D01*
X10607206Y-16783531D02*
X10616729Y-16774008D01*
X10616729Y-16774008D02*
X10635777Y-16764484D01*
X10778634Y-16764484D02*
X10778634Y-16802579D01*
X10854825Y-16764484D02*
X10854825Y-16802579D01*
X11150063Y-17040674D02*
X11140539Y-17031150D01*
X11140539Y-17031150D02*
X11121491Y-17002579D01*
X11121491Y-17002579D02*
X11111968Y-16983531D01*
X11111968Y-16983531D02*
X11102444Y-16954960D01*
X11102444Y-16954960D02*
X11092920Y-16907341D01*
X11092920Y-16907341D02*
X11092920Y-16869246D01*
X11092920Y-16869246D02*
X11102444Y-16821627D01*
X11102444Y-16821627D02*
X11111968Y-16793055D01*
X11111968Y-16793055D02*
X11121491Y-16774008D01*
X11121491Y-16774008D02*
X11140539Y-16745436D01*
X11140539Y-16745436D02*
X11150063Y-16735912D01*
X11311968Y-16831150D02*
X11311968Y-16964484D01*
X11264348Y-16754960D02*
X11216729Y-16897817D01*
X11216729Y-16897817D02*
X11340539Y-16897817D01*
X11569110Y-16964484D02*
X11569110Y-16764484D01*
X11654825Y-16964484D02*
X11654825Y-16859722D01*
X11654825Y-16859722D02*
X11645301Y-16840674D01*
X11645301Y-16840674D02*
X11626253Y-16831150D01*
X11626253Y-16831150D02*
X11597682Y-16831150D01*
X11597682Y-16831150D02*
X11578634Y-16840674D01*
X11578634Y-16840674D02*
X11569110Y-16850198D01*
X11778634Y-16964484D02*
X11759587Y-16954960D01*
X11759587Y-16954960D02*
X11750063Y-16945436D01*
X11750063Y-16945436D02*
X11740539Y-16926389D01*
X11740539Y-16926389D02*
X11740539Y-16869246D01*
X11740539Y-16869246D02*
X11750063Y-16850198D01*
X11750063Y-16850198D02*
X11759587Y-16840674D01*
X11759587Y-16840674D02*
X11778634Y-16831150D01*
X11778634Y-16831150D02*
X11807206Y-16831150D01*
X11807206Y-16831150D02*
X11826253Y-16840674D01*
X11826253Y-16840674D02*
X11835777Y-16850198D01*
X11835777Y-16850198D02*
X11845301Y-16869246D01*
X11845301Y-16869246D02*
X11845301Y-16926389D01*
X11845301Y-16926389D02*
X11835777Y-16945436D01*
X11835777Y-16945436D02*
X11826253Y-16954960D01*
X11826253Y-16954960D02*
X11807206Y-16964484D01*
X11807206Y-16964484D02*
X11778634Y-16964484D01*
X11959587Y-16964484D02*
X11940539Y-16954960D01*
X11940539Y-16954960D02*
X11931015Y-16935912D01*
X11931015Y-16935912D02*
X11931015Y-16764484D01*
X12111968Y-16954960D02*
X12092920Y-16964484D01*
X12092920Y-16964484D02*
X12054825Y-16964484D01*
X12054825Y-16964484D02*
X12035777Y-16954960D01*
X12035777Y-16954960D02*
X12026253Y-16935912D01*
X12026253Y-16935912D02*
X12026253Y-16859722D01*
X12026253Y-16859722D02*
X12035777Y-16840674D01*
X12035777Y-16840674D02*
X12054825Y-16831150D01*
X12054825Y-16831150D02*
X12092920Y-16831150D01*
X12092920Y-16831150D02*
X12111968Y-16840674D01*
X12111968Y-16840674D02*
X12121491Y-16859722D01*
X12121491Y-16859722D02*
X12121491Y-16878770D01*
X12121491Y-16878770D02*
X12026253Y-16897817D01*
X12197682Y-16954960D02*
X12216730Y-16964484D01*
X12216730Y-16964484D02*
X12254825Y-16964484D01*
X12254825Y-16964484D02*
X12273872Y-16954960D01*
X12273872Y-16954960D02*
X12283396Y-16935912D01*
X12283396Y-16935912D02*
X12283396Y-16926389D01*
X12283396Y-16926389D02*
X12273872Y-16907341D01*
X12273872Y-16907341D02*
X12254825Y-16897817D01*
X12254825Y-16897817D02*
X12226253Y-16897817D01*
X12226253Y-16897817D02*
X12207206Y-16888293D01*
X12207206Y-16888293D02*
X12197682Y-16869246D01*
X12197682Y-16869246D02*
X12197682Y-16859722D01*
X12197682Y-16859722D02*
X12207206Y-16840674D01*
X12207206Y-16840674D02*
X12226253Y-16831150D01*
X12226253Y-16831150D02*
X12254825Y-16831150D01*
X12254825Y-16831150D02*
X12273872Y-16840674D01*
X12350063Y-17040674D02*
X12359587Y-17031150D01*
X12359587Y-17031150D02*
X12378634Y-17002579D01*
X12378634Y-17002579D02*
X12388158Y-16983531D01*
X12388158Y-16983531D02*
X12397682Y-16954960D01*
X12397682Y-16954960D02*
X12407206Y-16907341D01*
X12407206Y-16907341D02*
X12407206Y-16869246D01*
X12407206Y-16869246D02*
X12397682Y-16821627D01*
X12397682Y-16821627D02*
X12388158Y-16793055D01*
X12388158Y-16793055D02*
X12378634Y-16774008D01*
X12378634Y-16774008D02*
X12359587Y-16745436D01*
X12359587Y-16745436D02*
X12350063Y-16735912D01*
X12711968Y-17040674D02*
X12702444Y-17031150D01*
X12702444Y-17031150D02*
X12683396Y-17002579D01*
X12683396Y-17002579D02*
X12673872Y-16983531D01*
X12673872Y-16983531D02*
X12664349Y-16954960D01*
X12664349Y-16954960D02*
X12654825Y-16907341D01*
X12654825Y-16907341D02*
X12654825Y-16869246D01*
X12654825Y-16869246D02*
X12664349Y-16821627D01*
X12664349Y-16821627D02*
X12673872Y-16793055D01*
X12673872Y-16793055D02*
X12683396Y-16774008D01*
X12683396Y-16774008D02*
X12702444Y-16745436D01*
X12702444Y-16745436D02*
X12711968Y-16735912D01*
X12788158Y-16831150D02*
X12788158Y-16964484D01*
X12788158Y-16850198D02*
X12797682Y-16840674D01*
X12797682Y-16840674D02*
X12816730Y-16831150D01*
X12816730Y-16831150D02*
X12845301Y-16831150D01*
X12845301Y-16831150D02*
X12864349Y-16840674D01*
X12864349Y-16840674D02*
X12873872Y-16859722D01*
X12873872Y-16859722D02*
X12873872Y-16964484D01*
X12997682Y-16964484D02*
X12978634Y-16954960D01*
X12978634Y-16954960D02*
X12969111Y-16945436D01*
X12969111Y-16945436D02*
X12959587Y-16926389D01*
X12959587Y-16926389D02*
X12959587Y-16869246D01*
X12959587Y-16869246D02*
X12969111Y-16850198D01*
X12969111Y-16850198D02*
X12978634Y-16840674D01*
X12978634Y-16840674D02*
X12997682Y-16831150D01*
X12997682Y-16831150D02*
X13026253Y-16831150D01*
X13026253Y-16831150D02*
X13045301Y-16840674D01*
X13045301Y-16840674D02*
X13054825Y-16850198D01*
X13054825Y-16850198D02*
X13064349Y-16869246D01*
X13064349Y-16869246D02*
X13064349Y-16926389D01*
X13064349Y-16926389D02*
X13054825Y-16945436D01*
X13054825Y-16945436D02*
X13045301Y-16954960D01*
X13045301Y-16954960D02*
X13026253Y-16964484D01*
X13026253Y-16964484D02*
X12997682Y-16964484D01*
X13121492Y-16831150D02*
X13197682Y-16831150D01*
X13150063Y-16764484D02*
X13150063Y-16935912D01*
X13150063Y-16935912D02*
X13159587Y-16954960D01*
X13159587Y-16954960D02*
X13178634Y-16964484D01*
X13178634Y-16964484D02*
X13197682Y-16964484D01*
X13416730Y-16831150D02*
X13416730Y-17031150D01*
X13416730Y-16840674D02*
X13435777Y-16831150D01*
X13435777Y-16831150D02*
X13473873Y-16831150D01*
X13473873Y-16831150D02*
X13492920Y-16840674D01*
X13492920Y-16840674D02*
X13502444Y-16850198D01*
X13502444Y-16850198D02*
X13511968Y-16869246D01*
X13511968Y-16869246D02*
X13511968Y-16926389D01*
X13511968Y-16926389D02*
X13502444Y-16945436D01*
X13502444Y-16945436D02*
X13492920Y-16954960D01*
X13492920Y-16954960D02*
X13473873Y-16964484D01*
X13473873Y-16964484D02*
X13435777Y-16964484D01*
X13435777Y-16964484D02*
X13416730Y-16954960D01*
X13626253Y-16964484D02*
X13607206Y-16954960D01*
X13607206Y-16954960D02*
X13597682Y-16935912D01*
X13597682Y-16935912D02*
X13597682Y-16764484D01*
X13788158Y-16964484D02*
X13788158Y-16859722D01*
X13788158Y-16859722D02*
X13778634Y-16840674D01*
X13778634Y-16840674D02*
X13759587Y-16831150D01*
X13759587Y-16831150D02*
X13721492Y-16831150D01*
X13721492Y-16831150D02*
X13702444Y-16840674D01*
X13788158Y-16954960D02*
X13769111Y-16964484D01*
X13769111Y-16964484D02*
X13721492Y-16964484D01*
X13721492Y-16964484D02*
X13702444Y-16954960D01*
X13702444Y-16954960D02*
X13692920Y-16935912D01*
X13692920Y-16935912D02*
X13692920Y-16916865D01*
X13692920Y-16916865D02*
X13702444Y-16897817D01*
X13702444Y-16897817D02*
X13721492Y-16888293D01*
X13721492Y-16888293D02*
X13769111Y-16888293D01*
X13769111Y-16888293D02*
X13788158Y-16878770D01*
X13854825Y-16831150D02*
X13931015Y-16831150D01*
X13883396Y-16764484D02*
X13883396Y-16935912D01*
X13883396Y-16935912D02*
X13892920Y-16954960D01*
X13892920Y-16954960D02*
X13911968Y-16964484D01*
X13911968Y-16964484D02*
X13931015Y-16964484D01*
X14073873Y-16954960D02*
X14054825Y-16964484D01*
X14054825Y-16964484D02*
X14016730Y-16964484D01*
X14016730Y-16964484D02*
X13997682Y-16954960D01*
X13997682Y-16954960D02*
X13988158Y-16935912D01*
X13988158Y-16935912D02*
X13988158Y-16859722D01*
X13988158Y-16859722D02*
X13997682Y-16840674D01*
X13997682Y-16840674D02*
X14016730Y-16831150D01*
X14016730Y-16831150D02*
X14054825Y-16831150D01*
X14054825Y-16831150D02*
X14073873Y-16840674D01*
X14073873Y-16840674D02*
X14083396Y-16859722D01*
X14083396Y-16859722D02*
X14083396Y-16878770D01*
X14083396Y-16878770D02*
X13988158Y-16897817D01*
X14254825Y-16964484D02*
X14254825Y-16764484D01*
X14254825Y-16954960D02*
X14235777Y-16964484D01*
X14235777Y-16964484D02*
X14197682Y-16964484D01*
X14197682Y-16964484D02*
X14178634Y-16954960D01*
X14178634Y-16954960D02*
X14169111Y-16945436D01*
X14169111Y-16945436D02*
X14159587Y-16926389D01*
X14159587Y-16926389D02*
X14159587Y-16869246D01*
X14159587Y-16869246D02*
X14169111Y-16850198D01*
X14169111Y-16850198D02*
X14178634Y-16840674D01*
X14178634Y-16840674D02*
X14197682Y-16831150D01*
X14197682Y-16831150D02*
X14235777Y-16831150D01*
X14235777Y-16831150D02*
X14254825Y-16840674D01*
X14331015Y-17040674D02*
X14340539Y-17031150D01*
X14340539Y-17031150D02*
X14359587Y-17002579D01*
X14359587Y-17002579D02*
X14369111Y-16983531D01*
X14369111Y-16983531D02*
X14378634Y-16954960D01*
X14378634Y-16954960D02*
X14388158Y-16907341D01*
X14388158Y-16907341D02*
X14388158Y-16869246D01*
X14388158Y-16869246D02*
X14378634Y-16821627D01*
X14378634Y-16821627D02*
X14369111Y-16793055D01*
X14369111Y-16793055D02*
X14359587Y-16774008D01*
X14359587Y-16774008D02*
X14340539Y-16745436D01*
X14340539Y-16745436D02*
X14331015Y-16735912D01*
M02*
